<svg width="1200" height="200" preserveAspectRatio="xMidYMid" version="1.1" viewBox="0 0 1200 200" xml:space="preserve" xmlns="http://www.w3.org/2000/svg"><defs><linearGradient id="linearGradient119" x1="2583.8" x2="2583.8" y1="92.598" y2="1028.3" gradientTransform="matrix(.18745 0 0 .18745 -15.855 -5.0524)" gradientUnits="userSpaceOnUse"><stop style="stop-color:#69ceff" offset="0"/><stop style="stop-color:#0100b7" offset="1"/></linearGradient></defs><path d="m89.868 12.308c-2.4405 0-4.8959 1.4538-6.3709 4.2699a0.37393 0.37393 0 0 0-0.0013 3e-3l-83.196 162.26 0.068463-0.0937c-0.17475 0.17474-0.20833 0.35141-0.25078 0.54951-0.042448 0.1981-0.066967 0.421-0.083837 0.65717-0.033755 0.47234-0.033329 0.99557-0.033329 1.3831 0 3.2874 2.4953 5.7998 5.5413 5.7998 2.221 0 4.14-1.3627 4.983-3.0449l0.0023-4e-3 32.006-62.221 42.278 62.264-0.01137-0.0177c1.2224 2.0373 3.1584 3.0881 5.1006 3.0881 1.9421 0 3.8782-1.0508 5.1006-3.0881l-0.01106 0.0169 42.277-62.519 32.007 62.477c0.842 1.684 2.7795 3.0489 5.2433 3.0489 3.046 0 5.7998-2.4916 5.7998-5.7998 0-0.93559-0.55811-1.9777-1.3334-3.2711l-82.932-161.47-4.33e-4 -1e-3c-1.344-2.8212-3.7423-4.2811-6.1825-4.2811zm0 0.74759c2.1456 0 4.2682 1.2525 5.508 3.8562a0.37393 0.37393 0 0 0 5e-3 0.0103l82.938 161.48a0.37393 0.37393 0 0 0 0.0116 0.0215c0.7676 1.2793 1.2385 2.299 1.2385 2.908 0 2.8928-2.4137 5.0519-5.0519 5.0519-2.1869 0-3.8662-1.2188-4.5745-2.6352a0.37393 0.37393 0 0 0-1e-3 -4e-3l-32.297-63.043a0.37393 0.37393 0 0 0-0.64252-0.0388l-42.631 63.043a0.37393 0.37393 0 0 0-0.011 0.0173c-1.103 1.8383-2.7841 2.7253-4.4591 2.7253-1.6751 0-3.3566-0.88704-4.4595-2.7253a0.37393 0.37393 0 0 0-0.01106-0.0176l-42.632-62.784a0.37393 0.37393 0 0 0-0.64178 0.0388l-32.297 62.785a0.37393 0.37393 0 0 0-0.00195 4e-3c-0.70823 1.4165-2.4052 2.6352-4.3164 2.6352-2.6382 0-4.7934-2.1384-4.7934-5.0519 0-0.38757 2.9919e-4 -0.89774 0.031101-1.3297 0.015413-0.21598 0.039343-0.41289 0.069559-0.55392 0.030218-0.14102 0.093525-0.22277 0.047962-0.1772a0.37393 0.37393 0 0 0 0.068463-0.0941l83.195-162.26c1.367-2.6098 3.5627-3.869 5.7083-3.869zm0.16145 15.465a0.37393 0.37393 0 0 0-0.33279 0.20282l-41.856 81.387a0.37393 0.37393 0 0 0 0.02306 0.38076l41.856 61.751a0.37393 0.37393 0 0 0 0.62018-1e-3l41.598-62.009a0.37393 0.37393 0 0 0 0.0223-0.37892l-41.598-81.129a0.37393 0.37393 0 0 0-0.33242-0.20319zm-4.39e-4 1.1924 41.165 80.285-41.167 61.366-41.421-61.109zm5.7881 34.309c-4.8067 0-8.6785 4.0412-8.6785 8.9113 0 4.2043 2.8911 7.7774 6.7726 8.6796l-1.6224 21.932-18.51-2.8131c0.0025-0.0721 0.02156-0.1397 0.02156-0.21234 0-3.6817-2.9962-6.7151-6.6708-6.7151-1.2419 0-2.3924 0.36859-3.3898 0.96945l-8.2249-9.7644c1.1198-1.2039 1.8195-2.8072 1.8195-4.5704 0-3.6816-2.9958-6.7151-6.6704-6.7151s-6.6708 3.0334-6.6708 6.7151 2.9962 6.7151 6.6708 6.7151c1.2419 0 2.3924-0.36889 3.3898-0.96981l8.2249 9.7647c-1.1198 1.2039-1.8195 2.8072-1.8195 4.5704 0 1.9153 0.82178 3.643 2.1172 4.8717l-7.5853 12.113c-1.4035-0.63149-2.9527-0.99031-4.5855-0.99031-3.7604 0-7.0893 1.8724-9.1489 4.7268l-3.806-2.8955c0.47342-0.92095 0.76662-1.9481 0.76662-3.0486 0-3.6817-2.9962-6.7151-6.6708-6.7151s-6.6704 3.0334-6.6704 6.7151c0 3.6816 2.9957 6.7154 6.6704 6.7154 1.9058 0 3.6173-0.82609 4.8348-2.1252l3.9019 2.9684c-0.75867 1.5301-1.1964 3.2472-1.1964 5.0658 0 3.6826 1.759 6.9642 4.4687 9.0538l-3.4447 4.9219c-1.3308-0.82121-2.8772-1.3216-4.5466-1.3216-4.8394 0-8.7814 3.9884-8.7814 8.8454s3.942 8.8454 8.7814 8.8454 8.781-3.9885 8.781-8.8454c0-2.5071-1.0625-4.769-2.7443-6.3841l3.5256-5.0369c1.5778 0.84447 3.373 1.3286 5.2792 1.3286 1.8121 0 3.5202-0.44395 5.0405-1.2122l9.5436 14.353c-1.2446 1.2233-2.0242 2.922-2.0242 4.7941 0 3.6816 2.9958 6.7151 6.6704 6.7151s6.6704-3.0334 6.6704-6.7151-2.9958-6.7151-6.6704-6.7151c-1.1345 0-2.1878 0.31604-3.1247 0.82411l-9.4668-14.238c2.8298-2.0793 4.6803-5.4358 4.6803-9.2134 0-3.9591-2.0273-7.462-5.0903-9.5096l7.4777-11.941c0.91067 0.47237 1.9264 0.76516 3.0174 0.76516 2.9552 0 5.4421-1.9747 6.3142-4.658l18.706 2.8428-1.8217 24.63c-2.5631 0.0928-4.9161 1.021-6.7997 2.529l-1.7258-1.7632c0.92193-1.1532 1.4977-2.5958 1.4977-4.1772 0-3.6817-2.9962-6.7151-6.6708-6.7151s-6.6704 3.0334-6.6704 6.7151c0 3.6816 2.9957 6.7154 6.6704 6.7154 1.4239 0 2.7387-0.46413 3.824-1.2363l1.7123 1.7492c-1.8953 2.0899-3.0628 4.8588-3.0628 7.8961 0 6.1541 4.7562 11.233 10.766 11.69l0.54952 16.582c-4.3855 0.50835-7.8189 4.244-7.8189 8.7777 0 4.876 3.9568 8.8802 8.8151 8.8802s8.8154-4.0042 8.8154-8.8802c0-4.5741-3.495-8.3359-7.9368-8.7898l-0.5488-16.575c4.7536-0.41103 8.7012-3.716 10.099-8.1462l36.028 6.8831c-0.0146 0.20744-0.0623 0.40558-0.0623 0.61652 0 4.876 3.9571 8.8802 8.8154 8.8802s8.8154-4.0042 8.8154-8.8802-3.9572-8.8798-8.8154-8.8798c-4.0023 0-7.3546 2.7337-8.4251 6.4174l-35.948-6.8678c0.0818-0.55905 0.13839-1.1261 0.13839-1.7071 0-1.3617-0.2446-2.6658-0.67217-3.8847l18.095-7.2591c2.2191 3.7275 6.2566 6.2432 10.874 6.2432 6.9954 0 12.686-5.7545 12.686-12.787 0-5.2008-3.1165-9.6948-7.567-11.687l2.3617-6.3885c0.35453 0.0593 0.71222 0.11093 1.0829 0.11093 3.6747 0 6.6704-3.0338 6.6704-6.7154 0-3.6816-2.9958-6.7151-6.6704-6.7151s-6.6704 3.0334-6.6704 6.7151c0 2.6485 1.5623 4.9419 3.8005 6.0316l-2.3401 6.331c-1.0703-0.29726-2.1914-0.46933-3.3539-0.46933-3.2954 0-6.2914 1.2876-8.5493 3.3736l-1.5296-1.2111c1.2249-1.5266 1.9901-3.4396 1.9901-5.5406 0-4.876-3.9571-8.8802-8.8154-8.8802-4.0315 0-7.4059 2.7729-8.45 6.4976l-11.186-1.7002 1.6262-21.987c0.01483 9e-5 0.0284 4e-3 0.04323 4e-3 4.8068 0 8.6789-4.0415 8.6789-8.9117s-3.8722-8.9113-8.6789-8.9113zm-1.3711 2.0176c-0.8855 0.18777-1.7085 0.55367-2.4324 1.0599 0.72391-0.50607 1.5468-0.87221 2.4324-1.0599zm2.7421 0c0.88562 0.18766 1.7084 0.5538 2.4324 1.0599-0.72392-0.5062-1.5469-0.8721-2.4324-1.0599zm-5.1749 1.0599c-0.3619 0.2531-0.69897 0.54153-1.0068 0.85998-0.61567 0.63697-1.1141 1.395-1.4586 2.2365 0.34436-0.8416 0.84294-1.5996 1.4586-2.2365 0.30791-0.31856 0.64472-0.60683 1.0068-0.85998zm7.6076 0c1.086 0.75926 1.9491 1.834 2.4657 3.0965-0.51668-1.2622-1.3799-2.3372-2.4657-3.0965zm-3.8038 0.67144c2.7118 0 4.93 2.2501 4.93 5.1624s-2.2183 5.1628-4.93 5.1628-4.9296-2.2504-4.9296-5.1628 2.2178-5.1624 4.9296-5.1624zm-46.119 7.9262c-1.8708 0.38807-3.3486 1.8803-3.7328 3.7679 0.38389-1.8888 1.8609-3.3804 3.7328-3.7679zm1.9316 0c1.5601 0.32301 2.8455 1.4131 3.4527 2.8607-0.60761-1.4468-1.8937-2.5373-3.4527-2.8607zm38.545 1.169c0.90304 1.3822 2.2799 2.3884 3.8774 2.8347v3e-4c-1.5979-0.44614-2.9743-1.4527-3.8774-2.8351zm11.284 0c-0.97846 1.4977-2.4995 2.586-4.271 2.9614 1.7711-0.37558 3.2925-1.4639 4.271-2.9614zm-50.795 0.607c1.6314 0 2.9215 1.2898 2.9215 2.9662s-1.2902 2.9662-2.9215 2.9662-2.9219-1.2898-2.9219-2.9662c0-1.6763 1.2905-2.9662 2.9219-2.9662zm-4.6986 3.9404c0.3842 1.8876 1.862 3.3799 3.7328 3.7679-1.8719-0.38758-3.3489-1.8791-3.7328-3.7679zm9.1171 0.9072c-0.19266 0.45925-0.46933 0.86876-0.78566 1.2429l-4.38e-4 -4.4e-4c0.31632-0.3741 0.59365-0.78324 0.7864-1.2422zm-2.2519 2.4119 4.38e-4 4.4e-4c-0.3781 0.19534-0.77392 0.35957-1.2016 0.44811 0.42727-0.0886 0.82292-0.25347 1.2008-0.44884zm85.455 9.9203c-1.559 0.32342-2.8451 1.4139-3.4527 2.8607 0.60724-1.4476 1.8926-2.5377 3.4527-2.8607zm1.9316 0c1.5601 0.32301 2.8455 1.4131 3.4527 2.8607-0.60761-1.4468-1.8937-2.5373-3.4527-2.8607zm-74.054 1.1247c-0.42726 0.0886-0.82291 0.25347-1.2008 0.44884l-2.95e-4 -4.4e-4c0.37802-0.19525 0.77365-0.35959 1.2012-0.44811zm1.9316 0c1.8719 0.38758 3.3489 1.8791 3.7328 3.768-0.3842-1.8876-1.862-3.3799-3.7328-3.768zm71.156 0.6513c1.6314 0 2.9215 1.2898 2.9215 2.9662 0 1.6764-1.2903 2.9665-2.9215 2.9665s-2.9215-1.2901-2.9215-2.9665c0-1.6764 1.2902-2.9662 2.9215-2.9662zm-75.755 0.96652 4.4e-4 4.4e-4c-0.31632 0.37409-0.59366 0.78323-0.78639 1.2422 0.19265-0.45924 0.46932-0.86875 0.78566-1.2429zm3.6329 0.15816c1.6313 0 2.9219 1.2899 2.9219 2.9662 0 1.6763-1.2906 2.9665-2.9219 2.9665-1.6312 0-2.9215-1.2901-2.9215-2.9665 0-1.6764 1.2902-2.9662 2.9215-2.9662zm67.424 2.8157c0.29242 1.437 1.2303 2.6255 2.4811 3.2916v4.4e-4c-1.2512-0.66571-2.1885-1.8544-2.4807-3.2924zm9.3964 0c-0.38384 1.8889-1.861 3.3807-3.7328 3.7683 1.871-0.38803 3.3486-1.8805 3.7328-3.7683zm-81.519 1.1247c0.17627 0.86626 0.59507 1.6382 1.1642 2.2695l-2.95e-4 6.3e-4c-0.56921-0.63123-0.98768-1.4036-1.1639-2.2706zm47.473 0.6081c-0.3692 0.25193-0.71324 0.53893-1.0273 0.85594 0.31415-0.31711 0.65792-0.60396 1.0273-0.85594zm7.7592 0c0.36936 0.25198 0.71314 0.53882 1.0273 0.85594-0.31405-0.31701-0.65808-0.604-1.0273-0.85594zm-46.082 0.19221h3.02e-4c-0.58864 1.499-1.8894 2.6373-3.4864 2.968 1.5958-0.33107 2.897-1.47 3.486-2.968zm42.202 0.48472c2.8141 0 5.0665 2.2617 5.0665 5.1313 0 2.8696-2.2524 5.131-5.0665 5.131-2.8142 0-5.0665-2.2613-5.0665-5.131 0-2.8697 2.2524-5.1313 5.0665-5.1313zm-48.682 2.111c0.33706 0.16024 0.68796 0.29475 1.0621 0.37234-0.37424-0.0775-0.72532-0.21186-1.0624-0.37197zm42.286 0.29509c-0.0836 0.19938-0.12722 0.41738-0.19257 0.62567h-3.8e-4c0.0653-0.20834 0.10931-0.42624 0.19294-0.62567zm12.79 0c0.35135 0.83791 0.54586 1.7589 0.54586 2.7253 0 0.9662-0.1946 1.8871-0.54586 2.7249-0.17573 0.41913-0.3907 0.81738-0.64032 1.1902 0.2496-0.37271 0.46458-0.77124 0.64032-1.1902 0.35149-0.83791 0.54586-1.7587 0.54586-2.7249s-0.19437-1.8873-0.54586-2.7253zm-26.17 0.51767 11.014 1.6735c-0.011 0.18013-0.0539 0.35139-0.0539 0.53414 0 4.876 3.9572 8.8798 8.8154 8.8798 2.088 0 3.9838-0.7702 5.4963-2.0008l1.5658 1.24c-1.7755 2.2017-2.8443 5.0029-2.8443 8.0459 0 1.7209 0.3449 3.3633 0.96212 4.8655l-17.995 7.2188c-1.7563-3.2356-4.9834-5.5485-8.7671-6.0286zm12.834 2.2076c0 0.96621 0.19436 1.887 0.54585 2.7249 0.17575 0.41897 0.39071 0.81749 0.64031 1.1902-0.24961-0.37282-0.46459-0.77108-0.64031-1.1902-0.35125-0.83778-0.54585-1.7587-0.54585-2.7249zm-76.262 2.644c-1.559 0.3234-2.8451 1.4139-3.4527 2.8607 0.60726-1.4476 1.8926-2.5377 3.4527-2.8607zm1.9316 0c1.8719 0.38758 3.3489 1.8791 3.7328 3.7679-0.3842-1.8876-1.862-3.3799-3.7328-3.7679zm75.517 1.2715c0.74874 1.118 1.8089 2.0067 3.054 2.5389-1.2454-0.53211-2.3053-1.4208-3.054-2.5389zm11.51 0c-0.11366 0.16972-0.2583 0.31352-0.38587 0.47228l-3e-4 -3.2e-4c0.12756-0.15868 0.27259-0.30221 0.38624-0.47191zm-87.992 0.50449c1.6313 0 2.9219 1.2899 2.9219 2.9662s-1.2906 2.9665-2.9219 2.9665-2.9215-1.2901-2.9215-2.9665 1.2902-2.9662 2.9215-2.9662zm86.245 1.2806 3e-4 3.1e-4c-0.4083 0.2932-0.84025 0.55387-1.3074 0.75344 0.46697-0.19959 0.89876-0.46063 1.307-0.7538zm6.852 1.4161c-0.35997 0.24552-0.69811 0.51983-1.0254 0.80617l-3.9e-4 -3.2e-4c0.32745-0.28643 0.6657-0.56018 1.0258-0.80579zm12.089 0c0.86281 0.58843 1.6369 1.2992 2.298 2.1077-0.66102-0.80834-1.4354-1.5193-2.298-2.1077zm-6.0444 0.0102c4.9508 0 8.9373 4.0122 8.9373 9.038 0 5.0258-3.9866 9.0384-8.9373 9.0384s-8.9373-4.0126-8.9373-9.0384c0-5.0258 3.9866-9.038 8.9373-9.038zm-103.84 1.2334c0.38415 1.8878 1.8618 3.3803 3.7328 3.7683-1.8718-0.38763-3.349-1.8794-3.7328-3.7683zm9.3968 0c-0.06598 0.32465-0.16658 0.63635-0.29362 0.93394h-2.99e-4c0.12727-0.29776 0.22788-0.60917 0.29398-0.93394zm-1.3531 2.4833 9.42e-4 3.8e-4c-0.64535 0.6363-1.4638 1.0948-2.3804 1.2847 0.91591-0.19002 1.7344-0.64888 2.3797-1.285zm18.322 0.063c0.26448 0.0831 0.52218 0.1813 0.77614 0.28667l-2.99e-4 3e-4c-0.25389-0.10535-0.51137-0.20395-0.77578-0.28703zm67.968 0.0579c-0.33291 0.61838-0.60833 1.2729-0.81898 1.9561 0.21065-0.68331 0.48603-1.3376 0.81898-1.9561zm19.013 0c0.33294 0.61848 0.60831 1.2728 0.81896 1.9561-0.21063-0.68318-0.48605-1.3377-0.81896-1.9561zm-89.789 1.3879c4.1959 0 7.5703 3.3941 7.5703 7.6582 0 4.264-3.3744 7.6582-7.5703 7.6582s-7.5699-3.3941-7.5699-7.6582 3.374-7.6582 7.5699-7.6582zm6.6777 0.91855c0.8547 0.8627 1.5465 1.8899 2.0246 3.0303-0.47811-1.1403-1.1698-2.1675-2.0246-3.0303zm18.581 0.71539c-1.559 0.3234-2.8451 1.4139-3.4527 2.8607 0.60724-1.4476 1.8926-2.5377 3.4527-2.8607zm1.9316 0c1.8719 0.38756 3.3489 1.8791 3.7328 3.7679-0.38421-1.8876-1.862-3.3799-3.7328-3.7679zm-0.96579 1.776c1.6313 0 2.9219 1.2899 2.9219 2.9662s-1.2906 2.9665-2.9219 2.9665c-1.6312 0-2.9215-1.2901-2.9215-2.9665s1.2902-2.9662 2.9215-2.9662zm-4.6982 3.9404c0.38416 1.8878 1.8618 3.3803 3.7328 3.7683-1.8718-0.38762-3.349-1.8794-3.7328-3.7683zm9.3968 0c-0.14016 0.6896-0.43635 1.3174-0.83398 1.8668l-3.01e-4 -4.3e-4c0.39769-0.54929 0.69409-1.1768 0.83434-1.866zm-2.2083 3.1423 2.95e-4 3.9e-4c-0.46505 0.28768-0.97344 0.51151-1.5248 0.62568 0.55102-0.11431 1.0595-0.33825 1.5244-0.62603zm43.226 0.26067c0.22037 0.26951 0.45355 0.52814 0.69816 0.77503-0.24467-0.24694-0.47775-0.50546-0.69816-0.77503zm16.685 0c-0.22042 0.26957-0.45349 0.52809-0.69815 0.77503 0.24459-0.24689 0.47777-0.50552 0.69815-0.77503zm-79.922 0.61432c-0.47808 1.1404-1.1698 2.1676-2.0246 3.0302 0.85472-0.86271 1.5464-1.8899 2.0246-3.0302zm28.734 0.71647c-1.0969 0.34456-2.0872 0.90806-2.9808 1.5944 0.89358-0.68631 1.8839-1.2498 2.9808-1.5944zm5.8086 0c1.5292 0.48031 2.8976 1.3303 4.0026 2.4456 0.4421 0.4462 0.84189 0.93465 1.1931 1.4593-0.35119-0.52457-0.75109-1.0131-1.1931-1.4593-1.1051-1.1154-2.4734-1.9652-4.0026-2.4456zm30.16 0.14864c0.53395 0.44483 1.111 0.83912 1.7236 1.1752-0.61277-0.33609-1.1896-0.73031-1.7236-1.1752zm13.753 0c-0.53401 0.44488-1.1108 0.8391-1.7236 1.1752 0.61266-0.33607 1.1897-0.73036 1.7236-1.1752zm-46.818 1.2825c4.3751 0 7.8947 3.5406 7.8947 7.9855 0 4.4448-3.5196 7.9858-7.8947 7.9858-4.375 0-7.8947-3.541-7.8947-7.9858s3.5196-7.9855 7.8947-7.9855zm-57.87 9.22c-1.239 0.52959-2.2939 1.414-3.039 2.5265 0.74505-1.1127 1.7997-1.997 3.039-2.5265zm2.6876 1.326c2.7953 0 5.0321 2.2459 5.0321 5.0965 0 2.8507-2.2368 5.0965-5.0321 5.0965s-5.0325-2.246-5.0325-5.0965 2.2372-5.0965 5.0325-5.0965zm4.9556 0.25736c0.28085 0.29296 0.54374 0.60419 0.77065 0.94308-0.2269-0.33882-0.49021-0.64979-0.77101-0.94272zm0.77065 0.94346c0.49656 0.7417 0.85564 1.5847 1.0397 2.4917-0.18418-0.90687-0.54308-1.75-1.0397-2.4917zm102.63 0.82153c-1.2452 0.5322-2.3053 1.4209-3.054 2.5389 0.74871-1.1182 1.8086-2.0068 3.054-2.5389zm5.4015 0c1.2454 0.53211 2.3053 1.4208 3.054 2.5389-0.74874-1.118-1.8089-2.0067-3.054-2.5389zm-66.68 0.92918c0.70239 1.0491 1.5995 1.9544 2.6389 2.6634 1.2994 0.8863 2.8213 1.4655 4.4628 1.6339-1.6416-0.1684-3.1635-0.74768-4.4628-1.6339-1.0395-0.70898-1.9365-1.6142-2.6389-2.6634zm16.2 0c-0.70238 1.0492-1.5994 1.9544-2.6389 2.6634-1.2994 0.88625-2.8212 1.4655-4.4628 1.6339 1.6415-0.16842 3.1635-0.74763 4.4628-1.6339 1.0394-0.70897 1.9365-1.6143 2.6389-2.6634zm47.779 0.39428c2.8142 0 5.0665 2.2613 5.0665 5.131 2e-5 2.8696-2.2524 5.1313-5.0665 5.1313s-5.0665-2.2617-5.0665-5.1313c0-2.8697 2.2524-5.131 5.0665-5.131zm-5.7548 1.2158c-0.2496 0.37272-0.46457 0.77124-0.64032 1.1902 0.17573-0.4191 0.39071-0.81737 0.64032-1.1902zm11.51 0c0.24963 0.37282 0.4646 0.77109 0.64032 1.1902 0.35126 0.83781 0.54586 1.7587 0.54586 2.7249 3e-5 0.96633-0.1945 1.8874-0.54585 2.7253 0.35149-0.83794 0.54588-1.7591 0.54588-2.7253s-0.19438-1.887-0.54588-2.7249c-0.17574-0.41895-0.39071-0.81747-0.64032-1.1902zm-110.05 1.9389c-0.1841 0.90705-0.54317 1.75-1.0397 2.4917 0.49666-0.74171 0.85555-1.5848 1.0397-2.4917zm26.34 1.6969c-0.39805 0.0826-0.76896 0.23102-1.1247 0.40674l-2.96e-4 -2.9e-4c0.35587-0.17567 0.72667-0.3239 1.125-0.40638zm1.9316 0c1.5601 0.32302 2.8455 1.4131 3.4527 2.8607-0.6076-1.4468-1.8937-2.5373-3.4527-2.8607zm69.083 0.27934c0 0.96621 0.19439 1.8873 0.54585 2.7253-0.35134-0.83791-0.54585-1.7589-0.54585-2.7253zm-109.85 0.51583c0.74508 1.1125 1.8 1.9969 3.039 2.5265-1.2393-0.5295-2.294-1.4138-3.039-2.5265zm11.453 0c-0.74498 1.1127-1.7998 1.997-3.039 2.5265 1.239-0.5296 2.294-1.414 3.039-2.5265zm24.766 0.75746 3.02e-4 4.4e-4c-0.34108 0.38954-0.6357 0.82214-0.83948 1.3074 0.2037-0.48561 0.49794-0.91845 0.83911-1.3081zm3.5794 0.22334c1.6314 0 2.9215 1.2898 2.9215 2.9662s-1.2902 2.9662-2.9215 2.9662-2.9215-1.2898-2.9215-2.9662 1.2902-2.9662 2.9215-2.9662zm72.083 3.4556c0.31405 0.31702 0.65809 0.60402 1.0273 0.85595-0.36936-0.25198-0.71313-0.53881-1.0273-0.85595zm9.8138 0c-0.31415 0.31714-0.65792 0.60397-1.0273 0.85595 0.36919-0.25193 0.71322-0.53893 1.0273-0.85595zm-86.315 1.3919c0.6076 1.4468 1.8937 2.5373 3.4527 2.8607-1.5601-0.323-2.8455-1.4131-3.4527-2.8607zm8.837 0c-0.60725 1.4476-1.8926 2.5377-3.4527 2.8607 1.559-0.32342 2.8451-1.4139 3.4527-2.8607zm14.66 13.213c-1.6603 0.70965-2.9911 2.0537-3.694 3.7295-0.35145 0.83792-0.54587 1.7587-0.54587 2.7249 0-0.96621 0.19465-1.8871 0.54587-2.7249 0.70271-1.6762 2.0333-3.0199 3.694-3.7295zm5.4015 0c1.2454 0.5321 2.3053 1.4208 3.054 2.5389-0.74874-1.118-1.8089-2.0067-3.054-2.5389zm-2.7008 1.3235c2.8141 0 5.0665 2.2613 5.0665 5.1309s-2.2524 5.1313-5.0665 5.1313-5.0661-2.2616-5.0661-5.1313 2.252-5.1309 5.0661-5.1309zm5.7548 1.2158c0.24962 0.37284 0.4646 0.77108 0.64031 1.1902 0.35126 0.8378 0.54587 1.7587 0.54587 2.7249 0 0.96632-0.19452 1.8874-0.54587 2.7253 0.35148-0.83795 0.54587-1.7591 0.54587-2.7253s-0.19438-1.887-0.54587-2.7249c-0.17573-0.41895-0.39071-0.81746-0.64031-1.1902zm-12.15 6.6408c0.52715 1.2567 1.4075 2.3267 2.5151 3.0826-1.1078-0.75581-1.988-1.8256-2.5151-3.0826zm11.302 2.2266c-0.31415 0.31714-0.65793 0.60398-1.0273 0.85596 0.3692-0.25194 0.71324-0.53893 1.0273-0.85596zm90.675-127.46v64.579q0 33.18 10.466 46.764 10.689 13.361 29.172 13.361t28.949-13.361q10.689-13.584 10.689-46.764v-64.579h6.6806v64.579q0 66.806-46.319 66.806t-46.319-66.806v-64.579zm209.55 0v6.6806h-46.764v122.48h-6.6806v-122.48h-46.764v-6.6806zm90.634 6.9033q-7.5714-2.4496-18.706-2.4496t-18.706 2.4496q-7.5714 2.2269-14.029 8.6848-6.2352 6.2352-9.3528 18.483-3.1176 12.025-3.1176 30.508t3.1176 30.731q3.1176 12.025 9.3528 18.483 6.4579 6.2352 14.029 8.6848 7.5714 2.2269 18.706 2.2269t18.706-2.2269q7.5714-2.4496 13.807-8.6848 6.4579-6.4579 9.5755-18.483 3.1176-12.248 3.1176-30.731t-3.1176-30.508q-3.1176-12.248-9.5755-18.483-6.2352-6.4579-13.807-8.6848zm21.155 108.67q-12.025 15.811-39.861 15.811t-39.861-15.811-12.025-50.995q0-35.185 12.025-50.995 12.025-15.811 39.861-15.811t39.861 15.811 12.025 50.995q0 35.185-12.025 50.995zm69.701 6.9033h85.957v-113.12l-50.105 50.105-50.105-50.105v119.81l-6.6806-0.22269v-128.94h6.6806l50.105 50.105 50.105-50.105h6.6806v129.16l-92.638-0.22269zm146.75 0h72.596l-45.651-107.56-48.546 114.24h-7.1259l55.672-131.39 55.672 131.39h-82.617zm191.51-122.48v6.6806h-46.764v122.48h-6.6806v-122.48h-46.764v-6.6806zm37.411 122.48h72.596l-45.651-107.56-48.546 114.24h-7.126l55.672-131.39 55.672 131.39h-82.617zm205.54-21.823q-6.0126 14.697-16.924 22.714-10.912 8.0167-32.735 8.0167-27.39 0-39.638-16.702-12.248-16.924-12.248-52.554v-21.823q0-35.63 12.248-52.331 12.248-16.924 39.638-16.924 21.823 0 32.735 8.0167t16.924 22.714l-6.0126 2.8949q-5.1217-12.916-14.475-19.819-9.3528-7.126-29.172-7.126-10.912 0-18.706 2.8949-7.7941 2.6722-14.029 9.3528t-9.3528 19.374q-3.1176 12.47-3.1176 30.953v21.823q0 18.483 3.1176 31.176 3.1176 12.47 9.3528 19.151t14.029 9.5755q7.794 2.6722 18.706 2.6722 19.819 0 29.172-6.9033 9.3529-7.126 14.475-20.042zm40.752 28.504h-6.6806v-155.88h6.6806z" style="-inkscape-stroke:none;color:#000000;fill:url(#linearGradient119);stroke-linecap:square;stroke-linejoin:round;stroke-width:.18744"/></svg>
