<svg width="1200" height="1200" version="1.1" viewBox="0 0 1200 1200" xml:space="preserve" xmlns="http://www.w3.org/2000/svg"><path d="m408.24 1121.3c-101.95-42.344-196.16-81.567-209.35-87.16l-23.982-10.17-174.91-422.73 87.393-209.6c48.066-115.28 88.696-210.9 90.288-212.49 2.2144-2.2133 384.6-163.1 416.22-175.12l6.5413-2.487 206.84 86.159c113.76 47.388 209.12 87.592 211.91 89.343l5.0759 3.1836 175.74 421.16-175.16 421.66-3.6006 2.8365c-1.9804 1.5601-96.405 41.029-209.83 87.708l-206.23 84.871-11.567-0.164zm164.22 34.812c0-4.3667-112.5-274.82-114.97-276.41l-2.3538-1.5091-23.255 4.3988-34.834-5.1794-36.708-17.934-146.27 146.14 0.66869 3.4743 0.6687 3.4744 175.42 72.765c96.479 40.021 176.82 72.888 178.53 73.037l3.1102 0.2714zm235.02-70.563c97.103-40.177 176.88-74.042 177.28-75.255l0.7349-2.2047-183.84-183.79-6.9868 3.2726c-3.8427 1.8-13.136 3.9687-20.651 4.8194l-13.665 1.5469-66.455 159.24c-64.557 154.69-68.787 165.49-64.836 165.44 1.0264 0 81.314-32.894 178.42-73.072zm-197.52 40.593c42.358-101 124.23-301.23 124.23-303.83v-3.3546l-4.9618-3.0987-4.9618-3.0988-15.469-27.41-172.09 1.308-2.9116 11.416c-1.6014 6.2789-6.6604 18.45-11.242 27.046l-8.3308 15.63-14.423 12.696c-18.069 15.905-23.613-0.746 94.023 282.4l3.4507 8.3058 5.9743-1.9916zm-352.18-202.01c35.604-35.923 68.514-69.459 73.133-74.525l8.3982-9.2102-8.8259-16.916-8.8259-16.916-6.0342-29.562 1.6562-16.808 1.6562-16.808-6.9798-3.5139c-18.539-9.3332-267.26-111.77-268.47-110.57-0.75921 0.75921 30.731 79.582 69.978 175.16 39.247 95.58 72.332 176.3 73.522 179.38 3.3151 8.5777 2.012 9.6769 70.789-59.716zm823.9-111.46c38.836-95.046 71.27-175.33 72.076-178.41l1.4649-5.5984h-1.6725c-0.9198 0-73.536 29.772-161.37 66.159l-159.7 66.159-1.837 2.8872c-1.0104 1.588-1.8542 6.5101-1.8751 10.938-0.02 4.428-1.4377 13.284-3.1484 19.68l-3.1102 11.629 184.12 180.81 2.2167-0.723c1.2191-0.3976 33.992-78.488 72.828-173.53zm-368.65-62.941c1.9114-4.5747 7.5069-13.143 12.434-19.041l8.9591-10.723-1.078-2.7305c-17.329-43.891-90.194-217.57-92.179-219.71l-2.7786-2.9998-19.905 4.6368h-37.322l-19.905-4.6368-2.7427 2.9998c-3.2905 3.5989-73.146 172.55-73.146 176.91v3.0414l27.494 23.737 7.3811 12.866c6.2918 10.967 9.1278 18.099 16.247 40.858l0.9729 3.1102h172.09zm271.91-80.018 154.96-64.267-0.8349-2.5048-0.8349-2.5048-83.211-21.936c-45.766-12.065-85.079-21.949-87.362-21.965l-4.1513-0.0281-5.2747 8.5346c-2.901 4.694-9.3794 12.139-14.396 16.544l-9.1217 8.009-27.454 12.569-40.951 0.37521-2.3904 2.4882c-2.5625 2.6673-48.856 99.834-53.118 111.49l-2.5559 6.9902 5.87 6.2483 5.8699 6.2483 4.9997-1.0134c2.7498-0.5574 74.731-29.933 159.96-65.28zm-637.68 27.308 18.487-18.729-83.387-172.79-26.884-1.0459-7.597-3.0217c-4.1784-1.6619-10.569-5.0655-14.202-7.5636-9.4851-6.5229-4.9062-8.8207-88.351 44.338-42.2 26.884-81.056 51.612-86.345 54.951l-9.6165 6.072 2.7548 2.7548c3.0139 3.0139 268.28 113.14 273.46 113.53l3.1907 0.23861zm436.11 10.642c3.6769-4.5352 52.827-113.63 52.827-117.25 0-1.6877-4.055-6.9271-9.0111-11.643l-9.011-8.5746-14.052-29.301-1.5614-12.719-1.5613-12.719 2.3486-10.325 2.3486-10.325-1.5454-2.4891c-0.85-1.369-21.516-13.394-45.925-26.721l-44.38-24.232-14.092 14.814c-7.7506 8.1476-18.452 18.186-23.782 22.308l-9.6896 7.4936 37.926 91.872c20.859 50.529 41.868 101.11 46.685 112.4l8.7595 20.527h21.194zm-344.51-45.316 21.918-0.0931 71.709-171.68 0.02-9.9527-20.323-12.441-24.861-27.107-15.467-31.365-5.0643 0.21797c-2.7854 0.11993-34.119 7.6777-69.63 16.795l-64.566 16.577-2.8346 11.197c-3.0701 12.127-8.257 22.527-16.159 32.401l-5.0219 6.2749 83.478 173.11 12.441-1.9186c6.8424-1.0552 22.304-1.9604 34.359-2.0116zm717.46-92.777c-0.8077-3.7634-32.166-81.861-69.685-173.55l-68.216-166.71h-5.957l-39.615 104.08c-21.788 57.246-39.615 105.77-39.615 107.84v3.7523l22.043 21.423 6.509 12.845 6.5089 12.845 1.926 15.998c1.0593 8.7989 2.6938 16.766 3.6322 17.704 1.508 1.508 176.26 50.003 181.76 50.441l2.1771 0.17317zm-1028-51.599c42.077-26.669 77.902-49.65 79.613-51.07l3.1101-2.5812-1.2643-15.75-1.2643-15.75 5.929-17.965 22.064-24.541-0.0174-3.3667c-0.0249-5.1558-47.251-152.36-49.659-154.79l-2.1149-2.1332-2.5702 4.8025c-4.446 8.3074-134.74 326.65-134.74 329.2 0 4.8613 5.6669 1.6356 80.913-46.057zm704.71-63.491 11.321-9.9653 32.141-9.9273h28.2l39.509-106.37c21.73-58.503 40.019-107.77 40.644-109.48l1.1349-3.1102h-2.9121c-4.5392 0-244.77 99.905-248.57 103.37l-3.3741 3.0812 5.5042 25.665v32.633l-4.1572 17.224-4.1572 17.224 2.2911 2.1824c4.3159 4.1113 84.396 47.371 87.751 47.403 1.8427 0.0174 8.445-4.4521 14.672-9.933zm-445.35-53.555c31.128-7.5662 60.896-14.915 66.153-16.33l9.5567-2.573-1.5052-14.15-1.5053-14.15 3.5318-16.173 3.5318-16.173-1.6457-1.7568c-2.2536-2.4058-248.13-103.99-251.7-103.99h-2.8559l1.5374 6.8425c0.84558 3.7634 12.479 40.993 25.851 82.732l24.314 75.889 9.8028 2.0865c5.3916 1.1476 15.587 4.7281 22.656 7.9567l12.853 5.8702 7.0522 8.8384 7.0522 8.8384 4.3642 8e-5c2.4003 5e-5 29.832-6.1905 60.96-13.757zm100.02-116.68c2.8966-4.6867 11.949-14.709 20.118-22.271l14.851-13.75 31.772-15.164 29.169-6.6235 0.65197-93.732 0.65195-93.732h-1.9517c-1.0735 0-81.424 32.75-178.56 72.779l-176.6 72.779 0.29067 2.4882 0.29066 2.4882 122.87 51.456c67.58 28.301 124.74 51.534 127.02 51.629l4.1514 0.17317zm360.9-43.331 123.16-51.514-0.3265-2.4344-0.3266-2.4344-176.24-72.779c-96.931-40.028-177.13-72.779-178.23-72.779h-1.9903l0.65197 93.732 0.65195 93.732 14.369 3.2628c18.875 4.2861 38.673 13.819 54.217 26.106l12.577 9.9414 20.852 27 3.7322-0.15999c2.0527-0.0881 59.156-23.341 126.9-51.674z" fill="#000080" stroke-width="2.4882"/></svg>
