<svg width="1200" height="400" version="1.1" viewBox="0 0 1200 400" xml:space="preserve" xmlns="http://www.w3.org/2000/svg"><g transform="translate(7.357 -3.3661)" fill="#000080"><path d="m151.35 334.03c-25.554-10.613-49.166-20.444-52.472-21.846l-6.0108-2.5492-43.84-105.96 21.904-52.535c12.047-28.894 22.231-52.861 22.63-53.26 0.55501-0.55476 96.399-40.88 104.32-43.893l1.6395-0.62334 51.842 21.595c28.513 11.877 52.415 21.954 53.114 22.393l1.2722 0.79795 44.048 105.56-43.902 105.69-0.90247 0.71095c-0.49637 0.39104-24.163 10.284-52.593 21.983l-51.691 21.272-2.8993-0.0412zm41.161 8.7254c0-1.0945-28.196-68.882-28.817-69.28l-0.58996-0.37824-5.8287 1.1025-8.731-1.2982-4.6003-2.2475-4.6003-2.2475-36.661 36.629 0.16761 0.87082 0.1676 0.87084 43.967 18.238c24.182 10.031 44.318 18.269 44.746 18.306l0.77956 0.068zm58.907-17.686c24.338-10.07 44.334-18.558 44.435-18.862l0.1842-0.5526-46.079-46.066-1.7512 0.82026c-0.96315 0.45116-3.2924 0.99474-5.1762 1.208l-3.425 0.38773-16.657 39.913c-16.181 38.773-17.241 41.478-16.251 41.467 0.25725 0 20.381-8.2448 44.719-18.315zm-49.507 10.174c10.617-25.314 31.137-75.501 31.137-76.152v-0.84081l-1.2436-0.77667-1.2437-0.7767-3.8772-6.8701-43.134 0.32785-0.72978 2.8614c-0.40138 1.5738-1.6694 4.6243-2.8178 6.779l-2.0881 3.9175-3.6151 3.1822c-4.5289 3.9865-5.9184-0.18698 23.566 70.781l0.8649 2.0818 1.4974-0.49917zm-88.272-50.632c8.9239-9.0039 17.173-17.409 18.33-18.679l2.105-2.3085-2.2122-4.2398-2.2122-4.2398-0.75621-3.7048-0.75622-3.7047 0.41514-4.2129 0.41512-4.2129-1.7494-0.88073c-4.6467-2.3393-66.988-28.015-67.29-27.713-0.19029 0.19029 7.7025 19.947 17.54 43.903 9.8371 23.957 18.13 44.189 18.428 44.961 0.8309 2.15 0.50428 2.4255 17.743-14.967zm206.51-27.937c9.734-23.823 17.863-43.945 18.065-44.717l0.36717-1.4032h-0.41921c-0.23054 0-18.431 7.4621-40.446 16.582l-40.027 16.582-0.46043 0.72366c-0.25325 0.39802-0.46475 1.6317-0.46999 2.7416-5e-3 1.1098-0.36034 3.3295-0.78913 4.9326l-0.77955 2.9147 46.15 45.319 0.5556-0.18122c0.30556-0.0997 8.5198-19.672 18.254-43.495zm-92.4-15.776c0.47909-1.1466 1.8816-3.2942 3.1166-4.7725l2.2455-2.6877-0.2702-0.68439c-4.3434-11.001-22.607-54.533-23.104-55.07l-0.69645-0.75187-4.9892 1.1622h-9.3547l-4.9892-1.1622-0.68745 0.75187c-0.82473 0.90204-18.334 43.25-18.334 44.342v0.76231l3.4457 2.9748 3.4456 2.9748 1.85 3.2247c1.577 2.7488 2.2878 4.5364 4.0722 10.241l0.24385 0.77956h43.134zm68.151-20.056 38.839-16.108-0.20926-0.62782-0.20927-0.62783-20.856-5.4982c-11.471-3.024-21.324-5.5014-21.897-5.5053l-1.0405-7e-3 -1.3221 2.1392c-0.72712 1.1765-2.3509 3.0425-3.6084 4.1465l-2.2863 2.0074-6.8811 3.1503-10.264 0.094-0.59914 0.62364c-0.64228 0.66855-12.245 25.023-13.314 27.945l-0.64063 1.752 1.4713 1.5661 1.4713 1.5661 1.2532-0.25401c0.68922-0.13971 18.731-7.5026 40.093-16.362zm-159.83 6.8447 4.6337-4.6942-20.9-43.31-6.7384-0.26214-1.9042-0.75738c-1.0473-0.41655-2.6491-1.2696-3.5595-1.8958-2.3774-1.6349-1.2297-2.2109-22.145 11.113-10.577 6.7382-20.316 12.936-21.642 13.773l-2.4103 1.5219 0.69048 0.69049c0.75541 0.75542 67.244 28.358 68.542 28.455l0.79972 0.0598zm109.31 2.6674c0.92159-1.1367 13.241-28.48 13.241-29.389 0-0.42302-1.0164-1.7362-2.2586-2.9183l-2.2586-2.1492-3.522-7.3441-0.39136-3.1881-0.39132-3.188 0.58866-2.5878 0.58866-2.5878-0.38734-0.62389c-0.21305-0.34313-5.393-3.357-11.511-6.6976l-11.124-6.0737-3.5321 3.713c-1.9426 2.0422-4.625 4.5582-5.9608 5.5913l-2.4286 1.8782 9.5059 23.027c5.2282 12.665 10.494 25.342 11.701 28.172l2.1955 5.1451h5.3121zm-86.35-11.358 5.4936-0.0233 17.973-43.031 4e-3 -2.4946-5.0937-3.1182-6.2313-6.7942-3.8766-7.8614-1.2694 0.0546c-0.69814 0.0301-8.5517 1.9244-17.452 4.2096l-16.183 4.155-0.71048 2.8064c-0.7695 3.0395-2.0696 5.6464-4.0501 8.121l-1.2587 1.5728 20.923 43.389 3.1182-0.48089c1.715-0.26448 5.5903-0.49136 8.6118-0.50418zm179.83-23.254c-0.20245-0.94327-8.0622-20.518-17.466-43.499l-17.098-41.784h-1.4931l-9.9293 26.088c-5.4611 14.348-9.9293 26.511-9.9293 27.028v0.94048l2.7625 2.6848 2.7625 2.6848 1.6314 3.2195 1.6314 3.2195 0.48275 4.0098c0.2655 2.2054 0.67518 4.2023 0.91038 4.4375 0.37797 0.37796 44.178 12.533 45.557 12.643l0.54568 0.0434zm-257.65-12.933c10.546-6.6844 19.526-12.445 19.955-12.8l0.77953-0.64696-0.31688-3.9477-0.31689-3.9478 1.4861-4.5028 5.5303-6.151-4e-3 -0.84383c-6e-3 -1.2923-11.843-38.188-12.447-38.797l-0.5301-0.53469-0.64421 1.2037c-1.1144 2.0822-33.772 81.872-33.772 82.513 0 1.2184 1.4204 0.40995 20.28-11.544zm176.63-15.914 2.8376-2.4978 8.0559-2.4882h7.0682l9.9026-26.661c5.4464-14.663 10.031-27.012 10.187-27.44l0.28445-0.77956h-0.7299c-1.1377 0-61.35 25.041-62.302 25.909l-0.84571 0.77229 0.68979 3.2164 0.6898 3.2164v8.1793l-1.042 4.317-1.042 4.317 0.57425 0.54701c1.0818 1.0305 21.153 11.873 21.994 11.881 0.46187 4e-3 2.1167-1.1159 3.6774-2.4896zm-111.63-13.423c7.802-1.8964 15.263-3.7383 16.581-4.093l2.3953-0.64492-0.75456-7.0933 1.7704-8.1074-0.41249-0.44035c-0.56485-0.60299-62.193-26.065-63.088-26.065h-0.71581l0.38535 1.715c0.21194 0.94327 3.1277 10.275 6.4795 20.736l6.0941 19.021 2.457 0.52297c1.3514 0.28764 3.9067 1.1851 5.6786 1.9943l3.2216 1.4713 1.7676 2.2153 1.7676 2.2153 1.0939 1e-5c0.60163 2e-5 7.4773-1.5516 15.279-3.448zm25.07-29.246c0.726-1.1747 2.9951-3.6866 5.0424-5.5821l3.7224-3.4462 7.9636-3.8007 7.311-1.6601 0.16342-23.493 0.1634-23.493h-0.48918c-0.26906 0-20.408 8.2087-44.754 18.242l-44.265 18.242 0.0729 0.62364 0.0729 0.62365 30.798 12.897c16.939 7.0934 31.266 12.917 31.838 12.941l1.0405 0.0434zm90.457-10.861 30.87-12.912-0.0818-0.61016-0.0819-0.61017-44.173-18.242c-24.295-10.033-44.398-18.242-44.672-18.242h-0.49886l0.32682 46.987 3.6015 0.81779c4.731 1.0743 9.6932 3.4636 13.589 6.5433l3.1523 2.4918 5.2264 6.7674 0.93546-0.0401c0.51451-0.0221 14.827-5.8503 31.806-12.952z" stroke-width=".62364"/><path d="m374.77 252.36v-3.6667h3.08q3.2267 0 4.84-0.44 1.76-0.58667 2.7867-2.2 1.0267-1.76 2.3467-5.28l32.56-93.134h5.8667l32.707 93.867q1.1733 3.2267 2.0533 4.84 1.0267 1.4667 2.64 1.9067 1.76 0.44 5.1334 0.44h2.9333v3.6667h-32.267v-3.6667h4.6933q5.1334 0 6.6-1.0267 1.6133-1.1733 1.6133-3.6667 0-1.4667-0.73333-3.96-0.73334-2.4933-1.6133-4.84-0.73333-2.4933-1.1733-3.8133l-5.4267-15.4h-41.507l-5.4267 15.253q-0.44001 1.32-1.32 3.8134-0.73333 2.3467-1.4667 4.9867-0.73333 2.4933-0.73333 3.96 0 2.4933 1.4667 3.6667 1.6133 1.0267 6.8934 1.0267h6.8934v3.6667zm28.6-40.92h38.427l-10.853-31.827q-2.0533-6.16-4.4-13.2-2.3467-7.1867-3.8133-12.027-0.58667 2.64-2.0533 6.8934-1.32 4.1067-2.9333 8.8-1.6133 4.5467-2.7867 8.0667zm106.33 42.387q-12.027 0-18.04-6.8934-5.8667-7.04-5.8667-21.56v-37.4q0-4.84-0.88001-7.04-0.73333-2.3467-3.2267-2.9333t-7.3334-0.58667h-3.08v-3.6667h20.68v51.773q0 6.8934 1.4667 12.173 1.6133 5.28 5.72 8.36 4.1067 2.9333 11.733 2.9333 7.7734 0 12.907-3.6667 5.1334-3.6667 7.7734-9.68 2.64-6.16 2.64-13.347v-34.173q0-4.9867-0.88-7.1867-0.73334-2.3467-3.2267-2.9333t-7.3334-0.58667h-2.2v-3.6667h19.8v64.387q0 4.84 0.73334 7.1867 0.88 2.2 3.08 2.7867 2.2 0.58667 6.4534 0.58667h3.8134v3.6667h-19.213l-0.73334-13.053h-0.58667q-3.2267 6.3067-9.0934 10.413-5.8667 4.1067-15.107 4.1067zm78.613 0q-9.0934 0-13.053-4.9867-3.8134-4.9867-3.8134-17.307v-53.093h-11.44v-3.52q6.16 0 9.68-3.3733 1.6133-1.6133 2.7867-5.1333 1.1733-3.6667 1.32-10.413h3.8133v17.747h18.773v4.6933h-18.773v54.267q0 9.0934 2.64 12.907 2.7867 3.6667 8.8 3.6667 4.4 0 8.6534-0.73334v4.2533q-4.5467 1.0267-9.3867 1.0267zm52.8 0q-14.227 0-22.293-9.9734-8.0667-9.9734-8.0667-30.653t7.7734-30.507q7.92-9.9734 23.173-9.9734 14.373 0 22.147 9.68t7.7734 30.8q0 20.68-7.7734 30.653-7.7734 9.9734-22.733 9.9734zm0-4.5467q13.493 0 18.773-9.68 5.4267-9.8267 5.4267-26.4 0-18.333-5.72-27.133-5.5734-8.8-17.893-8.8-13.347 0-19.067 9.0934-5.5734 8.9467-5.5734 26.84 0 17.16 5.72 26.693 5.72 9.3867 18.333 9.3867zm45.027 3.08v-3.6667h3.08q4.84 0 7.1867-0.58667 2.4933-0.58667 3.2267-2.7867 0.88-2.3467 0.88-7.3334v-50.013q0-4.84-0.88-7.04-0.73334-2.3467-2.9333-2.9333-2.2-0.58667-6.3067-0.58667h-2.0533v-3.6667h17.307l0.73333 13.2h0.73334q3.08-7.48 8.8-10.853 5.8667-3.3733 13.347-3.3733 9.3867 0 14.08 4.1067 4.6933 4.1067 6.6 10.413h0.58667q2.7867-6.4534 8.36-10.413 5.72-4.1067 14.813-4.1067 22.88 0 22.88 26.987v38.28q0 4.9867 0.73333 7.3334 0.73334 2.2 3.08 2.7867 2.4933 0.58667 7.48 0.58667h1.1733v3.6667h-18.627v-52.947q0-10.56-4.1067-16.133-4.1067-5.72-13.787-5.72-7.3334 0-12.027 3.2267-4.5467 3.2267-6.7467 8.8-2.0533 5.4267-2.0533 12.027v36.373q0 4.9867 0.73333 7.3334 0.73334 2.2 3.08 2.7867 2.4933 0.58667 7.48 0.58667h1.76v3.6667h-19.213v-52.947q0-10.413-4.1067-16.133-3.96-5.72-13.933-5.72-7.1867 0-11.88 3.6667-4.5467 3.6667-6.7467 9.68-2.2 6.0133-2.2 12.907v34.32q0 4.9867 0.73334 7.1867 0.88 2.2 3.2267 2.7867 2.4933 0.58667 7.48 0.58667h2.3467v3.6667zm156.2 1.4667q-8.9467 0-15.107-5.5733-6.0133-5.5734-6.0133-17.453 0-11.587 8.2134-17.013 8.36-5.4267 25.813-6.0134l12.173-0.44v-9.3867q0-6.16-1.32-10.707-1.1733-4.6933-4.9867-7.3334-3.8133-2.7867-11.587-2.7867-10.413 0-13.787 4.84-3.3733 4.6933-3.3733 12.76-4.9867 0-4.9867-7.3334 0-3.3733 2.0533-6.7467 2.2-3.3734 7.04-5.5734 4.9867-2.3467 13.053-2.3467 13.053 0 18.48 6.16 5.5734 6.0134 5.5734 17.307v39.893q0 5.28 0.58667 8.0667 0.58667 2.64 2.3467 3.6667 1.9067 0.88 5.72 0.88h0.88v3.6667h-14.08l-1.1733-14.667h-0.44001q-2.0533 3.3733-5.28 7.1867-3.2267 3.6667-8.0667 6.3067-4.84 2.64-11.733 2.64zm1.1733-4.84q6.8934 0 12.32-3.3733t8.5067-8.5067q3.08-5.1333 3.08-10.267v-15.693l-11.88 0.44q-10.707 0.44001-16.867 2.9333-6.16 2.3467-8.8 6.6-2.4933 4.1067-2.4933 9.9734 0 7.3334 3.6667 12.613 3.8133 5.28 12.467 5.28zm77.734 4.84q-9.0934 0-13.053-4.9867-3.8133-4.9867-3.8133-17.307v-53.093h-11.44v-3.52q6.16 0 9.68-3.3733 1.6133-1.6133 2.7867-5.1333 1.1733-3.6667 1.32-10.413h3.8133v17.747h18.773v4.6933h-18.773v54.267q0 9.0934 2.64 12.907 2.7867 3.6667 8.8 3.6667 4.4 0 8.6534-0.73334v4.2533q-4.5467 1.0267-9.3867 1.0267zm42.387 0q-8.9467 0-15.107-5.5733-6.0133-5.5734-6.0133-17.453 0-11.587 8.2134-17.013 8.36-5.4267 25.813-6.0134l12.173-0.44v-9.3867q0-6.16-1.32-10.707-1.1733-4.6933-4.9867-7.3334-3.8133-2.7867-11.587-2.7867-10.413 0-13.787 4.84-3.3733 4.6933-3.3733 12.76-4.9867 0-4.9867-7.3334 0-3.3733 2.0533-6.7467 2.2-3.3734 7.04-5.5734 4.9867-2.3467 13.053-2.3467 13.053 0 18.48 6.16 5.5734 6.0134 5.5734 17.307v39.893q0 5.28 0.58667 8.0667 0.58666 2.64 2.3467 3.6667 1.9067 0.88 5.72 0.88h0.88v3.6667h-14.08l-1.1733-14.667h-0.44q-2.0533 3.3733-5.28 7.1867-3.2267 3.6667-8.0667 6.3067-4.84 2.64-11.733 2.64zm1.1733-4.84q6.8934 0 12.32-3.3733t8.5067-8.5067q3.08-5.1333 3.08-10.267v-15.693l-11.88 0.44q-10.707 0.44001-16.867 2.9333-6.16 2.3467-8.8 6.6-2.4933 4.1067-2.4933 9.9734 0 7.3334 3.6667 12.613 3.8133 5.28 12.467 5.28zm95.627 4.84q-13.493 0-22.44-6.6-8.9467-6.6-13.493-18.627-4.4-12.173-4.4-28.747 0-24.933 10.267-39.307 10.413-14.373 30.507-14.373 10.267 0 16.427 2.4933 6.3067 2.3467 9.2401 6.16 2.9333 3.8133 2.9333 8.0667 0 7.04-5.1333 7.04 0-5.72-2.2-9.9734-2.0534-4.4-7.3334-6.7467-5.28-2.4933-14.667-2.4933-16.72 0-25.08 13.2-8.2133 13.2-8.2133 35.933 0 14.96 3.6667 25.96 3.6666 11 11.147 17.013 7.48 6.0133 19.067 6.0133 10.853 0 16.867-3.96 6.0133-4.1067 8.9467-9.68 2.0533 1.1733 2.0533 4.1067 0 1.9067-3.08 5.4267-2.9333 3.52-9.24 6.3067-6.16 2.7867-15.84 2.7867zm40.92-1.4667v-3.6667h5.4267q3.6666 0 5.5733-0.73334 1.9067-0.88 2.64-3.52 0.88-2.64 0.88-8.0667v-72.747q0-5.4267-0.88-8.0667-0.7333-2.64-2.64-3.3733-1.9067-0.88001-5.5733-0.88001h-5.4267v-3.6667h34.907v3.6667h-4.9867q-3.6666 0-5.72 0.88001-1.9066 0.73333-2.64 3.3733-0.7333 2.64-0.7333 8.0667v72.747q0 5.4267 0.7333 8.0667 0.7334 2.64 2.64 3.52 2.0534 0.73334 5.72 0.73334h4.9867v3.6667z" aria-label="AutomataCI"/></g></svg>
