<svg width="1200" height="1200" version="1.1" viewBox="0 0 1200 1200" xml:space="preserve" xmlns="http://www.w3.org/2000/svg" xmlns:xlink="http://www.w3.org/1999/xlink"><defs><linearGradient id="linearGradient119" x1="567.62" x2="567.62" y1="79.443" y2="1028" gradientUnits="userSpaceOnUse"><stop style="stop-color:#69ceff" offset="0"/><stop style="stop-color:#0100b7" offset="1"/></linearGradient></defs><path transform="matrix(1.2474 0 0 1.2474 -105.52 -99.101)" d="m564.02 92.6c-13.02 0-26.119 7.756-33.988 22.779a1.9949 1.9949 0 0 0-8e-3 0.0137l-443.84 865.63 0.36523-0.5c-0.93228 0.93228-1.1114 1.8748-1.3379 2.9316-0.22646 1.0568-0.35727 2.2459-0.44727 3.5059-0.17999 2.5199-0.17773 5.3113-0.17773 7.3789 0 17.538 13.312 30.941 29.562 30.941 11.849 0 22.086-7.27 26.584-16.244l0.0117-0.022 170.75-331.94 225.55 332.17-0.0606-0.094c6.5214 10.869 16.85 16.475 27.211 16.475s20.69-5.6056 27.211-16.475l-0.0586 0.09 225.54-333.53 170.75 333.31c4.492 8.984 14.828 16.266 27.973 16.266 16.25 0 30.941-13.293 30.941-30.941 0-4.9913-2.9774-10.551-7.1133-17.451l-442.44-861.44-4e-3 -6e-3c-7.1696-15.051-19.964-22.839-32.982-22.839zm0 3.9883c11.447 0 22.77 6.6817 29.385 20.572a1.9949 1.9949 0 0 0 0.0254 0.0547l442.46 861.49a1.9949 1.9949 0 0 0 0.062 0.11524c4.095 6.8249 6.6075 12.265 6.6075 15.514 0 15.432-12.877 26.951-26.951 26.951-11.667 0-20.626-6.5019-24.404-14.059a1.9949 1.9949 0 0 0-0.01-0.018l-172.3-336.33a1.9949 1.9949 0 0 0-3.4277-0.20704l-227.43 336.33a1.9949 1.9949 0 0 0-0.0586 0.092c-5.8841 9.8069-14.853 14.539-23.789 14.539s-17.907-4.7322-23.791-14.539a1.9949 1.9949 0 0 0-0.0586-0.094l-227.44-334.95a1.9949 1.9949 0 0 0-3.4238 0.20704l-172.3 334.95a1.9949 1.9949 0 0 0-0.01 0.022c-3.7784 7.5567-12.831 14.059-23.027 14.059-14.074 0-25.572-11.408-25.572-26.951 0-2.0676 0.0014-4.7893 0.16602-7.0938 0.0823-1.1522 0.20988-2.2027 0.37109-2.9551 0.16122-0.75234 0.49895-1.1884 0.25586-0.94531a1.9949 1.9949 0 0 0 0.36523-0.50195l443.83-865.61c7.2929-13.923 19.007-20.641 30.453-20.641zm0.86133 82.506a1.9949 1.9949 0 0 0-1.7754 1.082l-223.3 434.19a1.9949 1.9949 0 0 0 0.12304 2.0312l223.3 329.44a1.9949 1.9949 0 0 0 3.3086-0.01l221.92-330.81a1.9949 1.9949 0 0 0 0.11914-2.0215l-221.92-432.81a1.9949 1.9949 0 0 0-1.7734-1.084zm-4e-3 6.3613 219.61 428.31-219.62 327.38-220.97-326.01zm30.879 183.04c-25.643 0-46.299 21.559-46.299 47.541 0 22.429 15.424 41.492 36.131 46.305l-8.6543 117.01-98.748-15.008c0.0123-0.38472 0.11524-0.74529 0.11524-1.1328 0-19.642-15.984-35.824-35.588-35.824-6.6252 0-12.763 1.9663-18.084 5.1719l-43.879-52.092c5.9739-6.4224 9.707-14.976 9.707-24.383 0-19.641-15.982-35.824-35.586-35.824s-35.588 16.183-35.588 35.824 15.984 35.824 35.588 35.824c6.6256 0 12.763-1.968 18.084-5.1738l43.879 52.094c-5.9739 6.4224-9.707 14.976-9.707 24.383 0 10.218 4.3841 19.435 11.295 25.99l-40.467 64.619c-7.4876-3.369-15.753-5.2832-24.463-5.2832-20.061 0-37.821 9.989-48.809 25.217l-20.305-15.447c2.5257-4.9131 4.0898-10.393 4.0898-16.264 0-19.642-15.984-35.824-35.588-35.824-19.604 0-35.586 16.183-35.586 35.824 0 19.641 15.982 35.826 35.586 35.826 10.167 0 19.298-4.4071 25.793-11.338l20.816 15.836c-4.0474 8.1629-6.3828 17.324-6.3828 27.025 0 19.646 9.3843 37.153 23.84 48.301l-18.377 26.258c-7.0997-4.381-15.35-7.0508-24.256-7.0508-25.818 1e-5 -46.848 21.278-46.848 47.189 0 25.912 21.03 47.189 46.848 47.189s46.846-21.278 46.846-47.189c0-13.375-5.6682-25.442-14.641-34.059l18.809-26.871c8.4172 4.5052 17.994 7.0879 28.164 7.0879 9.6676 0 18.78-2.3684 26.891-6.4668l50.914 76.574c-6.6397 6.526-10.799 15.589-10.799 25.576 0 19.641 15.982 35.824 35.586 35.824 19.604 0 35.586-16.183 35.586-35.824 0-19.641-15.982-35.824-35.586-35.824-6.0522 0-11.672 1.686-16.67 4.3965l-50.504-75.959c15.097-11.093 24.969-28.999 24.969-49.152 0-21.122-10.815-39.809-27.156-50.732l39.893-63.705c4.8583 2.5202 10.277 4.082 16.098 4.082 15.766 0 29.033-10.535 33.686-24.85l99.795 15.166-9.7188 131.4c-13.674 0.49508-26.227 5.4466-36.275 13.492l-9.207-9.4062c4.9184-6.1525 7.9902-13.848 7.9902-22.285 0-19.642-15.984-35.824-35.588-35.824-19.604 0-35.586 16.183-35.586 35.824s15.982 35.826 35.586 35.826c7.5962 0 14.611-2.4762 20.4-6.5957l9.1348 9.332c-10.111 11.149-16.34 25.921-16.34 42.125 0 32.832 25.374 59.928 57.438 62.363l2.9316 88.461c-23.396 2.712-41.713 22.641-41.713 46.828 0 26.013 21.109 47.375 47.027 47.375 25.919 0 47.029-21.362 47.029-47.375 0-24.402-18.646-44.471-42.342-46.893l-2.9277-88.428c25.36-2.1928 46.42-19.825 53.879-43.459l192.21 36.721c-0.0777 1.1066-0.33203 2.1637-0.33203 3.2891 0 26.013 21.111 47.375 47.029 47.375s47.029-21.362 47.029-47.375c0-26.013-21.111-47.373-47.029-47.373-21.352 0-39.236 14.584-44.947 34.236l-191.78-36.639c0.43637-2.9826 0.73828-6.0077 0.73828-9.1074 0-7.2647-1.3049-14.222-3.5859-20.725l96.537-38.727c11.839 19.886 33.378 33.307 58.014 33.307 37.32 0 67.68-30.7 67.68-68.219 0-27.746-16.626-51.721-40.369-62.35l12.6-34.082c1.8913 0.31638 3.7996 0.59179 5.7774 0.59179 19.604 0 35.586-16.185 35.586-35.826 0-19.641-15.982-35.824-35.586-35.824-19.604 0-35.586 16.183-35.586 35.824 0 14.13 8.3349 26.364 20.275 32.178l-12.484 33.775c-5.7099-1.5858-11.691-2.5039-17.893-2.5039-17.581 0-33.564 6.8692-45.609 17.998l-8.1602-6.4609c6.5347-8.1443 10.617-18.35 10.617-29.559 1e-5 -26.013-21.111-47.375-47.029-47.375-21.508 0-39.509 14.793-45.08 34.664l-59.678-9.0703 8.6758-117.3c0.0789 4.1e-4 0.15149 0.0234 0.23047 0.0234 25.644 0 46.301-21.561 46.301-47.543s-20.658-47.541-46.301-47.541zm-7.3145 10.764c-4.7241 1.0017-9.1147 2.9538-12.977 5.6543 3.862-2.6998 8.252-4.6532 12.977-5.6543zm14.629 0c4.7246 1.0012 9.1143 2.9544 12.977 5.6543-3.8621-2.7005-8.2524-4.6526-12.977-5.6543zm-27.607 5.6543c-1.9307 1.3502-3.729 2.889-5.3711 4.5879-3.2845 3.3982-5.9438 7.4423-7.7812 11.932 1.8371-4.4898 4.497-8.5337 7.7812-11.932 1.6427-1.6995 3.4395-3.2374 5.3711-4.5879zm40.586 0c5.7938 4.0506 10.398 9.7841 13.154 16.52-2.7564-6.7339-7.3614-12.469-13.154-16.52zm-20.293 3.582c14.467 0 26.301 12.004 26.301 27.541s-11.834 27.543-26.301 27.543c-14.467 0-26.299-12.006-26.299-27.543s11.832-27.541 26.299-27.541zm-246.04 42.285c-9.9806 2.0703-17.864 10.031-19.914 20.102 2.048-10.077 9.9275-18.034 19.914-20.102zm10.305 0c8.3231 1.7233 15.18 7.5389 18.42 15.262-3.2415-7.7187-10.103-13.536-18.42-15.262zm205.63 6.2363c4.8176 7.374 12.163 12.742 20.686 15.123v2e-3c-8.5244-2.3802-15.868-7.75-20.686-15.125zm60.197 0c-5.22 7.9901-13.335 13.796-22.785 15.799 9.4486-2.0036 17.565-7.8097 22.785-15.799zm-270.98 3.2383c8.7031 0 15.586 6.8807 15.586 15.824 0 8.9435-6.8829 15.824-15.586 15.824s-15.588-6.8813-15.588-15.824c0-8.943 6.8848-15.824 15.588-15.824zm-25.066 21.021c2.0497 10.07 9.9335 18.031 19.914 20.102-9.9866-2.0677-17.866-10.025-19.914-20.102zm48.639 4.8398c-1.0278 2.45-2.5038 4.6347-4.1914 6.6309l-4e-3 -4e-3c1.6875-1.9957 3.1671-4.1785 4.1953-6.627zm-12.014 12.867 4e-3 4e-3c-2.0171 1.0421-4.1288 1.9183-6.4102 2.3906 2.2794-0.47287 4.3902-1.3522 6.4062-2.3945zm455.89 52.924c-8.3172 1.7254-15.178 7.5431-18.42 15.262 3.2396-7.7228 10.097-13.538 18.42-15.262zm10.305 0c8.3231 1.7233 15.18 7.5389 18.42 15.262-3.2415-7.7187-10.103-13.536-18.42-15.262zm-395.07 6c-2.2794 0.47287-4.3902 1.3522-6.4062 2.3945l-2e-3 -4e-3c2.0167-1.0417 4.1274-1.9184 6.4082-2.3906zm10.305 0c9.9866 2.0677 17.866 10.025 19.914 20.102-2.0497-10.07-9.9335-18.031-19.914-20.102zm379.61 3.4746c8.7031 0 15.586 6.8807 15.586 15.824 0 8.9435-6.8834 15.826-15.586 15.826s-15.586-6.8827-15.586-15.826c0-8.9435 6.8829-15.824 15.586-15.824zm-404.14 5.1562 4e-3 4e-3c-1.6875 1.9957-3.1671 4.1785-4.1953 6.627 1.0278-2.45 2.5038-4.6347 4.1914-6.6309zm19.381 0.84375c8.703 0 15.588 6.8813 15.588 15.824s-6.8854 15.826-15.588 15.826c-8.7025 0-15.586-6.8827-15.586-15.826 0-8.9435 6.8829-15.824 15.586-15.824zm359.7 15.021c1.56 7.6662 6.5633 14.007 13.236 17.561l-2e-3 4e-3c-6.675-3.5514-11.676-9.893-13.234-17.564zm50.129 0c-2.0477 10.077-9.928 18.036-19.914 20.104 9.9813-2.0701 17.865-10.032 19.914-20.104zm-434.89 6c0.94042 4.6214 3.1747 8.7397 6.2109 12.107l-2e-3 6e-3c-3.0366-3.3676-5.2692-7.4883-6.209-12.113zm253.26 3.2441c-1.9697 1.344-3.805 2.8752-5.4805 4.5664 1.676-1.6919 3.51-3.2221 5.4805-4.5664zm41.395 0c1.9705 1.3443 3.8045 2.8745 5.4805 4.5664-1.6754-1.6912-3.5108-3.2224-5.4805-4.5664zm-245.84 1.0254h2e-3c-3.1403 7.9969-10.08 14.07-18.6 15.834 8.5136-1.7662 15.455-7.8424 18.598-15.834zm225.14 2.5859c15.013 0 27.029 12.066 27.029 27.375 1e-5 15.309-12.016 27.373-27.029 27.373s-27.029-12.064-27.029-27.373c0-15.309 12.017-27.375 27.029-27.375zm-259.71 11.262c1.7982 0.85485 3.6702 1.5724 5.666 1.9863-1.9966-0.41345-3.8695-1.1302-5.668-1.9844zm225.59 1.5742c-0.4462 1.0638-0.67872 2.2267-1.0273 3.3379h-2e-3c0.34854-1.1114 0.58318-2.2739 1.0293-3.3379zm68.234 0c1.8744 4.4702 2.9121 9.3838 2.9121 14.539 0 5.1546-1.0382 10.068-2.9121 14.537-0.93745 2.2359-2.0843 4.3606-3.416 6.3496 1.3316-1.9885 2.4784-4.1145 3.416-6.3496 1.8751-4.4702 2.9121-9.3825 2.9121-14.537 1e-5 -5.1546-1.037-10.069-2.9121-14.539zm-139.62 2.7617 58.756 8.9277c-0.0584 0.96101-0.28711 1.8746-0.28711 2.8496 0 26.013 21.111 47.373 47.029 47.373 11.139 0 21.253-4.109 29.322-10.674l8.3535 6.6152c-9.4724 11.746-15.174 26.69-15.174 42.924 0 9.1807 1.84 17.943 5.1328 25.957l-96.002 38.512c-9.3696-17.261-26.586-29.601-46.771-32.162zm68.469 11.777c0 5.1546 1.037 10.067 2.9121 14.537 0.93757 2.2351 2.0844 4.3611 3.416 6.3496-1.3317-1.989-2.4786-4.1137-3.416-6.3496-1.8739-4.4695-2.9121-9.3825-2.9121-14.537zm-406.85 14.105c-8.3172 1.7254-15.178 7.5431-18.42 15.262 3.2396-7.7228 10.097-13.538 18.42-15.262zm10.305 0c9.9866 2.0677 17.866 10.025 19.914 20.102-2.0497-10.07-9.9335-18.031-19.914-20.102zm402.87 6.7832c3.9944 5.9644 9.6502 10.706 16.293 13.545-6.6442-2.8388-12.299-7.5797-16.293-13.545zm61.402 0c-0.60636 0.90557-1.378 1.6727-2.0586 2.5195l-2e-3 -2e-3c0.68049-0.84661 1.4542-1.6122 2.0606-2.5176zm-469.43 2.6914c8.703 0 15.588 6.8813 15.588 15.824s-6.8854 15.826-15.588 15.826c-8.7025 0-15.586-6.8827-15.586-15.826 0-8.9435 6.8829-15.824 15.586-15.824zm460.11 6.832 2e-3 2e-3c-2.1783 1.5642-4.4827 2.9548-6.9746 4.0195 2.4912-1.0648 4.7948-2.4574 6.9727-4.0215zm36.555 7.5547c-1.9204 1.3099-3.7243 2.7732-5.4707 4.3008l-2e-3 -2e-3c1.747-1.5281 3.5515-2.9886 5.4726-4.2988zm64.492 0c4.603 3.1393 8.7329 6.9309 12.26 11.244-3.5265-4.3124-7.6577-8.1052-12.26-11.244zm-32.246 0.0547c26.412 0 47.68 21.405 47.68 48.217s-21.268 48.219-47.68 48.219c-26.412 0-47.68-21.407-47.68-48.219s21.268-48.217 47.68-48.217zm-553.97 6.5801c2.0494 10.071 9.9327 18.033 19.914 20.104-9.9861-2.0679-17.866-10.026-19.914-20.104zm50.131 0c-0.352 1.732-0.88869 3.3948-1.5664 4.9824h-2e-3c0.67894-1.5885 1.2157-3.2498 1.5684-4.9824zm-7.2188 13.248 4e-3 2e-3c-3.4429 3.3946-7.809 5.8408-12.699 6.8535 4.8862-1.0137 9.2529-3.4617 12.695-6.8555zm97.744 0.33593c1.411 0.44321 2.7858 0.96725 4.1406 1.5293l-2e-3 2e-3c-1.3545-0.56196-2.7281-1.0881-4.1387-1.5312zm362.6 0.3086c-1.776 3.299-3.2453 6.7909-4.3691 10.436 1.1238-3.6454 2.5929-7.136 4.3691-10.436zm101.43 0c1.7762 3.2995 3.2453 6.7902 4.3691 10.436-1.1238-3.6446-2.5931-7.1366-4.3691-10.436zm-479.01 7.4043c22.385 0 40.387 18.107 40.387 40.855s-18.002 40.855-40.387 40.855c-22.385 0-40.385-18.107-40.385-40.855 0-22.748 18-40.855 40.385-40.855zm35.625 4.9004c4.5598 4.6024 8.2503 10.082 10.801 16.166-2.5507-6.0835-6.2409-11.564-10.801-16.166zm99.125 3.8164c-8.3172 1.7254-15.178 7.543-18.42 15.262 3.2396-7.7228 10.097-13.538 18.42-15.262zm10.305 0c9.9866 2.0677 17.866 10.025 19.914 20.102-2.0497-10.07-9.9335-18.031-19.914-20.102zm-5.1523 9.4746c8.703 0 15.588 6.8813 15.588 15.824s-6.8854 15.826-15.588 15.826c-8.7025 0-15.586-6.8827-15.586-15.826 0-8.9435 6.8829-15.824 15.586-15.824zm-25.064 21.021c2.0494 10.071 9.9327 18.033 19.914 20.104-9.9861-2.0679-17.866-10.026-19.914-20.104zm50.131 0c-0.7477 3.679-2.3279 7.0284-4.4492 9.959l-2e-3 -4e-3c2.1216-2.9304 3.7029-6.2784 4.4512-9.9551zm-11.781 16.764 2e-3 2e-3c-2.481 1.5348-5.1932 2.7288-8.1348 3.3379 2.9396-0.60986 5.6525-1.8046 8.1328-3.3398zm230.6 1.3906c1.1757 1.4378 2.4197 2.8176 3.7246 4.1348-1.3052-1.3174-2.5487-2.6966-3.7246-4.1348zm89.012 0c-1.1759 1.4382-2.4194 2.8173-3.7246 4.1348 1.3049-1.3172 2.5489-2.697 3.7246-4.1348zm-426.38 3.2773c-2.5505 6.0836-6.241 11.564-10.801 16.166 4.5599-4.6025 8.2501-10.082 10.801-16.166zm153.29 3.8223c-5.8518 1.8382-11.135 4.8444-15.902 8.5059 4.7672-3.6614 10.05-6.6678 15.902-8.5059zm30.988 0c8.1582 2.5624 15.458 7.0971 21.354 13.047 2.3586 2.3804 4.4914 4.9862 6.3652 7.7852-1.8736-2.7986-4.007-5.4049-6.3652-7.7852-5.8955-5.9505-13.195-10.484-21.354-13.047zm160.9 0.79297c2.8485 2.3731 5.9268 4.4766 9.1953 6.2695-3.2691-1.793-6.3464-3.8962-9.1953-6.2695zm73.371 0c-2.8489 2.3734-5.9262 4.4765-9.1953 6.2695 3.2685-1.7929 6.3468-3.8964 9.1953-6.2695zm-249.77 6.8418c23.34 0 42.117 18.889 42.117 42.602 0 23.713-18.777 42.604-42.117 42.604s-42.117-18.891-42.117-42.604c0-23.713 18.777-42.602 42.117-42.602zm-308.73 49.188c-6.6102 2.8253-12.238 7.5435-16.213 13.479 3.9748-5.936 9.6013-10.654 16.213-13.479zm14.338 7.0742c14.912 1e-5 26.846 11.982 26.846 27.189 0 15.208-11.933 27.189-26.846 27.189s-26.848-11.982-26.848-27.189c0-15.208 11.935-27.189 26.848-27.189zm26.438 1.373c1.4983 1.5629 2.9008 3.2233 4.1113 5.0312-1.2105-1.8076-2.6152-3.4666-4.1133-5.0293zm4.1113 5.0332c2.6491 3.957 4.5647 8.454 5.5469 13.293-0.9826-4.8381-2.8973-9.336-5.5469-13.293zm547.54 4.3828c-6.6428 2.8392-12.299 7.5806-16.293 13.545 3.9943-5.9653 9.6487-10.706 16.293-13.545zm28.816 0c6.6443 2.8388 12.299 7.5796 16.293 13.545-3.9944-5.9644-9.6502-10.706-16.293-13.545zm-355.73 4.957c3.7472 5.5968 8.533 10.427 14.078 14.209 6.9319 4.7282 15.051 7.8183 23.809 8.7168-8.7578-0.89841-16.877-3.9888-23.809-8.7168-5.5455-3.7824-10.331-8.6117-14.078-14.209zm86.426 0c-3.7471 5.5973-8.5326 10.427-14.078 14.209-6.9319 4.728-15.051 7.8184-23.809 8.7168 8.7574-0.8985 16.877-3.9886 23.809-8.7168 5.5451-3.7823 10.331-8.6122 14.078-14.209zm254.89 2.1035c15.013 0 27.029 12.064 27.029 27.373 0 15.309-12.017 27.375-27.029 27.375-15.013 0-27.029-12.066-27.029-27.375 0-15.309 12.016-27.373 27.029-27.373zm-30.701 6.4863c-1.3316 1.9885-2.4784 4.1145-3.416 6.3496 0.93744-2.2359 2.0843-4.3606 3.416-6.3496zm61.402 0c1.3317 1.989 2.4786 4.1137 3.416 6.3496 1.8739 4.4695 2.9121 9.3825 2.9121 14.537 0 5.1552-1.0377 10.069-2.9121 14.539 1.8751-4.4704 2.9121-9.3844 2.9121-14.539s-1.037-10.067-2.9121-14.537c-0.93758-2.2351-2.0844-4.3611-3.416-6.3496zm-587.11 10.344c-0.98215 4.839-2.8978 9.336-5.5469 13.293 2.6496-3.9569 4.5643-8.4549 5.5469-13.293zm140.52 9.0527c-2.1236 0.44054-4.1023 1.2324-6 2.1699l-2e-3 -2e-3c1.8986-0.93712 3.8767-1.728 6.002-2.168zm10.305 0c8.3231 1.7233 15.18 7.5389 18.42 15.262-3.2415-7.7187-10.103-13.536-18.42-15.262zm368.55 1.4902c0 5.1546 1.037 10.069 2.9121 14.539-1.8744-4.4702-2.9121-9.3838-2.9121-14.539zm-586.02 2.752c3.9749 5.9351 9.6027 10.653 16.213 13.479-6.6116-2.8249-12.238-7.5425-16.213-13.479zm61.1 0c-3.9744 5.936-9.6016 10.654-16.213 13.479 6.6099-2.8254 12.238-7.5434 16.213-13.479zm132.12 4.041 2e-3 4e-3c-1.8196 2.0781-3.3914 4.386-4.4785 6.9746 1.0868-2.5907 2.6564-4.8998 4.4766-6.9785zm19.096 1.1914c8.7031 0 15.586 6.8807 15.586 15.824 0 8.9435-6.8829 15.824-15.586 15.824s-15.586-6.8807-15.586-15.824c0-8.9435 6.8829-15.824 15.586-15.824zm384.55 18.436c1.6754 1.6912 3.5108 3.2224 5.4805 4.5664-1.9705-1.3443-3.8045-2.8745-5.4805-4.5664zm52.355 0c-1.676 1.6919-3.51 3.2221-5.4805 4.5664 1.9697-1.3441 3.805-2.8752 5.4805-4.5664zm-460.48 7.4258c3.2415 7.7187 10.103 13.536 18.42 15.262-8.3231-1.7233-15.18-7.5389-18.42-15.262zm47.145 0c-3.2396 7.7228-10.097 13.538-18.42 15.262 8.3172-1.7254 15.178-7.543 18.42-15.262zm78.209 70.49c-8.8575 3.786-15.957 10.957-19.707 19.896-1.875 4.4702-2.9121 9.3826-2.9121 14.537 0-5.1547 1.0384-10.068 2.9121-14.537 3.7489-8.9425 10.847-16.111 19.707-19.896zm28.816 0c6.6443 2.8388 12.299 7.5796 16.293 13.545-3.9944-5.9644-9.6502-10.706-16.293-13.545zm-14.408 7.0606c15.013 0 27.029 12.064 27.029 27.373 0 15.309-12.016 27.375-27.029 27.375-15.013 0-27.027-12.065-27.027-27.375 0-15.31 12.014-27.373 27.027-27.373zm30.701 6.4863c1.3317 1.989 2.4786 4.1137 3.416 6.3496 1.8739 4.4695 2.9121 9.3825 2.9121 14.537 0 5.1552-1.0377 10.069-2.9121 14.539 1.8751-4.4704 2.9121-9.3844 2.9121-14.539s-1.037-10.067-2.9121-14.537c-0.93757-2.2351-2.0844-4.3611-3.416-6.3496zm-64.816 35.428c2.8123 6.7044 7.509 12.413 13.418 16.445-5.91-4.0321-10.606-9.7393-13.418-16.445zm60.293 11.879c-1.676 1.6919-3.51 3.2221-5.4805 4.5664 1.9697-1.344 3.805-2.8751 5.4805-4.5664z" style="-inkscape-stroke:none;color:#000000;fill:url(#linearGradient119);stroke-linecap:square;stroke-linejoin:round"/></svg>
