<?xml version="1.0" encoding="UTF-8" standalone="no"?>
<!-- Created with Inkscape (http://www.inkscape.org/) -->

<svg
   width="1200"
   height="1200"
   viewBox="0 0 1200 1200"
   version="1.1"
   id="svg1"
   inkscape:version="1.3 (0e150ed6c4, 2023-07-21)"
   sodipodi:docname="inkspace-logo-1200x1200.svg"
   xml:space="preserve"
   xmlns:inkscape="http://www.inkscape.org/namespaces/inkscape"
   xmlns:sodipodi="http://sodipodi.sourceforge.net/DTD/sodipodi-0.dtd"
   xmlns="http://www.w3.org/2000/svg"
   xmlns:svg="http://www.w3.org/2000/svg"><sodipodi:namedview
     id="namedview1"
     pagecolor="#ffffff"
     bordercolor="#000000"
     borderopacity="0.25"
     inkscape:showpageshadow="2"
     inkscape:pageopacity="0.0"
     inkscape:pagecheckerboard="true"
     inkscape:deskcolor="#d1d1d1"
     inkscape:document-units="px"
     labelstyle="default"
     inkscape:zoom="0.20332613"
     inkscape:cx="1067.2509"
     inkscape:cy="1227.0926"
     inkscape:window-width="1920"
     inkscape:window-height="1001"
     inkscape:window-x="0"
     inkscape:window-y="0"
     inkscape:window-maximized="1"
     inkscape:current-layer="layer1" /><defs
     id="defs1" /><g
     inkscape:label="Layer 1"
     inkscape:groupmode="layer"
     id="layer1"><path
       style="fill:#000080;stroke-width:2.48817"
       d="M 408.24261,1121.3053 C 306.29,1078.961 212.08254,1039.7385 198.89267,1034.1449 L 174.9111,1023.9745 87.45555,812.60751 0,601.24076 87.39275,391.64143 C 135.45879,276.36181 176.08826,180.74 177.68048,179.1485 179.89483,176.93517 562.28392,16.048755 593.89821,4.0290245 l 6.54129,-2.48697 206.83581,86.1594205 c 113.7596,47.387685 209.11989,87.592055 211.91159,89.343025 l 5.0759,3.18359 87.8686,210.57901 87.8686,210.57904 -87.5789,210.82807 -87.5788,210.82799 -3.6006,2.8365 c -1.9804,1.5601 -96.40479,41.0286 -209.83199,87.7079 l -206.23128,84.8713 -5.78371,-0.082 -5.78375,-0.082 z m 164.21895,34.8117 c 0,-4.3667 -112.49571,-274.82139 -114.97258,-276.40929 l -2.3538,-1.5091 -11.6275,2.1993 -11.6275,2.1995 -17.41716,-2.5897 -17.41716,-2.5897 -18.35403,-8.9668 -18.35406,-8.9669 -73.13272,73.0705 -73.1327,73.07019 0.66869,3.4743 0.6687,3.4744 175.4157,72.7652 c 96.47864,40.0212 176.8153,72.8876 178.52592,73.0369 l 3.1102,0.2714 z m 235.02195,-70.5634 c 97.1026,-40.1774 176.8808,-74.0421 177.285,-75.2546 l 0.7349,-2.2047 -91.9209,-91.89569 -91.921,-91.8959 -6.9868,3.2726 c -3.8427,1.8 -13.1359,3.9687 -20.6514,4.8194 l -13.6647,1.5469 -66.45529,159.2426 c -64.55693,154.69379 -68.78701,165.48739 -64.83598,165.44109 1.02637,0 81.31366,-32.8943 178.41617,-73.0717 z m -197.51872,40.593 C 652.32234,1025.1499 734.19235,824.91821 734.19235,822.32011 v -3.3546 l -4.96185,-3.0987 -4.96185,-3.0988 -7.73451,-13.70479 -7.73454,-13.70482 -86.0463,0.65414 -86.04631,0.65389 -2.9116,11.4162 c -1.60139,6.27888 -6.66045,18.44978 -11.24238,27.04638 l -8.33075,15.6299 -14.42326,12.6959 c -18.06893,15.9051 -23.61279,-0.746 94.02272,282.39609 l 3.45072,8.3058 2.98711,-0.9958 2.98715,-0.9958 z M 257.78597,924.13761 c 35.60399,-35.9229 68.51369,-69.4589 73.1327,-74.5246 l 8.39818,-9.2102 -8.8259,-16.9155 -8.82592,-16.9156 -3.01708,-14.78091 -3.01707,-14.7808 1.65624,-16.8083 1.65625,-16.80829 -6.97983,-3.51388 C 293.42454,730.54634 44.69973,628.10917 43.49712,629.3118 c -0.75921,0.75921 30.73089,79.58207 69.97801,175.16191 39.24713,95.5799 72.33205,176.3008 73.52207,179.3799 3.31506,8.5777 2.01195,9.6769 70.78877,-59.716 z m 823.90493,-111.4621 c 38.8361,-95.04604 71.2703,-175.33012 72.0761,-178.40923 l 1.4649,-5.59837 h -1.6725 c -0.9198,0 -73.5361,29.77175 -161.36939,66.15941 l -159.6971,66.15942 -1.837,2.88719 c -1.0104,1.58797 -1.8542,6.51009 -1.8751,10.93803 -0.02,4.42796 -1.4377,13.28392 -3.1484,19.67975 l -3.1102,11.6289 92.0622,90.4056 92.06209,90.4057 2.2167,-0.723 c 1.2191,-0.3976 33.9916,-78.4877 72.8277,-173.5334 z M 713.03996,749.73495 c 1.91141,-4.57469 7.50689,-13.14309 12.43436,-19.04091 l 8.95909,-10.7233 -1.07805,-2.73054 C 716.02663,673.34893 643.16088,499.66981 641.1766,497.52758 l -2.77864,-2.99979 -9.95266,2.31838 -9.95267,2.3184 h -18.66124 -18.66125 l -9.95266,-2.3184 -9.95266,-2.31838 -2.74273,2.99979 c -3.29048,3.59888 -73.14634,172.55359 -73.14634,176.91315 v 3.04139 l 13.74719,11.86845 13.74717,11.86845 7.3811,12.86574 c 6.29177,10.96694 9.12778,18.09887 16.24695,40.85757 l 0.9729,3.11021 h 86.0468 86.04678 z m 271.90505,-80.01822 154.95829,-64.26664 -0.8349,-2.50482 -0.8349,-2.50483 -83.2107,-21.93645 c -45.7658,-12.06506 -85.07869,-21.94915 -87.36199,-21.96468 l -4.1513,-0.0281 -5.2747,8.53461 c -2.901,4.69403 -9.3794,12.13862 -14.3963,16.54352 l -9.1217,8.00896 -13.7269,6.28436 -13.7269,6.28439 -20.4753,0.1876 -20.4754,0.18761 -2.3904,2.48817 c -2.5625,2.66731 -48.8557,99.8343 -53.1185,111.4932 l -2.5559,6.9902 5.87,6.24828 5.8699,6.24826 4.9997,-1.01345 c 2.7498,-0.5574 74.7309,-29.93346 159.9579,-65.2801 z m -637.67568,27.30837 18.48709,-18.72865 -41.69332,-86.39637 -41.69335,-86.39639 -13.44215,-0.52294 -13.44217,-0.52293 -7.59701,-3.02171 c -4.17836,-1.66192 -10.56904,-5.06553 -14.20153,-7.56358 -9.48507,-6.52287 -4.90624,-8.82067 -88.35087,44.33751 -42.20044,26.88366 -81.05552,51.61178 -86.34461,54.95134 l -9.61654,6.07197 2.75482,2.75483 c 3.01389,3.01389 268.28334,113.13982 273.46186,113.527 l 3.19068,0.23861 z m 436.11048,10.64208 c 3.6769,-4.53515 52.8274,-113.62748 52.8274,-117.25336 0,-1.68769 -4.055,-6.92712 -9.0111,-11.64317 l -9.011,-8.57464 -7.0259,-14.65037 -7.0259,-14.65038 -1.5614,-12.71945 -1.5613,-12.71945 2.3486,-10.32467 2.3486,-10.32465 -1.5454,-2.48914 c -0.85,-1.36901 -21.5164,-13.39362 -45.9253,-26.72136 l -44.37979,-24.23227 -14.0921,14.81389 c -7.75064,8.14765 -18.45244,18.18603 -23.78174,22.30756 l -9.68964,7.49363 37.92579,91.87165 c 20.85919,50.52943 41.86763,101.10896 46.68536,112.39902 l 8.75952,20.52737 h 10.5969 10.5968 z m -344.51087,-45.31605 21.91774,-0.0931 35.85434,-85.84173 35.85435,-85.84173 0.01,-4.97633 0.01,-4.97633 -10.16128,-6.22042 -10.16127,-6.22041 -12.4305,-13.55354 -12.43048,-13.55356 -7.73334,-15.68239 -7.73335,-15.68242 -5.06434,0.21797 c -2.78538,0.11993 -34.11883,7.67771 -69.62986,16.79512 l -64.56554,16.57713 -2.83462,11.19675 c -3.0701,12.12687 -8.25703,22.52741 -16.15875,32.40062 l -5.02189,6.27488 41.73884,86.55474 41.73884,86.55474 12.44083,-1.91858 c 6.84245,-1.05523 22.30382,-1.96042 34.35858,-2.01156 z m 717.46496,-92.77716 c -0.8077,-3.76336 -32.1659,-81.86067 -69.6848,-173.54958 L 1018.433,229.31726 h -2.9785 -2.9785 l -39.61519,104.08285 c -21.7883,57.24558 -39.6152,105.77139 -39.6152,107.83512 v 3.75228 l 11.0215,10.71163 11.0215,10.71166 6.509,12.84483 6.5089,12.84481 1.926,15.99803 c 1.0593,8.79893 2.6938,16.76586 3.6322,17.7043 1.508,1.50795 176.25809,50.00296 181.76079,50.44053 l 2.1771,0.17317 z M 128.37138,517.97483 c 42.07653,-26.66891 77.90234,-49.65044 79.6129,-51.07008 l 3.11011,-2.58118 -1.26429,-15.75041 -1.26429,-15.75044 2.96448,-8.98245 2.96448,-8.98246 11.0322,-12.27046 11.03218,-12.27047 -0.0174,-3.36666 c -0.0249,-5.15578 -47.25064,-152.36033 -49.65933,-154.78988 l -2.11494,-2.13323 -2.5702,4.80246 c -4.44601,8.30744 -134.73997,326.64676 -134.73997,329.20198 0,4.86128 5.66693,1.6356 80.91285,-46.05672 z m 704.70853,-63.49121 11.3212,-9.96533 16.0704,-4.96366 16.0705,-4.96367 h 14.1002 14.1001 l 39.5087,-106.3691 c 21.7297,-58.503 40.0193,-107.76869 40.6436,-109.4793 l 1.1349,-3.11021 h -2.9121 c -4.5392,0 -244.77104,99.90516 -248.56693,103.37145 l -3.37413,3.0812 2.75208,12.83254 2.75209,12.83257 v 16.31662 16.31665 l -4.15718,17.22383 -4.1572,17.2238 2.29108,2.18242 c 4.3159,4.11128 84.39639,47.3708 87.75099,47.4032 1.8427,0.0174 8.445,-4.45208 14.6717,-9.93301 z M 387.72516,400.92881 c 31.12773,-7.56624 60.8964,-14.91469 66.1526,-16.32986 l 9.55672,-2.57304 -1.50524,-14.15017 -1.50526,-14.15018 3.53177,-16.17308 3.53178,-16.17307 -1.64572,-1.75685 C 463.58823,317.2168 217.70744,215.63235 214.13799,215.63235 h -2.85589 l 1.53743,6.84246 c 0.84558,3.76335 12.47863,40.99253 25.85123,82.73152 l 24.31378,75.88906 9.80285,2.0865 c 5.39156,1.14759 15.58677,4.72809 22.656,7.95666 l 12.85314,5.87015 7.05219,8.83839 7.05216,8.83839 4.36422,8e-5 c 2.40031,5e-5 29.83234,-6.19049 60.96006,-13.75675 z M 487.74817,284.24422 c 2.89655,-4.68671 11.94949,-14.70859 20.11764,-22.27087 l 14.85119,-13.74958 15.8862,-7.58177 15.88619,-7.58179 14.58446,-3.31172 14.58446,-3.31175 0.65197,-93.73209 0.65195,-93.732095 h -1.95171 c -1.07347,0 -81.42359,32.750489 -178.55585,72.778855 l -176.6041,72.77886 0.29067,2.48817 0.29066,2.48817 122.87355,51.45614 c 67.58046,28.30087 124.74167,51.53412 127.02491,51.62945 l 4.15138,0.17317 z m 360.89984,-43.33138 123.1642,-51.5138 -0.3265,-2.43437 -0.3266,-2.4344 -176.239,-72.77886 C 697.98872,71.723044 617.78552,38.972555 616.69085,38.972555 h -1.9903 l 0.65197,93.732095 0.65195,93.73209 14.36881,3.26275 c 18.8753,4.28607 38.67322,13.81878 54.21746,26.10582 l 12.57681,9.94139 10.42586,13.49992 10.42587,13.49992 3.73224,-0.15999 c 2.05274,-0.0881 59.15619,-23.34116 126.89649,-51.67376 z"
       id="path1" /></g></svg>
