<?xml version="1.0" encoding="UTF-8" standalone="no"?>
<!-- Created with Inkscape (http://www.inkscape.org/) -->

<svg
   width="1200"
   height="1200"
   viewBox="0 0 1200 1200"
   version="1.1"
   id="svg5"
   inkscape:version="1.3.2 (091e20ef0f, 2023-11-25)"
   sodipodi:docname="inkscape-icon_1200x1200.svg"
   xml:space="preserve"
   xmlns:inkscape="http://www.inkscape.org/namespaces/inkscape"
   xmlns:sodipodi="http://sodipodi.sourceforge.net/DTD/sodipodi-0.dtd"
   xmlns:xlink="http://www.w3.org/1999/xlink"
   xmlns="http://www.w3.org/2000/svg"
   xmlns:svg="http://www.w3.org/2000/svg"><sodipodi:namedview
     id="namedview7"
     pagecolor="#ffffff"
     bordercolor="#666666"
     borderopacity="1.0"
     inkscape:pageshadow="2"
     inkscape:pageopacity="0.0"
     inkscape:pagecheckerboard="true"
     inkscape:document-units="px"
     showgrid="false"
     units="px"
     width="1200px"
     inkscape:zoom="0.52850974"
     inkscape:cx="314.09071"
     inkscape:cy="673.59213"
     inkscape:window-width="1920"
     inkscape:window-height="971"
     inkscape:window-x="0"
     inkscape:window-y="40"
     inkscape:window-maximized="1"
     inkscape:current-layer="svg5"
     inkscape:showpageshadow="0"
     inkscape:deskcolor="#505050" /><defs
     id="defs2"><linearGradient
       id="linearGradient118"
       inkscape:collect="always"><stop
         style="stop-color:#69ceff;stop-opacity:1;"
         offset="0"
         id="stop118" /><stop
         style="stop-color:#0100b7;stop-opacity:1;"
         offset="1"
         id="stop119" /></linearGradient><linearGradient
       inkscape:collect="always"
       xlink:href="#linearGradient118"
       id="linearGradient119"
       x1="567.62317"
       y1="79.443375"
       x2="567.62317"
       y2="1028.0262"
       gradientUnits="userSpaceOnUse" /></defs><path
     id="foreground"
     style="color:#000000;-inkscape-font-specification:Nemoy;fill:url(#linearGradient119);stroke-linecap:square;stroke-linejoin:round;-inkscape-stroke:none"
     d="m 564.02344,92.599609 c -13.01983,0 -26.11895,7.756011 -33.98828,22.779301 a 1.9948645,1.9948645 0 0 0 -0.008,0.0137 l -443.841793,865.6289 0.365234,-0.5 c -0.93228,0.93228 -1.111435,1.87485 -1.33789,2.93164 -0.226456,1.0568 -0.357269,2.24591 -0.447266,3.50586 -0.179993,2.51991 -0.177734,5.31133 -0.177734,7.37891 0,17.53798 13.312227,30.94138 29.562499,30.94138 11.84871,0 22.08639,-7.27 26.58398,-16.2441 l 0.0117,-0.022 170.75,-331.9414 225.54883,332.1699 -0.0606,-0.094 c 6.52136,10.869 16.84984,16.4746 27.21094,16.4746 10.3611,0 20.68959,-5.6056 27.21094,-16.4746 l -0.0586,0.09 225.54296,-333.53124 170.75391,333.30664 c 4.49198,8.984 14.82833,16.2656 27.97263,16.2656 16.2503,0 30.9414,-13.2926 30.9414,-30.94138 0,-4.99126 -2.9774,-10.55083 -7.1133,-17.45117 l -442.43549,-861.44141 -0.004,-0.006 C 589.83592,100.38811 577.04138,92.599609 564.02344,92.599609 Z m 0,3.988282 c 11.44657,0 22.77022,6.681729 29.38476,20.572269 a 1.9948645,1.9948645 0 0 0 0.0254,0.0547 L 1035.8984,978.709 a 1.9948645,1.9948645 0 0 0 0.062,0.11524 c 4.095,6.82487 6.6075,12.26503 6.6075,15.51367 0,15.43249 -12.8769,26.95119 -26.9512,26.95119 -11.6667,0 -20.62595,-6.5019 -24.4043,-14.0586 a 1.9948645,1.9948645 0 0 0 -0.01,-0.018 L 818.9043,670.88477 a 1.9948645,1.9948645 0 0 0 -3.42774,-0.20704 L 588.04297,1007.0039 a 1.9948645,1.9948645 0 0 0 -0.0586,0.092 c -5.88414,9.8069 -14.85272,14.5391 -23.78906,14.5391 -8.93634,0 -17.90687,-4.7322 -23.79101,-14.5391 a 1.9948645,1.9948645 0 0 0 -0.0586,-0.094 L 312.91016,672.05273 a 1.9948645,1.9948645 0 0 0 -3.42383,0.20704 L 137.1875,1007.209 a 1.9948645,1.9948645 0 0 0 -0.01,0.022 c -3.77835,7.5567 -12.83133,14.0586 -23.02734,14.0586 -14.07428,0 -25.572265,-11.4079 -25.572265,-26.95121 0,-2.06758 0.0014,-4.7893 0.166016,-7.09375 0.0823,-1.15223 0.209877,-2.20274 0.371093,-2.95508 0.161217,-0.75234 0.498946,-1.1884 0.25586,-0.94531 a 1.9948645,1.9948645 0 0 0 0.365234,-0.50195 L 533.57031,117.22852 c 7.29294,-13.92288 19.00656,-20.640629 30.45313,-20.640629 z m 0.86133,82.505859 a 1.9948645,1.9948645 0 0 0 -1.7754,1.08203 L 339.81055,614.36914 a 1.9948645,1.9948645 0 0 0 0.12304,2.03125 l 223.29883,329.43555 a 1.9948645,1.9948645 0 0 0 3.3086,-0.01 l 221.91992,-330.8125 a 1.9948645,1.9948645 0 0 0 0.11914,-2.02148 L 566.6582,180.17773 a 1.9948645,1.9948645 0 0 0 -1.77343,-1.08398 z m -0.004,6.36133 219.61328,428.3125 L 564.875,941.15039 343.90039,615.14062 Z m 30.879,183.03515 c -25.64329,0 -46.29883,21.55926 -46.29883,47.54102 0,22.42942 15.42378,41.49153 36.13086,46.30469 l -8.6543,117.00586 -98.74805,-15.00782 c 0.0123,-0.38472 0.11524,-0.74529 0.11524,-1.13281 0,-19.64152 -15.98426,-35.82422 -35.58789,-35.82422 -6.62523,0 -12.76314,1.96633 -18.08399,5.17188 l -43.8789,-52.0918 c 5.9739,-6.42244 9.70703,-14.97611 9.70703,-24.38281 0,-19.64114 -15.98231,-35.82422 -35.58594,-35.82422 -19.60363,0 -35.58789,16.1827 -35.58789,35.82422 0,19.64152 15.98426,35.82422 35.58789,35.82422 6.62556,0 12.76295,-1.96798 18.08398,-5.17383 l 43.87891,52.09375 c -5.9739,6.42244 -9.70703,14.97611 -9.70703,24.38281 0,10.21818 4.38413,19.43519 11.29492,25.99024 l -40.4668,64.61914 c -7.4876,-3.36898 -15.75257,-5.28321 -24.46289,-5.28321 -20.06105,0 -37.82091,9.98898 -48.80859,25.2168 l -20.30469,-15.44727 c 2.52567,-4.91312 4.08985,-10.39307 4.08985,-16.26367 0,-19.64151 -15.98426,-35.82422 -35.58789,-35.82422 -19.60365,0 -35.58594,16.1831 -35.58594,35.82422 0,19.64114 15.98191,35.82618 35.58594,35.82617 10.16699,0 19.29797,-4.4071 25.79296,-11.33789 l 20.81641,15.83594 c -4.04739,8.16293 -6.38281,17.32366 -6.38281,27.02539 0,19.64638 9.38427,37.15321 23.83984,48.30078 l -18.37695,26.25782 c -7.0997,-4.38103 -15.34957,-7.05078 -24.25586,-7.05079 -25.81765,10e-6 -46.84766,21.27781 -46.84766,47.18946 0,25.91164 21.03001,47.18945 46.84766,47.18945 25.81765,0 46.8457,-21.27809 46.8457,-47.18945 0,-13.37512 -5.66822,-25.44185 -14.64062,-34.0586 l 18.80859,-26.87109 c 8.41722,4.50519 17.99434,7.08789 28.16406,7.08789 9.66758,0 18.77996,-2.3684 26.89063,-6.4668 l 50.91406,76.57422 c -6.63966,6.52603 -10.79883,15.58885 -10.79883,25.57617 0,19.64114 15.98231,35.82422 35.58594,35.82422 19.60364,0 35.58594,-16.18308 35.58594,-35.82422 0,-19.64112 -15.9823,-35.82421 -35.58594,-35.82421 -6.05223,0 -11.67176,1.68598 -16.66992,4.39648 l -50.50391,-75.95898 c 15.09658,-11.09286 24.96875,-28.99913 24.96875,-49.15235 0,-21.12153 -10.8152,-39.80911 -27.15625,-50.73242 l 39.89258,-63.70508 c 4.85832,2.52019 10.27732,4.08203 16.09766,4.08203 15.7656,0 29.03307,-10.53489 33.68554,-24.84961 l 99.79493,15.16602 -9.71875,131.39844 c -13.67403,0.49508 -26.22669,5.44664 -36.2754,13.49218 l -9.20703,-9.40625 c 4.9184,-6.15251 7.99024,-13.84827 7.99024,-22.28515 0,-19.64152 -15.98426,-35.82422 -35.58789,-35.82422 -19.60364,0 -35.58594,16.18309 -35.58594,35.82422 0,19.64113 15.98191,35.82617 35.58594,35.82617 7.59621,0 14.61055,-2.47616 20.40039,-6.5957 l 9.13476,9.33203 c -10.11105,11.14944 -16.33984,25.92135 -16.33984,42.125 0,32.83161 25.37393,59.92798 57.4375,62.36328 l 2.93164,88.46094 c -23.39622,2.71196 -41.71289,22.64142 -41.71289,46.82812 0,26.01289 21.10879,47.37499 47.02734,47.37499 25.91856,0 47.0293,-21.3618 47.0293,-47.37499 0,-24.4024 -18.6455,-44.47124 -42.3418,-46.89258 l -2.92773,-88.42773 c 25.36005,-2.19285 46.42017,-19.82456 53.87891,-43.45898 l 192.20507,36.7207 c -0.0777,1.10657 -0.33203,2.16372 -0.33203,3.28906 0,26.01316 21.11075,47.375 47.0293,47.375 25.91855,0 47.0293,-21.36184 47.0293,-47.375 0,-26.01315 -21.11103,-47.37305 -47.0293,-47.37305 -21.35198,0 -39.23604,14.58416 -44.94727,34.23633 L 630.08984,792.33789 c 0.43637,-2.98255 0.73828,-6.00771 0.73828,-9.10742 0,-7.26469 -1.30491,-14.22194 -3.58593,-20.72461 L 723.7793,723.7793 c 11.83884,19.88595 33.37832,33.30664 58.01367,33.30664 37.31958,0 67.67969,-30.69981 67.67969,-68.21875 0,-27.74581 -16.62627,-51.72089 -40.36914,-62.34961 l 12.5996,-34.08203 c 1.89134,0.31638 3.79959,0.59179 5.77735,0.59179 19.60402,0 35.58594,-16.18503 35.58594,-35.82617 0,-19.64113 -15.98231,-35.82422 -35.58594,-35.82422 -19.60364,0 -35.58594,16.18309 -35.58594,35.82422 0,14.12968 8.33492,26.36433 20.27539,32.17774 l -12.48437,33.77539 c -5.70986,-1.58584 -11.691,-2.50391 -17.89258,-2.50391 -17.58067,0 -33.56396,6.86916 -45.60938,17.99805 l -8.16015,-6.46094 c 6.5347,-8.14428 10.61718,-18.34995 10.61718,-29.55859 10e-6,-26.01316 -21.11074,-47.375 -47.02929,-47.375 -21.50779,0 -39.50947,14.79306 -45.08008,34.66406 l -59.67773,-9.07031 8.67578,-117.29688 c 0.0789,4.1e-4 0.15149,0.0234 0.23047,0.0234 25.64356,0 46.30078,-21.56093 46.30078,-47.54297 0,-25.98204 -20.6575,-47.54102 -46.30078,-47.54102 z m -7.31446,10.76368 c -4.72408,1.00172 -9.11468,2.95375 -12.97656,5.65429 3.862,-2.69984 8.25202,-4.65315 12.97656,-5.65429 z m 14.62891,0 c 4.72465,1.00116 9.11434,2.95443 12.97656,5.65429 -3.86211,-2.70051 -8.25238,-4.65259 -12.97656,-5.65429 z m -27.60742,5.65429 c -1.93073,1.35024 -3.72898,2.88897 -5.3711,4.58789 -3.28452,3.39817 -5.9438,7.44228 -7.78125,11.93164 1.83709,-4.48983 4.49697,-8.53371 7.78125,-11.93164 1.64267,-1.69951 3.43952,-3.23742 5.3711,-4.58789 z m 40.58593,0 c 5.79385,4.05055 10.3981,9.78408 13.1543,16.51953 -2.75637,-6.73386 -7.36142,-12.46861 -13.1543,-16.51953 z m -20.29296,3.58203 c 14.46691,0 26.30078,12.00397 26.30078,27.54102 0,15.53705 -11.83425,27.54297 -26.30078,27.54297 -14.46655,0 -26.29883,-12.00556 -26.29883,-27.54297 0,-15.53741 11.8319,-27.54102 26.29883,-27.54102 z m -246.03711,42.28516 c -9.98056,2.07032 -17.8644,10.03124 -19.91407,20.10156 2.04797,-10.07671 9.92749,-18.03389 19.91407,-20.10156 z m 10.30468,0 c 8.32311,1.72326 15.18028,7.53888 18.41993,15.26172 -3.24151,-7.71867 -10.10276,-13.53632 -18.41993,-15.26172 z m 205.63477,6.23633 c 4.81764,7.37401 12.16293,12.74194 20.68555,15.12305 v 0.002 c -8.52441,-2.38016 -15.86777,-7.74995 -20.68555,-15.125 z m 60.19726,0 c -5.22,7.99009 -13.33479,13.79605 -22.78515,15.79883 9.44858,-2.00365 17.56517,-7.80968 22.78515,-15.79883 z M 354.875,440.25 c 8.70307,0 15.58594,6.88071 15.58594,15.82422 0,8.9435 -6.88287,15.82422 -15.58594,15.82422 -8.70307,0 -15.58789,-6.88128 -15.58789,-15.82422 0,-8.94295 6.88482,-15.82422 15.58789,-15.82422 z m -25.06641,21.02148 c 2.04967,10.07033 9.93351,18.03124 19.91407,20.10157 -9.98658,-2.06767 -17.8661,-10.02485 -19.91407,-20.10157 z m 48.63868,4.83985 c -1.02777,2.45004 -2.50377,4.63472 -4.19141,6.63086 l -0.004,-0.004 c 1.68753,-1.99573 3.16707,-4.17848 4.19532,-6.62695 z m -12.01368,12.86719 0.004,0.004 c -2.01712,1.0421 -4.12877,1.91828 -6.41016,2.39063 2.27941,-0.47287 4.3902,-1.35222 6.40625,-2.39453 z m 455.89453,52.92382 c -8.31716,1.72541 -15.17842,7.54306 -18.41992,15.26172 3.23965,-7.72284 10.09682,-13.53846 18.41992,-15.26172 z m 10.30469,0 c 8.32311,1.72326 15.18027,7.53888 18.41992,15.26172 -3.2415,-7.71866 -10.10275,-13.53631 -18.41992,-15.26172 z m -395.06836,6 c -2.2794,0.47287 -4.39019,1.35222 -6.40625,2.39453 l -0.002,-0.004 c 2.01669,-1.04171 4.12739,-1.91839 6.4082,-2.39063 z m 10.30469,0 c 9.98658,2.06767 17.86609,10.02485 19.91406,20.10157 -2.04967,-10.07033 -9.93351,-18.03124 -19.91406,-20.10157 z m 379.61133,3.47461 c 8.70307,0 15.58594,6.88072 15.58594,15.82422 0,8.94351 -6.88344,15.82617 -15.58594,15.82617 -8.7025,0 -15.58594,-6.88266 -15.58594,-15.82617 0,-8.9435 6.88287,-15.82422 15.58594,-15.82422 z m -404.14453,5.15625 0.004,0.004 c -1.68752,1.99573 -3.16706,4.17848 -4.19531,6.62695 1.02777,-2.45004 2.50377,-4.63472 4.19141,-6.63086 z m 19.38086,0.84375 c 8.70305,0 15.58789,6.88128 15.58789,15.82422 0,8.94294 -6.88541,15.82617 -15.58789,15.82617 -8.7025,0 -15.58594,-6.88266 -15.58594,-15.82617 0,-8.9435 6.88287,-15.82422 15.58594,-15.82422 z m 359.69922,15.02149 c 1.56002,7.66621 6.56331,14.00701 13.23632,17.56054 l -0.002,0.004 c -6.67502,-3.55142 -11.67551,-9.89298 -13.23437,-17.56445 z m 50.1289,0 c -2.04771,10.07719 -9.92796,18.03559 -19.91406,20.10351 9.98134,-2.07013 17.86467,-10.03248 19.91406,-20.10351 z m -434.89258,6 c 0.94042,4.62138 3.17466,8.73974 6.21094,12.10742 l -0.002,0.006 c -3.03665,-3.36755 -5.26918,-7.48832 -6.20899,-12.11328 z m 253.26172,3.24414 c -1.96966,1.34405 -3.80504,2.87515 -5.48047,4.5664 1.67595,-1.69187 3.50996,-3.22207 5.48047,-4.5664 z m 41.39453,0 c 1.97052,1.34433 3.80452,2.87453 5.48047,4.5664 -1.67542,-1.69125 -3.5108,-3.22235 -5.48047,-4.5664 z m -245.84179,1.02539 h 0.002 c -3.14033,7.99687 -10.07966,14.06967 -18.59961,15.83398 8.5136,-1.76625 15.45522,-7.84239 18.59766,-15.83398 z m 225.14453,2.58594 c 15.01278,0 27.0293,12.0657 27.02929,27.375 10e-6,15.30928 -12.01614,27.37304 -27.02929,27.37304 -15.01315,0 -27.0293,-12.06376 -27.0293,-27.37304 0,-15.3093 12.01651,-27.375 27.0293,-27.375 z m -259.71094,11.26171 c 1.79818,0.85485 3.67018,1.5724 5.66602,1.98633 -1.99659,-0.41345 -3.86953,-1.13018 -5.66797,-1.98437 z m 225.59375,1.57422 c -0.4462,1.06378 -0.67872,2.22668 -1.02734,3.33789 h -0.002 c 0.34854,-1.11144 0.58318,-2.27393 1.0293,-3.33789 z m 68.23438,0 c 1.87437,4.47018 2.91211,9.38382 2.9121,14.53907 0,5.15459 -1.0382,10.06757 -2.9121,14.53711 -0.93745,2.23594 -2.08433,4.36058 -3.41602,6.3496 1.3316,-1.98847 2.47844,-4.1145 3.41602,-6.3496 1.87514,-4.47021 2.9121,-9.38249 2.9121,-14.53711 10e-6,-5.15463 -1.03699,-10.06867 -2.9121,-14.53907 z m -139.61524,2.76172 58.75586,8.92774 c -0.0584,0.96101 -0.28711,1.87464 -0.28711,2.84961 0,26.01314 21.11103,47.37304 47.0293,47.37304 11.13947,0 21.25319,-4.10895 29.32226,-10.67383 l 8.35352,6.61524 c -9.47236,11.74571 -15.17383,26.68982 -15.17383,42.92383 0,9.18073 1.83998,17.94279 5.13281,25.95703 l -96.00195,38.51172 c -9.36959,-17.26134 -26.58612,-29.60077 -46.77148,-32.16211 z m 68.46875,11.77735 c 0,5.15462 1.03696,10.0669 2.91211,14.53711 0.93757,2.2351 2.08441,4.36113 3.41602,6.3496 -1.3317,-1.98902 -2.47858,-4.11366 -3.41602,-6.3496 -1.8739,-4.46954 -2.91211,-9.38252 -2.91211,-14.53711 z m -406.84961,14.10546 c -8.31716,1.72541 -15.17842,7.54306 -18.41992,15.26172 3.23965,-7.72284 10.09681,-13.53845 18.41992,-15.26172 z m 10.30469,0 c 9.98657,2.06767 17.86609,10.02486 19.91406,20.10157 -2.04967,-10.07032 -9.93351,-18.03124 -19.91406,-20.10157 z m 402.87305,6.78321 c 3.99444,5.96435 9.65017,10.70569 16.29296,13.54492 -6.64425,-2.83875 -12.2987,-7.57966 -16.29296,-13.54492 z m 61.40234,0 c -0.60636,0.90557 -1.37803,1.67274 -2.05859,2.51953 l -0.002,-0.002 c 0.68049,-0.84661 1.45423,-1.61225 2.06055,-2.51758 z m -469.42773,2.6914 c 8.70305,0 15.58789,6.88128 15.58789,15.82422 0,8.94294 -6.88541,15.82618 -15.58789,15.82617 -8.7025,0 -15.58594,-6.88266 -15.58594,-15.82617 0,-8.9435 6.88287,-15.82422 15.58594,-15.82422 z m 460.10742,6.83204 0.002,0.002 c -2.17827,1.56415 -4.48266,2.95485 -6.97461,4.01953 2.49124,-1.06479 4.79478,-2.45743 6.97266,-4.02148 z m 36.55468,7.55468 c -1.9204,1.30986 -3.72434,2.77322 -5.4707,4.30078 l -0.002,-0.002 c 1.74696,-1.52813 3.5515,-2.98858 5.47265,-4.29883 z m 64.49219,0 c 4.60299,3.13927 8.73287,6.93094 12.25977,11.24414 -3.52648,-4.3124 -7.65767,-8.10517 -12.25977,-11.24414 z m -32.24609,0.0547 c 26.41176,0 47.67969,21.40457 47.67969,48.2168 0,26.81223 -21.26816,48.21875 -47.67969,48.21875 -26.41154,0 -47.67969,-21.40652 -47.67969,-48.21875 0,-26.81223 21.26793,-48.2168 47.67969,-48.2168 z m -553.97266,6.58008 c 2.04939,10.07103 9.93273,18.03339 19.91406,20.10351 -9.9861,-2.06792 -17.86635,-10.02632 -19.91406,-20.10351 z m 50.13086,0 c -0.352,1.73197 -0.88869,3.39481 -1.5664,4.98242 h -0.002 c 0.67894,-1.58847 1.21574,-3.24983 1.56836,-4.98242 z m -7.21875,13.24805 0.004,0.002 c -3.44289,3.39456 -7.80901,5.84085 -12.69922,6.85351 4.88625,-1.01371 9.25286,-3.46173 12.69531,-6.85546 z m 97.74414,0.33593 c 1.41099,0.44321 2.78576,0.96725 4.14063,1.5293 l -0.002,0.002 c -1.35447,-0.56196 -2.72811,-1.08806 -4.13867,-1.53125 z m 362.59961,0.3086 c -1.77603,3.29896 -3.24534,6.79089 -4.36914,10.43554 1.1238,-3.64538 2.5929,-7.13603 4.36914,-10.43554 z m 101.4336,0 c 1.77624,3.29951 3.24533,6.79016 4.36914,10.43554 -1.1238,-3.64465 -2.59311,-7.13658 -4.36914,-10.43554 z m -479.01368,7.40429 c 22.38477,0 40.38672,18.1073 40.38672,40.85547 0,22.74817 -18.00195,40.85547 -40.38672,40.85547 -22.38475,0 -40.38476,-18.10704 -40.38476,-40.85547 0,-22.74842 18.00001,-40.85547 40.38476,-40.85547 z m 35.625,4.90039 c 4.55975,4.60235 8.25027,10.08238 10.80078,16.16602 -2.55068,-6.08351 -6.2409,-11.56351 -10.80078,-16.16602 z m 99.125,3.81641 c -8.31716,1.7254 -15.17842,7.54305 -18.41992,15.26172 3.23965,-7.72284 10.09681,-13.53846 18.41992,-15.26172 z m 10.30469,0 c 9.98658,2.06767 17.86609,10.02485 19.91406,20.10156 -2.04967,-10.07032 -9.93351,-18.03124 -19.91406,-20.10156 z m -5.15234,9.47461 c 8.70305,0 15.58789,6.88128 15.58789,15.82422 0,8.94294 -6.88541,15.82617 -15.58789,15.82617 -8.7025,0 -15.58594,-6.88267 -15.58594,-15.82617 0,-8.94351 6.88287,-15.82422 15.58594,-15.82422 z m -25.06446,21.02148 c 2.04939,10.07104 9.93273,18.03339 19.91407,20.10352 -9.9861,-2.06793 -17.86636,-10.02633 -19.91407,-20.10352 z m 50.13086,0 c -0.7477,3.67897 -2.32792,7.02845 -4.44922,9.95899 l -0.002,-0.004 c 2.12164,-2.93038 3.70289,-6.27839 4.45117,-9.95508 z m -11.78125,16.76368 0.002,0.002 c -2.48099,1.53478 -5.19324,2.72876 -8.13477,3.33789 2.93963,-0.60986 5.65254,-1.80458 8.13281,-3.33984 z m 230.60352,1.39062 c 1.17566,1.43782 2.41971,2.8176 3.72461,4.13477 -1.30525,-1.31744 -2.54867,-2.6966 -3.72461,-4.13477 z m 89.01172,0 c -1.17594,1.43817 -2.41936,2.81733 -3.72461,4.13477 1.3049,-1.31717 2.54894,-2.69695 3.72461,-4.13477 z m -426.37696,3.27734 c -2.55051,6.08364 -6.24103,11.56368 -10.80078,16.16602 4.55988,-4.6025 8.2501,-10.0825 10.80078,-16.16602 z m 153.29493,3.82227 c -5.85179,1.8382 -11.13521,4.8444 -15.90235,8.50586 4.76715,-3.66141 10.05023,-6.66777 15.90235,-8.50586 z m 30.98828,0 c 8.15816,2.5624 15.45836,7.09707 21.35351,13.04688 2.35856,2.38042 4.4914,4.9862 6.36524,7.78515 -1.87365,-2.79856 -4.00703,-5.40494 -6.36524,-7.78515 -5.89551,-5.95053 -13.19512,-10.48411 -21.35351,-13.04688 z m 160.90234,0.79297 c 2.84849,2.37311 5.92679,4.47662 9.19531,6.26953 -3.26908,-1.793 -6.34642,-3.89615 -9.19531,-6.26953 z m 73.3711,0 c -2.84889,2.37338 -5.92624,4.47653 -9.19532,6.26953 3.26853,-1.79291 6.34682,-3.89642 9.19532,-6.26953 z m -249.76758,6.8418 c 23.3405,0 42.11718,18.88894 42.11718,42.60156 0,23.71261 -18.77693,42.60351 -42.11718,42.60351 -23.34025,0 -42.11719,-18.8909 -42.11719,-42.60351 0,-23.71262 18.77669,-42.60156 42.11719,-42.60156 z m -308.73047,49.1875 c -6.61017,2.82532 -12.23798,7.54346 -16.21289,13.47851 3.97475,-5.93598 9.60127,-10.65364 16.21289,-13.47851 z m 14.33789,7.07421 c 14.91239,10e-6 26.8457,11.98152 26.8457,27.18946 0,15.20793 -11.93331,27.18945 -26.8457,27.18945 -14.91239,0 -26.84766,-11.98189 -26.84766,-27.18945 0,-15.20758 11.93527,-27.18945 26.84766,-27.18946 z m 26.4375,1.37305 c 1.49828,1.56294 2.90081,3.22329 4.11133,5.03125 -1.21048,-1.80756 -2.6152,-3.46655 -4.11328,-5.0293 z m 4.11133,5.0332 c 2.64911,3.95697 4.56472,8.45401 5.54687,13.29297 -0.9826,-4.83807 -2.89726,-9.33605 -5.54687,-13.29297 z m 547.54297,4.38282 c -6.6428,2.83922 -12.29853,7.58057 -16.29297,13.54492 3.99426,-5.96527 9.64871,-10.70617 16.29297,-13.54492 z m 28.8164,0 c 6.64426,2.83875 12.2987,7.57965 16.29297,13.54492 -3.99444,-5.96435 -9.65017,-10.7057 -16.29297,-13.54492 z m -355.72851,4.95703 c 3.74716,5.59682 8.53301,10.42668 14.07812,14.20898 6.93191,4.72824 15.05123,7.8183 23.8086,8.7168 -8.7578,-0.89841 -16.87674,-3.98882 -23.8086,-8.7168 -5.54549,-3.78238 -10.33099,-8.61168 -14.07812,-14.20898 z m 86.42578,0 c -3.74713,5.5973 -8.53264,10.4266 -14.07813,14.20898 -6.93186,4.72798 -15.0508,7.81839 -23.80859,8.7168 8.75736,-0.8985 16.87669,-3.98856 23.80859,-8.7168 5.54511,-3.7823 10.33097,-8.61216 14.07813,-14.20898 z m 254.89453,2.10351 c 15.01315,0 27.0293,12.06376 27.0293,27.37305 0,15.3093 -12.01652,27.375 -27.0293,27.375 -15.01279,0 -27.0293,-12.0657 -27.0293,-27.375 0,-15.30929 12.01615,-27.37305 27.0293,-27.37305 z m -30.70117,6.48633 c -1.3316,1.98848 -2.47844,4.11451 -3.41602,6.34961 0.93744,-2.23594 2.08432,-4.36058 3.41602,-6.34961 z m 61.40234,0 c 1.3317,1.98903 2.47857,4.11367 3.41602,6.34961 1.8739,4.46954 2.91211,9.38252 2.91211,14.53711 0,5.15525 -1.03774,10.06888 -2.91211,14.53906 1.87512,-4.47039 2.91211,-9.38444 2.91211,-14.53906 0,-5.15462 -1.03696,-10.0669 -2.91211,-14.53711 -0.93758,-2.2351 -2.08442,-4.36113 -3.41602,-6.34961 z m -587.10547,10.34375 c -0.98215,4.83896 -2.89776,9.336 -5.54687,13.29297 2.64961,-3.95692 4.56427,-8.4549 5.54687,-13.29297 z m 140.52149,9.05274 c -2.12361,0.44054 -4.10233,1.23243 -6,2.16992 l -0.002,-0.002 c 1.89855,-0.93712 3.87672,-1.72795 6.00196,-2.16797 z m 10.30468,0 c 8.32311,1.72326 15.18028,7.53888 18.41993,15.26172 -3.24151,-7.71867 -10.10276,-13.53632 -18.41993,-15.26172 z m 368.54883,1.49023 c 0,5.15462 1.03699,10.06867 2.91211,14.53906 -1.87437,-4.47018 -2.91211,-9.38381 -2.91211,-14.53906 z m -586.02148,2.75195 c 3.97491,5.93506 9.60272,10.65319 16.21289,13.47852 -6.61162,-2.82487 -12.23814,-7.54254 -16.21289,-13.47852 z m 61.09961,0 c -3.97441,5.93598 -9.60155,10.65368 -16.21289,13.47852 6.60989,-2.82537 12.23832,-7.54345 16.21289,-13.47852 z m 132.125,4.04102 0.002,0.004 c -1.8196,2.0781 -3.39141,4.38599 -4.47852,6.97461 1.08676,-2.59066 2.65645,-4.89985 4.47657,-6.97852 z m 19.0957,1.19141 c 8.70307,0 15.58594,6.88072 15.58594,15.82421 0,8.94351 -6.88287,15.82422 -15.58594,15.82422 -8.70307,0 -15.58594,-6.88071 -15.58594,-15.82422 0,-8.94349 6.88287,-15.82421 15.58594,-15.82421 z m 384.55273,18.43554 c 1.67543,1.69125 3.51081,3.22235 5.48047,4.56641 -1.97051,-1.34433 -3.80452,-2.87453 -5.48047,-4.56641 z m 52.35547,0 c -1.67595,1.69188 -3.50995,3.22208 -5.48047,4.56641 1.96967,-1.34406 3.80505,-2.87516 5.48047,-4.56641 z m -460.48047,7.42578 c 3.24151,7.71867 10.10276,13.53632 18.41993,15.26172 -8.32311,-1.72326 -15.18028,-7.53887 -18.41993,-15.26172 z m 47.14454,0 c -3.23965,7.72285 -10.09682,13.53846 -18.41993,15.26172 8.31717,-1.7254 15.17842,-7.54305 18.41993,-15.26172 z m 78.20898,70.49024 c -8.85749,3.78603 -15.95732,10.95663 -19.70703,19.89648 -1.87497,4.4702 -2.91211,9.38258 -2.91211,14.53711 0,-5.15466 1.03839,-10.06755 2.91211,-14.53711 3.74887,-8.94251 10.84726,-16.11104 19.70703,-19.89648 z m 28.81641,0 c 6.64426,2.83875 12.2987,7.57965 16.29297,13.54492 -3.99445,-5.96435 -9.65018,-10.70569 -16.29297,-13.54492 z m -14.40821,7.06055 c 15.01317,0 27.0293,12.06376 27.0293,27.37304 0,15.3093 -12.0165,27.37498 -27.0293,27.37498 -15.01278,0 -27.02734,-12.06532 -27.02734,-27.37498 0,-15.30964 12.01419,-27.37304 27.02734,-27.37304 z m 30.70118,6.48632 c 1.33169,1.98903 2.47857,4.11367 3.41601,6.34961 1.8739,4.46954 2.91211,9.38252 2.91211,14.53711 0,5.15525 -1.03773,10.06889 -2.91211,14.53906 1.87512,-4.47039 2.91211,-9.38444 2.91211,-14.53906 0,-5.15462 -1.03696,-10.0669 -2.91211,-14.53711 -0.93757,-2.2351 -2.08441,-4.36113 -3.41601,-6.34961 z m -64.81641,35.42774 c 2.81228,6.70436 7.50896,12.41286 13.41797,16.44526 -5.90996,-4.0321 -10.606,-9.7393 -13.41797,-16.44526 z m 60.29297,11.87886 c -1.67595,1.6919 -3.50995,3.2221 -5.48047,4.5664 1.96966,-1.344 3.80504,-2.8751 5.48047,-4.5664 z"
     transform="matrix(1.2474393,0,0,1.2474393,-105.51799,-99.100791)"
     inkscape:label="foreground" /></svg>
