<?xml version="1.0" encoding="UTF-8" standalone="no"?>
<svg
   width="1200"
   height="400"
   viewBox="0 0 1200 400"
   version="1.1"
   preserveAspectRatio="xMidYMid"
   id="svg28"
   sodipodi:docname="inkscape-template_1200x400.svg"
   inkscape:version="1.3.2 (091e20ef0f, 2023-11-25)"
   xml:space="preserve"
   xmlns:inkscape="http://www.inkscape.org/namespaces/inkscape"
   xmlns:sodipodi="http://sodipodi.sourceforge.net/DTD/sodipodi-0.dtd"
   xmlns:xlink="http://www.w3.org/1999/xlink"
   xmlns="http://www.w3.org/2000/svg"
   xmlns:svg="http://www.w3.org/2000/svg"><defs
     id="defs32"><linearGradient
       id="linearGradient118"
       inkscape:collect="always"><stop
         style="stop-color:#69ceff;stop-opacity:1;"
         offset="0"
         id="stop118" /><stop
         style="stop-color:#0100b7;stop-opacity:1;"
         offset="1"
         id="stop119" /></linearGradient><linearGradient
       inkscape:collect="always"
       xlink:href="#linearGradient118"
       id="linearGradient119"
       x1="2583.844"
       y1="92.597832"
       x2="2583.844"
       y2="1028.2578"
       gradientUnits="userSpaceOnUse"
       gradientTransform="matrix(0.18744522,0,0,0.18744522,-15.855382,94.950312)" /></defs><sodipodi:namedview
     id="namedview30"
     pagecolor="#ffffff"
     bordercolor="#666666"
     borderopacity="1.0"
     inkscape:pageshadow="2"
     inkscape:pageopacity="0.0"
     inkscape:pagecheckerboard="true"
     showgrid="false"
     inkscape:zoom="0.4308932"
     inkscape:cx="396.85008"
     inkscape:cy="106.75499"
     inkscape:window-width="1920"
     inkscape:window-height="971"
     inkscape:window-x="0"
     inkscape:window-y="40"
     inkscape:window-maximized="1"
     inkscape:current-layer="svg28"
     inkscape:showpageshadow="0"
     inkscape:deskcolor="#505050" /><path
     id="foreground"
     style="color:#000000;-inkscape-font-specification:Nemoy;fill:url(#linearGradient119);stroke-width:0.187445;stroke-linecap:square;stroke-linejoin:round;-inkscape-stroke:none"
     inkscape:label="foreground"
     d="m 89.868124,112.30766 c -2.440507,0 -4.895869,1.45383 -6.370942,4.26988 a 0.37392783,0.37392783 0 0 0 -0.0013,0.003 l -83.19643984,162.25799 0.0684627,-0.0937 c -0.17475245,0.17474 -0.20833428,0.35141 -0.25078153,0.54951 -0.04244816,0.1981 -0.06696742,0.421 -0.08383732,0.65717 -0.0337554883,0.47234 -0.03332870039,0.99556 -0.03332870039,1.38312 0,3.28742 2.49531289039,5.79983 5.54134899039,5.79983 2.2209842,0 4.1399889,-1.36274 4.9830417,-3.04488 l 0.0023,-0.004 32.006271,-62.22083 42.278058,62.26367 -0.01137,-0.0177 c 1.222396,2.03734 3.158417,3.0881 5.100559,3.0881 1.942136,0 3.87817,-1.05076 5.10056,-3.0881 l -0.01106,0.0169 42.276944,-62.51884 32.00702,62.47674 c 0.842,1.68401 2.77949,3.04892 5.24333,3.04892 3.04605,0 5.79982,-2.49165 5.79982,-5.79982 0,-0.93559 -0.55811,-1.97771 -1.33335,-3.27114 l -82.932427,-161.47321 -4.33e-4,-0.001 c -1.344022,-2.82115 -3.742298,-4.28107 -6.182453,-4.28107 z m 0,0.74759 c 2.145601,0 4.268169,1.25246 5.508036,3.85617 a 0.37392783,0.37392783 0 0 0 0.005,0.0103 l 82.93765,161.48295 a 0.37392783,0.37392783 0 0 0 0.0116,0.0215 c 0.7676,1.27929 1.23854,2.29902 1.23854,2.90796 0,2.89275 -2.41371,5.05188 -5.05187,5.05188 -2.18687,0 -3.86623,-1.21877 -4.57447,-2.63523 a 0.37392783,0.37392783 0 0 0 -0.001,-0.004 l -32.29702,-63.04272 a 0.37392783,0.37392783 0 0 0 -0.64252,-0.0388 l -42.631328,63.04287 a 0.37392783,0.37392783 0 0 0 -0.011,0.0173 c -1.102958,1.83826 -2.784072,2.7253 -4.45914,2.7253 -1.675075,0 -3.356553,-0.88704 -4.459511,-2.7253 a 0.37392783,0.37392783 0 0 0 -0.01106,-0.0176 L 42.79809,220.92337 a 0.37392783,0.37392783 0 0 0 -0.641781,0.0388 l -32.2965469,62.7847 a 0.37392783,0.37392783 0 0 0 -0.00195,0.004 c -0.7082317,1.41649 -2.4051699,2.63524 -4.3163633,2.63524 -2.6381555,0 -4.79339845,-2.13837 -4.79339845,-5.05187 0,-0.38757 2.9919e-4,-0.89774 0.0311013,-1.3297 0.0154133,-0.21598 0.0393431,-0.41289 0.069559,-0.55392 0.0302184,-0.14102 0.0935254,-0.22277 0.0479619,-0.1772 a 0.37392783,0.37392783 0 0 0 0.0684631,-0.0941 L 84.159823,116.92423 c 1.367034,-2.60977 3.562688,-3.86898 5.708301,-3.86898 z m 0.161448,15.46533 a 0.37392783,0.37392783 0 0 0 -0.332787,0.20282 l -41.856297,81.38747 a 0.37392783,0.37392783 0 0 0 0.02306,0.38076 l 41.85629,61.75112 a 0.37392783,0.37392783 0 0 0 0.620185,-10e-4 l 41.597827,-62.00938 a 0.37392783,0.37392783 0 0 0 0.0223,-0.37892 L 90.361977,128.72402 a 0.37392783,0.37392783 0 0 0 -0.332417,-0.20319 z m -4.39e-4,1.1924 41.165277,80.28513 -41.166541,61.36635 -41.420642,-61.10898 z m 5.788123,34.30906 c -4.806709,0 -8.678487,4.04119 -8.678487,8.91134 0,4.20428 2.891105,7.77739 6.772555,8.67959 l -1.622426,21.93219 -18.509848,-2.81314 c 0.0025,-0.0721 0.02156,-0.1397 0.02156,-0.21234 0,-3.68171 -2.996177,-6.71509 -6.670775,-6.71509 -1.241878,0 -2.392401,0.36859 -3.389772,0.96945 l -8.224859,-9.76435 c 1.119781,-1.20386 1.819536,-2.80721 1.819536,-4.57045 0,-3.68164 -2.995808,-6.71508 -6.670417,-6.71508 -3.674605,0 -6.670782,3.03338 -6.670782,6.71508 0,3.68171 2.996177,6.71508 6.670782,6.71508 1.241936,0 2.392361,-0.36889 3.389758,-0.96981 l 8.224894,9.76473 c -1.119781,1.20386 -1.819536,2.8072 -1.819536,4.57044 0,1.91534 0.821779,3.64303 2.117177,4.87174 l -7.585304,12.11255 c -1.403519,-0.63149 -2.952747,-0.99031 -4.585458,-0.99031 -3.760352,0 -7.089343,1.87239 -9.148934,4.72677 l -3.80602,-2.89551 c 0.473421,-0.92095 0.766619,-1.94814 0.766619,-3.04855 0,-3.68172 -2.996169,-6.71508 -6.670782,-6.71508 -3.67461,0 -6.670413,3.03344 -6.670413,6.71508 0,3.68163 2.995734,6.71544 6.670413,6.71544 1.905754,0 3.617316,-0.82609 4.83477,-2.12523 l 3.90194,2.96837 c -0.758667,1.5301 -1.196434,3.24724 -1.196434,5.06578 0,3.68262 1.759043,6.96419 4.468671,9.05375 l -3.444674,4.9219 c -1.330808,-0.82121 -2.877203,-1.32164 -4.546645,-1.32164 -4.839396,0 -8.781373,3.98843 -8.781373,8.84544 0,4.85702 3.941977,8.84544 8.781373,8.84544 4.839391,0 8.781003,-3.98847 8.781003,-8.84544 0,-2.5071 -1.062485,-4.76895 -2.744314,-6.38411 l 3.525575,-5.03687 c 1.577772,0.84447 3.37296,1.32859 5.27922,1.32859 1.812147,0 3.520218,-0.44395 5.04052,-1.21216 l 9.543598,14.35347 c -1.244567,1.22327 -2.024189,2.92204 -2.024189,4.79413 0,3.68164 2.995806,6.71508 6.670417,6.71508 3.674611,0 6.670417,-3.03344 6.670417,-6.71508 0,-3.68164 -2.995806,-6.71509 -6.670417,-6.71509 -1.134455,0 -2.187811,0.31604 -3.124696,0.82411 L 57.044741,237.1341 c 2.829779,-2.07929 4.680275,-5.43575 4.680275,-9.21337 0,-3.95913 -2.027257,-7.46203 -5.090312,-9.50955 l 7.477676,-11.9412 c 0.910667,0.47238 1.926438,0.76516 3.017431,0.76516 2.955191,0 5.442101,-1.97473 6.314189,-4.65795 l 18.706086,2.8428 -1.82173,24.63 c -2.563131,0.0928 -4.916067,1.02095 -6.799652,2.52905 l -1.725814,-1.76317 c 0.921928,-1.15325 1.497734,-2.59579 1.497734,-4.17723 0,-3.68172 -2.996178,-6.71509 -6.670782,-6.71509 -3.674604,0 -6.670417,3.03345 -6.670417,6.71509 0,3.68163 2.995737,6.71544 6.670417,6.71544 1.423875,0 2.738675,-0.46414 3.823962,-1.23634 l 1.712258,1.74925 c -1.895274,2.08991 -3.062815,4.85884 -3.062815,7.89613 0,6.15412 4.756215,11.23322 10.766379,11.6897 l 0.549519,16.58157 c -4.385502,0.50835 -7.818886,4.24403 -7.818886,8.77772 0,4.87599 3.956753,8.88022 8.815056,8.88022 4.858308,0 8.815425,-4.00417 8.815425,-8.88022 0,-4.57411 -3.495018,-8.33592 -7.93677,-8.7898 l -0.548802,-16.57536 c 4.753626,-0.41103 8.701242,-3.71601 10.099352,-8.14616 l 36.02793,6.88311 c -0.0146,0.20744 -0.0623,0.40558 -0.0623,0.61652 0,4.87604 3.95712,8.88021 8.81541,8.88021 4.85832,0 8.81544,-4.00417 8.81544,-8.88021 0,-4.87604 -3.95716,-8.87985 -8.81544,-8.87985 -4.00231,0 -7.35459,2.73373 -8.42514,6.41744 l -35.94848,-6.86775 c 0.0818,-0.55906 0.13839,-1.12611 0.13839,-1.70714 0,-1.36174 -0.2446,-2.66584 -0.67217,-3.88473 l 18.09542,-7.25912 c 2.21914,3.72754 6.2566,6.24318 10.87439,6.24318 6.99538,0 12.68624,-5.75453 12.68624,-12.78728 0,-5.20081 -3.11652,-9.69484 -7.56701,-11.68713 l 2.36173,-6.38851 c 0.35453,0.0593 0.71222,0.11093 1.08293,0.11093 3.6747,0 6.67042,-3.03382 6.67042,-6.71545 0,-3.68164 -2.9958,-6.71509 -6.67042,-6.71509 -3.67459,0 -6.6704,3.03345 -6.6704,6.71509 0,2.64854 1.56233,4.94186 3.80053,6.03155 l -2.34014,6.33104 c -1.07029,-0.29726 -2.19142,-0.46934 -3.35388,-0.46934 -3.29541,0 -6.2914,1.28759 -8.54926,3.37365 l -1.52958,-1.21107 c 1.2249,-1.52661 1.99014,-3.43961 1.99014,-5.54062 0,-4.87604 -3.95711,-8.88021 -8.81542,-8.88021 -4.03153,0 -7.40586,2.77288 -8.45005,6.4976 l -11.186297,-1.70018 1.626234,-21.98675 c 0.01483,9e-5 0.0284,0.004 0.04323,0.004 4.806753,0 8.678853,-4.04149 8.678853,-8.9117 0,-4.87021 -3.87215,-8.91134 -8.678853,-8.91134 z m -1.371062,2.0176 c -0.885505,0.18777 -1.708507,0.55367 -2.432388,1.05987 0.723906,-0.50607 1.546801,-0.87221 2.432388,-1.05987 z m 2.742118,0 c 0.885618,0.18766 1.708444,0.5538 2.432394,1.05987 -0.723925,-0.5062 -1.546864,-0.8721 -2.432394,-1.05987 z m -5.174877,1.05987 c -0.361902,0.2531 -0.69897,0.54153 -1.006784,0.85998 -0.615666,0.63697 -1.114138,1.39502 -1.458558,2.23653 0.344357,-0.8416 0.842936,-1.5996 1.458558,-2.23653 0.307909,-0.31856 0.644718,-0.60683 1.006784,-0.85998 z m 7.607636,0 c 1.086039,0.75926 1.949069,1.83399 2.465719,3.09651 -0.51668,-1.26223 -1.37987,-2.33718 -2.465719,-3.09651 z m -3.803815,0.67144 c 2.71176,0 4.929964,2.25008 4.929964,5.16243 0,2.91234 -2.21828,5.16279 -4.929964,5.16279 -2.711684,0 -4.929591,-2.25038 -4.929591,-5.16279 0,-2.91241 2.217832,-5.16243 4.929591,-5.16243 z m -46.118761,7.92615 c -1.87081,0.38807 -3.3486,1.8803 -3.732798,3.76794 0.383887,-1.88884 1.860861,-3.38037 3.732798,-3.76794 z m 1.931563,0 c 1.560124,0.32301 2.845472,1.41312 3.452734,2.86073 -0.607609,-1.44682 -1.893724,-2.53731 -3.452734,-2.86073 z m 38.545265,1.16897 c 0.903038,1.38222 2.279875,2.38841 3.877402,2.83474 v 3e-4 c -1.59786,-0.44614 -2.974346,-1.45269 -3.877402,-2.83511 z m 11.283677,0 c -0.97846,1.4977 -2.499533,2.586 -4.270964,2.96142 1.771091,-0.37558 3.292504,-1.46389 4.270964,-2.96142 z m -50.79473,0.607 c 1.631356,0 2.921514,1.28975 2.921514,2.96617 0,1.67642 -1.290158,2.96617 -2.921514,2.96617 -1.631344,0 -2.921866,-1.28985 -2.921866,-2.96617 0,-1.67631 1.290522,-2.96617 2.921866,-2.96617 z m -4.698573,3.94038 c 0.384198,1.88763 1.861988,3.37987 3.732798,3.76794 -1.871937,-0.38758 -3.348911,-1.87911 -3.732798,-3.76794 z m 9.117095,0.9072 c -0.19266,0.45925 -0.469326,0.86876 -0.785664,1.24293 l -4.38e-4,-4.4e-4 c 0.31632,-0.3741 0.593648,-0.78324 0.786396,-1.2422 z m -2.251913,2.41189 4.38e-4,4.4e-4 c -0.378099,0.19534 -0.773917,0.35957 -1.201553,0.44811 0.427268,-0.0886 0.82292,-0.25347 1.200821,-0.44884 z m 85.455261,9.92032 c -1.55903,0.32342 -2.84514,1.41391 -3.45273,2.86074 0.60724,-1.44762 1.89259,-2.53773 3.45273,-2.86074 z m 1.93156,0 c 1.56012,0.32301 2.84546,1.41312 3.45272,2.86074 -0.60761,-1.44683 -1.89371,-2.53732 -3.45272,-2.86074 z m -74.053682,1.12467 c -0.427258,0.0886 -0.822914,0.25347 -1.200822,0.44884 l -2.95e-4,-4.4e-4 c 0.378015,-0.19525 0.773651,-0.35959 1.201187,-0.44811 z m 1.931572,0 c 1.871935,0.38758 3.348906,1.87911 3.732784,3.76795 -0.384199,-1.88764 -1.861974,-3.37988 -3.732784,-3.76795 z m 71.15632,0.6513 c 1.63136,0 2.92152,1.28976 2.92152,2.96618 0,1.67641 -1.29027,2.96653 -2.92152,2.96653 -1.63124,0 -2.92151,-1.29012 -2.92151,-2.96653 0,-1.67642 1.29017,-2.96618 2.92151,-2.96618 z m -75.754958,0.96652 4.4e-4,4.4e-4 c -0.316323,0.37409 -0.593658,0.78323 -0.786392,1.24218 0.192646,-0.45924 0.469315,-0.86875 0.785657,-1.24292 z m 3.632859,0.15816 c 1.631342,0 2.921866,1.28986 2.921866,2.96617 0,1.6763 -1.29063,2.96653 -2.921866,2.96653 -1.631249,0 -2.921515,-1.29011 -2.921515,-2.96653 0,-1.67642 1.290159,-2.96617 2.921515,-2.96617 z m 67.423899,2.8157 c 0.29242,1.437 1.23026,2.62554 2.48108,3.29164 v 4.4e-4 c -1.2512,-0.66571 -2.18851,-1.85439 -2.48071,-3.29238 z m 9.39642,0 c -0.38384,1.88892 -1.86095,3.38068 -3.7328,3.7683 1.87096,-0.38803 3.34864,-1.88054 3.7328,-3.7683 z m -81.518536,1.12467 c 0.176271,0.86626 0.595072,1.63822 1.164203,2.26948 l -2.95e-4,6.3e-4 c -0.569207,-0.63123 -0.987685,-1.40365 -1.163851,-2.27058 z m 47.472696,0.6081 c -0.3692,0.25193 -0.71324,0.53893 -1.02729,0.85594 0.31415,-0.31711 0.65792,-0.60396 1.02729,-0.85594 z m 7.75921,0 c 0.36936,0.25198 0.71314,0.53882 1.02728,0.85594 -0.31405,-0.31701 -0.65808,-0.604 -1.02728,-0.85594 z m -46.08187,0.19221 h 3.02e-4 c -0.588638,1.49897 -1.88938,2.63729 -3.486404,2.968 1.59583,-0.33107 2.897006,-1.47002 3.486033,-2.968 z m 42.20227,0.48472 c 2.81407,0 5.06651,2.26166 5.06651,5.13131 0,2.86965 -2.25237,5.13095 -5.06651,5.13095 -2.81415,0 -5.06652,-2.2613 -5.06652,-5.13095 0,-2.86966 2.25244,-5.13131 5.06652,-5.13131 z m -48.681584,2.11095 c 0.337061,0.16024 0.68796,0.29475 1.062067,0.37234 -0.374245,-0.0775 -0.72532,-0.21186 -1.062431,-0.37197 z m 42.286474,0.29509 c -0.0836,0.19938 -0.12722,0.41738 -0.19257,0.62567 h -3.8e-4 c 0.0653,-0.20834 0.10931,-0.42624 0.19294,-0.62567 z m 12.79021,0 c 0.35135,0.83791 0.54586,1.75894 0.54586,2.72527 0,0.9662 -0.1946,1.88713 -0.54586,2.7249 -0.17573,0.41913 -0.3907,0.81738 -0.64032,1.19021 0.2496,-0.37271 0.46458,-0.77124 0.64032,-1.19021 0.35149,-0.83791 0.54586,-1.75869 0.54586,-2.7249 0,-0.9662 -0.19437,-1.88731 -0.54586,-2.72527 z m -26.170201,0.51767 11.013501,1.67347 c -0.011,0.18013 -0.0539,0.35139 -0.0539,0.53414 0,4.87604 3.95717,8.87985 8.81542,8.87985 2.08804,0 3.98381,-0.7702 5.49631,-2.00075 l 1.56583,1.23999 c -1.77554,2.20167 -2.84426,5.00287 -2.84426,8.04586 0,1.72089 0.3449,3.36329 0.96212,4.86553 l -17.9951,7.21883 c -1.75629,-3.23555 -4.983438,-5.54852 -8.767099,-6.02864 z m 12.834141,2.2076 c 0,0.96621 0.19436,1.88699 0.54585,2.7249 0.17575,0.41897 0.39071,0.81749 0.64031,1.19021 -0.24961,-0.37282 -0.46459,-0.77108 -0.64031,-1.19021 -0.35125,-0.83778 -0.54585,-1.7587 -0.54585,-2.7249 z m -76.262028,2.64401 c -1.559011,0.3234 -2.845121,1.4139 -3.452728,2.86072 0.607256,-1.44761 1.892602,-2.53772 3.452728,-2.86072 z m 1.931566,0 c 1.871933,0.38757 3.34891,1.87911 3.732794,3.76794 -0.384203,-1.88763 -1.861988,-3.37987 -3.732794,-3.76794 z m 75.516622,1.27148 c 0.74874,1.11798 1.80888,2.00672 3.05404,2.53892 -1.24543,-0.5321 -2.30533,-1.42077 -3.05404,-2.53892 z m 11.50958,0 c -0.11366,0.16973 -0.2583,0.31353 -0.38587,0.47228 l -3e-4,-3.2e-4 c 0.12756,-0.15868 0.27259,-0.30221 0.38624,-0.47191 z m -87.991987,0.50449 c 1.631347,0 2.921877,1.28986 2.921877,2.96618 0,1.67631 -1.290638,2.96653 -2.921877,2.96653 -1.631239,0 -2.921509,-1.29011 -2.921509,-2.96653 0,-1.67642 1.290163,-2.96618 2.921509,-2.96618 z m 86.244937,1.28063 3e-4,3e-4 c -0.4083,0.2932 -0.84025,0.55388 -1.30735,0.75344 0.46697,-0.19959 0.89876,-0.46063 1.307,-0.7538 z m 6.85201,1.4161 c -0.35997,0.24552 -0.69811,0.51982 -1.02545,0.80616 l -3.9e-4,-3.2e-4 c 0.32745,-0.28643 0.6657,-0.56018 1.02581,-0.80579 z m 12.08875,0 c 0.86281,0.58842 1.63693,1.29916 2.29803,2.10766 -0.66102,-0.80835 -1.4354,-1.51928 -2.29803,-2.10766 z m -6.04437,0.0102 c 4.95075,0 8.93733,4.01217 8.93733,9.038 0,5.02582 -3.98663,9.03837 -8.93733,9.03837 -4.95072,0 -8.93733,-4.01256 -8.93733,-9.03837 0,-5.02583 3.98657,-9.038 8.93733,-9.038 z m -103.839539,1.23338 c 0.384147,1.88778 1.861844,3.38028 3.732796,3.76832 -1.871847,-0.38763 -3.348964,-1.8794 -3.732796,-3.76832 z m 9.396791,0 c -0.06598,0.32465 -0.16658,0.63635 -0.293616,0.93394 h -2.99e-4 c 0.127266,-0.29776 0.227885,-0.60917 0.293978,-0.93394 z m -1.353119,2.4833 9.42e-4,3.8e-4 c -0.645354,0.6363 -1.463761,1.09483 -2.38041,1.28466 0.915906,-0.19002 1.734406,-0.64888 2.37968,-1.28502 z m 18.321671,0.063 c 0.264485,0.0831 0.522182,0.1813 0.77614,0.28667 l -2.99e-4,3e-4 c -0.253891,-0.10535 -0.511369,-0.20395 -0.775775,-0.28703 z m 67.967576,0.0579 c -0.33291,0.61838 -0.60833,1.27292 -0.81898,1.9561 0.21065,-0.68331 0.48603,-1.33762 0.81898,-1.9561 z m 19.01324,0 c 0.33294,0.61848 0.60831,1.27279 0.81896,1.9561 -0.21063,-0.68318 -0.48605,-1.33772 -0.81896,-1.9561 z m -89.788831,1.3879 c 4.195919,0 7.570296,3.39413 7.570296,7.65817 0,4.26403 -3.374377,7.65816 -7.570296,7.65816 -4.195919,0 -7.569932,-3.39408 -7.569932,-7.65816 0,-4.26408 3.374013,-7.65817 7.569932,-7.65817 z m 6.677736,0.91855 c 0.854703,0.8627 1.54647,1.88989 2.024552,3.03026 -0.478108,-1.14034 -1.169831,-2.16753 -2.024552,-3.03026 z m 18.580517,0.71539 c -1.559024,0.3234 -2.845136,1.4139 -3.452733,2.86072 0.607245,-1.44762 1.892597,-2.53772 3.452733,-2.86072 z m 1.93156,0 c 1.871934,0.38756 3.348911,1.8791 3.73279,3.76794 -0.384206,-1.88763 -1.861987,-3.37987 -3.73279,-3.76794 z m -0.965786,1.77597 c 1.631349,0 2.921879,1.28986 2.921879,2.96617 0,1.6763 -1.290637,2.96654 -2.921879,2.96654 -1.631249,0 -2.921515,-1.29012 -2.921515,-2.96654 0,-1.67641 1.290166,-2.96617 2.921515,-2.96617 z m -4.698218,3.94037 c 0.384155,1.88776 1.861848,3.38026 3.732796,3.76831 -1.87184,-0.38762 -3.348955,-1.87939 -3.732796,-3.76831 z m 9.396794,0 c -0.140158,0.6896 -0.436352,1.31744 -0.833981,1.86675 l -3.01e-4,-4.3e-4 c 0.397691,-0.54929 0.694087,-1.17685 0.834344,-1.86602 z m -2.208336,3.14226 2.95e-4,3.9e-4 c -0.465046,0.28768 -0.97344,0.5115 -1.524819,0.62567 0.551015,-0.11431 1.059541,-0.33825 1.524448,-0.62603 z m 43.225534,0.26067 c 0.22037,0.26951 0.45355,0.52814 0.69816,0.77503 -0.24467,-0.24694 -0.47775,-0.50546 -0.69816,-0.77503 z m 16.68481,0 c -0.22042,0.26957 -0.45349,0.52809 -0.69815,0.77503 0.24459,-0.24689 0.47777,-0.50552 0.69815,-0.77503 z m -79.922323,0.61432 c -0.478082,1.14035 -1.169849,2.16756 -2.024552,3.03024 0.854721,-0.86271 1.546444,-1.88991 2.024552,-3.03024 z m 28.734405,0.71647 c -1.096887,0.34456 -2.087238,0.90806 -2.980818,1.59438 0.89358,-0.68631 1.883868,-1.24985 2.980818,-1.59438 z m 5.808611,0 c 1.529205,0.48031 2.89759,1.33031 4.00261,2.44557 0.442095,0.4462 0.841886,0.93465 1.193124,1.45929 -0.351194,-0.52458 -0.751092,-1.01313 -1.193124,-1.45929 -1.105089,-1.1154 -2.473361,-1.9652 -4.00261,-2.44557 z m 30.160367,0.14864 c 0.53395,0.44483 1.11096,0.83912 1.72362,1.17519 -0.61277,-0.33609 -1.1896,-0.73031 -1.72362,-1.17519 z m 13.75306,0 c -0.53401,0.44488 -1.11085,0.8391 -1.72361,1.17519 0.61266,-0.33607 1.18967,-0.73036 1.72361,-1.17519 z m -46.817736,1.28246 c 4.37507,0 7.894668,3.54064 7.894668,7.98546 0,4.44481 -3.519642,7.98581 -7.894668,7.98581 -4.375019,0 -7.894661,-3.541 -7.894661,-7.98581 0,-4.44482 3.519598,-7.98546 7.894661,-7.98546 z m -57.870108,9.21995 c -1.239044,0.52959 -2.293949,1.41399 -3.039027,2.52648 0.745048,-1.11266 1.79971,-1.99697 3.039027,-2.52648 z m 2.687571,1.32604 c 2.795254,0 5.032094,2.24587 5.032094,5.09652 0,2.85066 -2.23684,5.09654 -5.032094,5.09654 -2.795259,0 -5.032467,-2.24595 -5.032467,-5.09654 0,-2.85059 2.237208,-5.09652 5.032467,-5.09652 z m 4.955581,0.25736 c 0.280851,0.29296 0.543742,0.60419 0.770651,0.94308 -0.226904,-0.33882 -0.490207,-0.64979 -0.771014,-0.94272 z m 0.770651,0.94346 c 0.496565,0.7417 0.855636,1.58466 1.039734,2.49169 -0.184181,-0.90687 -0.543075,-1.75 -1.039734,-2.49169 z m 102.634311,0.82153 c -1.24516,0.5322 -2.3053,1.42094 -3.05404,2.53893 0.74871,-1.11816 1.80861,-2.00682 3.05404,-2.53893 z m 5.4015,0 c 1.24544,0.53211 2.30534,1.42077 3.05404,2.53893 -0.74874,-1.11799 -1.80888,-2.00673 -3.05404,-2.53893 z m -66.679611,0.92918 c 0.702389,1.04908 1.599469,1.95442 2.638875,2.66339 1.299359,0.8863 2.821281,1.46551 4.462804,1.63393 -1.641605,-0.1684 -3.163451,-0.74768 -4.462804,-1.63393 -1.039469,-0.70898 -1.936486,-1.61422 -2.638875,-2.66339 z m 16.200098,0 c -0.702376,1.04917 -1.599394,1.95441 -2.638869,2.66339 -1.299353,0.88625 -2.821206,1.46553 -4.46281,1.63393 1.641523,-0.16842 3.163457,-0.74763 4.46281,-1.63393 1.039406,-0.70897 1.936486,-1.61431 2.638869,-2.66339 z m 47.778763,0.39428 c 2.81416,0 5.06652,2.2613 5.06652,5.13095 2e-5,2.86965 -2.25242,5.13133 -5.0665,5.13133 -2.81408,0 -5.0665,-2.26168 -5.0665,-5.13132 0,-2.86966 2.25236,-5.13095 5.0665,-5.13095 z m -5.75479,1.21584 c -0.2496,0.37272 -0.46457,0.77124 -0.64032,1.19019 0.17573,-0.4191 0.39071,-0.81737 0.64032,-1.19019 z m 11.50958,0 c 0.24963,0.37282 0.4646,0.77109 0.64032,1.19019 0.35126,0.83781 0.54586,1.75873 0.54586,2.72492 3e-5,0.96633 -0.1945,1.88736 -0.54585,2.72527 0.35149,-0.83794 0.54588,-1.75906 0.54588,-2.72527 0,-0.96621 -0.19438,-1.88699 -0.54588,-2.72492 -0.17574,-0.41895 -0.39071,-0.81747 -0.64032,-1.1902 z m -110.050117,1.93888 c -0.184098,0.90705 -0.543169,1.74999 -1.039734,2.49171 0.496659,-0.74171 0.855553,-1.58483 1.039734,-2.49171 z m 26.340082,1.69689 c -0.39805,0.0826 -0.768958,0.23102 -1.12467,0.40674 l -2.96e-4,-2.9e-4 c 0.35587,-0.17567 0.726671,-0.3239 1.125035,-0.40638 z m 1.931566,0 c 1.560129,0.32302 2.845462,1.41313 3.452726,2.86074 -0.607603,-1.44683 -1.893709,-2.53731 -3.452726,-2.86074 z m 69.082739,0.27934 c 0,0.96621 0.19439,1.88733 0.54585,2.72527 -0.35134,-0.83791 -0.54585,-1.75894 -0.54585,-2.72527 z m -109.846931,0.51582 c 0.745078,1.1125 1.799982,1.99689 3.039028,2.52648 -1.239319,-0.5295 -2.293981,-1.41381 -3.039028,-2.52648 z m 11.45283,0 c -0.744985,1.11267 -1.799765,1.99698 -3.039029,2.52648 1.238989,-0.5296 2.294019,-1.41398 3.039029,-2.52648 z m 24.766196,0.75746 3.02e-4,4.4e-4 c -0.341077,0.38954 -0.635701,0.82214 -0.839479,1.30736 0.203703,-0.48561 0.497943,-0.91845 0.839114,-1.30809 z m 3.579405,0.22334 c 1.631355,0 2.921508,1.28975 2.921508,2.96616 0,1.67643 -1.290153,2.96619 -2.921508,2.96619 -1.631343,0 -2.921515,-1.28976 -2.921515,-2.96619 0,-1.67641 1.290172,-2.96616 2.921515,-2.96616 z m 72.08257,3.45565 c 0.31405,0.31702 0.65809,0.60402 1.02729,0.85595 -0.36936,-0.25198 -0.71313,-0.53881 -1.02729,-0.85595 z m 9.81379,0 c -0.31415,0.31714 -0.65792,0.60397 -1.02728,0.85595 0.36919,-0.25193 0.71322,-0.53893 1.02728,-0.85595 z m -86.314873,1.39193 c 0.607603,1.44684 1.893715,2.53731 3.452733,2.86073 -1.56013,-0.323 -2.845475,-1.4131 -3.452733,-2.86073 z m 8.837013,0 c -0.607252,1.44762 -1.892597,2.53772 -3.452714,2.86073 1.559011,-0.32342 2.845117,-1.41389 3.452714,-2.86073 z m 14.659908,13.21308 c -1.660295,0.70965 -2.991119,2.05374 -3.693985,3.72948 -0.351452,0.83792 -0.545868,1.75873 -0.545868,2.72492 0,-0.96621 0.194648,-1.88712 0.545868,-2.72492 0.702709,-1.67622 2.033263,-3.01993 3.693985,-3.72948 z m 5.401505,0 c 1.245434,0.5321 2.30532,1.42075 3.05403,2.5389 -0.748735,-1.11797 -1.808872,-2.00673 -3.05403,-2.5389 z m -2.700756,1.32346 c 2.814148,0 5.066505,2.26128 5.066505,5.13094 0,2.86965 -2.252432,5.1313 -5.066505,5.1313 -2.814073,0 -5.066141,-2.26157 -5.066141,-5.1313 0,-2.86973 2.251993,-5.13094 5.066141,-5.13094 z m 5.754786,1.21582 c 0.249622,0.37284 0.464599,0.77108 0.640313,1.19019 0.351257,0.8378 0.545867,1.75871 0.545867,2.72492 0,0.96632 -0.194516,1.88736 -0.545867,2.72528 0.351483,-0.83795 0.545867,-1.75907 0.545867,-2.72528 0,-0.96621 -0.194377,-1.887 -0.545867,-2.72492 -0.175732,-0.41895 -0.39071,-0.81746 -0.640313,-1.19019 z m -12.14952,6.64076 c 0.527153,1.2567 1.407517,2.32673 2.515132,3.08259 -1.107797,-0.75581 -1.988049,-1.82559 -2.515132,-3.08259 z m 11.301626,2.22663 c -0.314149,0.31714 -0.657928,0.60398 -1.02729,0.85596 0.369199,-0.25194 0.713236,-0.53893 1.02729,-0.85596 z M 186.99747,156.30702 v 64.57923 q 0,33.18036 10.46628,46.76425 10.68897,13.36123 29.17199,13.36123 18.48303,0 28.94931,-13.36123 10.68897,-13.5839 10.68897,-46.76425 v -64.57923 h 6.68062 v 64.57923 q 0,66.80609 -46.3189,66.80609 -46.31889,0 -46.31889,-66.80609 v -64.57923 z m 209.54853,0 v 6.68061 h -46.76427 v 122.47783 h -6.6806 V 162.98763 h -46.76427 v -6.68061 z m 90.63356,6.9033 q -7.57136,-2.44956 -18.70571,-2.44956 -11.13435,0 -18.70571,2.44956 -7.57135,2.22687 -14.02928,8.68479 -6.23523,6.23523 -9.35285,18.48302 -3.11761,12.0251 -3.11761,30.50812 0,18.48302 3.11761,30.73079 3.11762,12.0251 9.35285,18.48302 6.45793,6.23523 14.02928,8.68479 7.57136,2.22688 18.70571,2.22688 11.13435,0 18.70571,-2.22688 7.57135,-2.44956 13.80658,-8.68479 6.45793,-6.45792 9.57554,-18.48302 3.11762,-12.24778 3.11762,-30.7308 0,-18.48302 -3.11762,-30.50811 -3.11761,-12.24779 -9.57554,-18.48302 -6.23523,-6.45792 -13.80658,-8.68479 z m 21.15525,108.67125 q -12.02509,15.81077 -39.86096,15.81077 -27.83587,0 -39.86097,-15.81077 -12.02509,-15.81079 -12.02509,-50.99532 0,-35.18455 12.02509,-50.99532 12.0251,-15.81078 39.86097,-15.81078 27.83587,0 39.86096,15.81078 12.0251,15.81077 12.0251,50.99532 0,35.18453 -12.0251,50.99532 z m 69.70123,6.90329 h 85.95715 V 165.65988 l -50.10456,50.10457 -50.10456,-50.10457 v 119.80558 l -6.68061,-0.22269 V 156.30702 h 6.68061 l 50.10456,50.10458 50.10456,-50.10458 h 6.68064 v 129.15844 l -92.63779,-0.22269 z m 146.75081,0 h 72.59602 L 751.73201,171.22705 703.18625,285.46547 h -7.12594 l 55.6717,-131.38532 55.67176,131.38532 H 724.78685 Z M 916.2977,156.30702 v 6.68061 h -46.76424 v 122.47783 h -6.68058 V 162.98763 h -46.7643 v -6.68061 z m 37.41142,122.47783 h 72.59598 l -45.65089,-107.5578 -48.54575,114.23841 h -7.12601 l 55.67176,-131.38531 55.67179,131.38531 h -82.61688 z m 205.54008,-21.82332 q -6.0126,14.69734 -16.9242,22.71407 -10.9117,8.01673 -32.7351,8.01673 -27.3904,0 -39.6382,-16.70152 -12.2478,-16.92421 -12.2478,-52.55413 v -21.82332 q 0,-35.62991 12.2478,-52.33143 12.2478,-16.92421 39.6382,-16.92421 21.8234,0 32.7351,8.01673 10.9116,8.01673 16.9242,22.71407 l -6.0126,2.89493 q -5.1217,-12.91584 -14.4746,-19.81914 -9.3528,-7.12598 -29.1721,-7.12598 -10.9116,0 -18.7056,2.89493 -7.7941,2.67224 -14.0293,9.35285 -6.2352,6.68061 -9.3528,19.37377 -3.1176,12.47046 -3.1176,30.95348 v 21.82332 q 0,18.48303 3.1176,31.17618 3.1176,12.47047 9.3528,19.15108 6.2352,6.68061 14.0293,9.57554 7.794,2.67224 18.7056,2.67224 19.8193,0 29.1721,-6.9033 9.3529,-7.12598 14.4746,-20.04182 z m 40.7516,28.50393 h -6.6806 V 129.58459 h 6.6806 z" /></svg>
