<?xml version="1.0" encoding="UTF-8" standalone="no"?>
<!-- Created with Inkscape (http://www.inkscape.org/) -->

<svg
   width="493"
   height="312"
   viewBox="0 0 493 312"
   version="1.1"
   id="svg1"
   inkscape:version="1.3 (0e150ed6c4, 2023-07-21)"
   sodipodi:docname="inkspace-msi-dialog-493x312.svg"
   xml:space="preserve"
   inkscape:export-filename="../msi-dialog_ZH-HANS.jpg"
   inkscape:export-xdpi="96"
   inkscape:export-ydpi="96"
   xmlns:inkscape="http://www.inkscape.org/namespaces/inkscape"
   xmlns:sodipodi="http://sodipodi.sourceforge.net/DTD/sodipodi-0.dtd"
   xmlns:xlink="http://www.w3.org/1999/xlink"
   xmlns="http://www.w3.org/2000/svg"
   xmlns:svg="http://www.w3.org/2000/svg"><sodipodi:namedview
     id="namedview1"
     pagecolor="#ffffff"
     bordercolor="#000000"
     borderopacity="0.25"
     inkscape:showpageshadow="2"
     inkscape:pageopacity="0.0"
     inkscape:pagecheckerboard="true"
     inkscape:deskcolor="#d1d1d1"
     inkscape:document-units="px"
     labelstyle="default"
     inkscape:zoom="0.81330453"
     inkscape:cx="197.34305"
     inkscape:cy="147.54621"
     inkscape:window-width="1920"
     inkscape:window-height="971"
     inkscape:window-x="0"
     inkscape:window-y="40"
     inkscape:window-maximized="1"
     inkscape:current-layer="layer1" /><defs
     id="defs1"><linearGradient
       id="linearGradient17"
       inkscape:collect="always"><stop
         style="stop-color:#ff0400;stop-opacity:1;"
         offset="0"
         id="stop16" /><stop
         style="stop-color:#f9f900;stop-opacity:1;"
         offset="1"
         id="stop17" /></linearGradient><linearGradient
       id="linearGradient11"
       inkscape:collect="always"><stop
         style="stop-color:#fff300;stop-opacity:1;"
         offset="0"
         id="stop12" /><stop
         style="stop-color:#ff0000;stop-opacity:1;"
         offset="1"
         id="stop13" /></linearGradient><linearGradient
       id="swatch10"
       inkscape:swatch="solid"><stop
         style="stop-color:#803300;stop-opacity:1;"
         offset="0"
         id="stop11" /></linearGradient><linearGradient
       inkscape:collect="always"
       xlink:href="#linearGradient11"
       id="linearGradient13"
       x1="-7.883666"
       y1="150.07532"
       x2="553.46869"
       y2="292.50995"
       gradientUnits="userSpaceOnUse"
       gradientTransform="translate(1.6650391e-5)" /><linearGradient
       inkscape:collect="always"
       xlink:href="#linearGradient17"
       id="linearGradient15"
       gradientUnits="userSpaceOnUse"
       gradientTransform="translate(4.4e-5)"
       x1="-13.652417"
       y1="311.98792"
       x2="497.6705"
       y2="0.46635598" /></defs><g
     inkscape:label="Layer 1"
     inkscape:groupmode="layer"
     id="layer1"><rect
       style="mix-blend-mode:normal;fill:url(#linearGradient13);stroke-width:1.1255"
       id="rect1"
       width="493"
       height="312"
       x="0"
       y="0" /><path
       id="rect1-9"
       style="mix-blend-mode:normal;fill:url(#linearGradient15);stroke-width:1.1255"
       d="m 69.736329,2e-6 -2.316406,4.011719 23.083984,39.982422 h 46.166013 l 0.95899,-1.66211 22.125,-38.320312 L 157.4375,2e-6 h -7.67188 l 2.31641,4.011719 -19.24805,33.33789 H 94.339845 L 75.091798,4.011721 77.408204,2e-6 Z m 152.107421,0 -2.31641,4.011719 23.08399,39.982422 h 46.16601 l 0.95899,-1.66211 22.125,-38.320312 L 309.54492,2e-6 h -7.67187 l 2.3164,4.011719 -19.24804,33.33789 H 246.44727 L 227.19922,4.011721 229.51562,2e-6 Z m 152.74023,0 -2.3164,4.011719 23.08203,39.982422 h 46.16797 l 0.95898,-1.66211 L 464.59961,4.011721 462.2832,2e-6 h -7.67187 l 2.3164,4.011719 -19.24609,33.33789 H 399.18555 L 379.93945,4.011721 382.25586,2e-6 Z M 11.601563,6.14258 9.9999997e-7,26.23633 V 39.52344 L 15.437501,12.785158 H 53.931642 L 73.179689,46.123049 53.931642,79.460938 H 15.437501 L 9.9999997e-7,52.722658 v 13.28711 L 11.601563,86.103518 h 46.166016 l 0.958984,-1.66016 22.125,-38.320309 L 57.767579,6.14258 Z m 155.457027,0 -23.08398,39.980469 23.08398,39.980469 h 46.16602 l 0.95898,-1.66016 22.125,-38.320309 L 213.22461,6.14258 Z m 150.44922,0 -23.08398,39.980469 23.08398,39.980469 h 46.16602 l 0.95898,-1.66016 22.125,-38.320309 L 363.67383,6.14258 Z m 154.14649,0 -23.08203,39.980469 23.08203,39.980469 H 493 v -6.64258 H 475.49023 L 456.24414,46.123049 475.49023,12.785158 H 493 V 6.14258 Z m -300.75977,6.642578 h 38.49609 l 19.2461,33.337891 -19.2461,33.337889 H 170.89453 L 151.64844,46.123049 Z m 150.44727,0 h 38.49609 l 19.24805,33.337891 -19.24805,33.337889 H 321.3418 L 302.0957,46.123049 Z M 90.503907,48.871096 67.419923,88.851568 90.503907,128.83203 h 46.166013 l 0.95899,-1.66015 22.125,-38.320312 -23.08399,-39.980472 z m 152.107423,0 -23.08399,39.980472 23.08399,39.980462 h 46.16601 l 0.95899,-1.66015 22.125,-38.320312 -23.08399,-39.980472 z m 152.73828,0 -23.08203,39.980472 23.08203,39.980462 h 46.16797 l 0.95898,-1.66015 22.12305,-38.320312 -23.08203,-39.980472 z M 94.339845,55.513678 h 38.494135 l 19.24805,33.33789 -19.24805,33.337882 H 94.339845 L 75.091798,88.851568 Z m 152.107425,0 h 38.49414 l 19.24804,33.33789 -19.24804,33.337882 H 246.44727 L 227.19922,88.851568 Z m 152.73828,0 h 38.49609 l 19.24609,33.33789 -19.24609,33.337882 H 399.18555 L 379.93945,88.851568 Z M 11.601563,91.880858 1e-6,111.97461 v 13.28906 l 15.4375,-26.738282 H 53.931642 L 73.179689,131.86328 53.931642,165.20117 H 15.437501 L 9.9999997e-7,138.46289 V 151.75 L 11.601563,171.84375 h 46.166016 l 0.958984,-1.66016 22.125,-38.32031 -23.083984,-39.982422 z m 155.457027,0 -23.08398,39.982422 23.08398,39.98047 h 46.16602 l 0.95898,-1.66016 22.125,-38.32031 -23.08398,-39.982422 z m 150.44922,0 -23.08398,39.982422 23.08398,39.98047 h 46.16602 l 0.95898,-1.66016 22.125,-38.32031 -23.08398,-39.982422 z m 154.14649,0 -23.08203,39.982422 23.08203,39.98047 H 493 v -6.64258 H 475.49023 L 456.24414,131.86328 475.49023,98.525388 H 493 v -6.64453 z m -300.75977,6.64453 h 38.49609 l 19.2461,33.337892 -19.2461,33.33789 h -38.49609 l -19.24609,-33.33789 z m 150.44727,0 h 38.49609 l 19.24805,33.337892 -19.24805,33.33789 H 321.3418 L 302.0957,131.86328 Z M 90.503907,134.9668 67.419923,174.94922 90.503907,214.92969 h 46.166013 l 0.95899,-1.66016 22.125,-38.32031 -23.08399,-39.98242 z m 152.107423,0 -23.08399,39.98242 23.08399,39.98047 h 46.16601 l 0.95899,-1.66016 22.125,-38.32031 -23.08399,-39.98242 z m 152.73828,0 -23.08203,39.98242 23.08203,39.98047 h 46.16797 l 0.95898,-1.66016 22.12305,-38.32031 -23.08203,-39.98242 z m -301.009765,6.64453 h 38.494135 l 19.24805,33.33789 -19.24805,33.33789 H 94.339845 L 75.091798,174.94922 Z m 152.107425,0 h 38.49414 l 19.24804,33.33789 -19.24804,33.33789 h -38.49414 l -19.24805,-33.33789 z m 152.73828,0 h 38.49609 l 19.24609,33.33789 -19.24609,33.33789 h -38.49609 l -19.2461,-33.33789 z M 11.601563,177.12305 1e-6,197.2168 v 13.28906 l 15.4375,-26.73828 h 38.494141 l 19.248047,33.33789 -19.248047,33.33789 H 15.437501 L 9.9999997e-7,223.70508 v 13.28711 L 11.601563,257.08594 h 46.166016 l 0.958984,-1.66016 22.125,-38.32031 -23.083984,-39.98242 z m 155.457027,0 -23.08398,39.98242 23.08398,39.98047 h 46.16602 l 0.95898,-1.66016 22.125,-38.32031 -23.08398,-39.98242 z m 150.44922,0 -23.08398,39.98242 23.08398,39.98047 h 46.16602 l 0.95898,-1.66016 22.125,-38.32031 -23.08398,-39.98242 z m 154.14649,0 -23.08203,39.98242 23.08203,39.98047 H 493 v -6.64258 h -17.50977 l -19.24609,-33.33789 19.24609,-33.33789 H 493 v -6.64453 z m -300.75977,6.64453 h 38.49609 l 19.2461,33.33789 -19.2461,33.33789 h -38.49609 l -19.24609,-33.33789 z m 150.44727,0 h 38.49609 l 19.24805,33.33789 -19.24805,33.33789 H 321.3418 l -19.2461,-33.33789 z m -230.837893,37.45898 -23.083984,39.98242 23.083984,39.98047 h 46.166013 l 0.95899,-1.66015 22.125,-38.32032 -23.08399,-39.98242 z m 152.107423,0 -23.08399,39.98242 23.08399,39.98047 h 46.16601 l 0.95899,-1.66015 22.125,-38.32032 -23.08399,-39.98242 z m 152.73828,0 -23.08203,39.98242 23.08203,39.98047 h 46.16797 l 0.95898,-1.66015 22.12305,-38.32032 -23.08203,-39.98242 z m -301.009765,6.64453 h 38.494135 l 19.24805,33.33789 -19.24805,33.3379 H 94.339845 l -19.248047,-33.3379 z m 152.107425,0 h 38.49414 l 19.24804,33.33789 -19.24804,33.3379 h -38.49414 l -19.24805,-33.3379 z m 152.73828,0 h 38.49609 l 19.24609,33.33789 -19.24609,33.3379 h -38.49609 l -19.2461,-33.3379 z M 11.601563,265.52734 1e-6,285.62109 v 13.28711 l 15.4375,-26.73828 H 53.931642 L 73.179689,305.50781 69.431642,312 h 7.671875 l 3.748046,-6.49219 -23.083984,-39.98047 z m 155.457027,0 -23.08398,39.98047 3.74805,6.49219 h 7.67382 l -3.74804,-6.49219 19.24609,-33.33789 h 38.49609 l 19.2461,33.33789 L 224.88867,312 h 7.67188 l 3.74804,-6.49219 -23.08398,-39.98047 z m 150.44922,0 -23.08398,39.98047 3.74805,6.49219 h 7.67187 l -3.74805,-6.49219 19.2461,-33.33789 h 38.49609 L 379.08594,305.50781 375.33789,312 h 7.67188 l 3.74804,-6.49219 -23.08398,-39.98047 z m 154.14649,0 -23.08203,39.98047 3.74804,6.49219 h 7.67188 l -3.74805,-6.49219 19.24609,-33.33789 H 493 v -6.64258 z M 90.503907,305.56836 86.791017,312 h 53.591793 l -3.71289,-6.43164 z m 152.107423,0 L 238.89844,312 h 53.59179 l -3.71289,-6.43164 z m 152.73828,0 L 391.63672,312 h 53.59375 l -3.71289,-6.43164 z" /></g></svg>
