<?xml version="1.0" encoding="UTF-8" standalone="no"?>
<!-- Created with Inkscape (http://www.inkscape.org/) -->

<svg
   width="1200"
   height="400"
   viewBox="0 0 1200 400"
   version="1.1"
   id="svg1"
   inkscape:version="1.3 (0e150ed6c4, 2023-07-21)"
   sodipodi:docname="inkspace-logo-1200x400.svg"
   xml:space="preserve"
   xmlns:inkscape="http://www.inkscape.org/namespaces/inkscape"
   xmlns:sodipodi="http://sodipodi.sourceforge.net/DTD/sodipodi-0.dtd"
   xmlns="http://www.w3.org/2000/svg"
   xmlns:svg="http://www.w3.org/2000/svg"><sodipodi:namedview
     id="namedview1"
     pagecolor="#ffffff"
     bordercolor="#000000"
     borderopacity="0.25"
     inkscape:showpageshadow="2"
     inkscape:pageopacity="0.0"
     inkscape:pagecheckerboard="true"
     inkscape:deskcolor="#d1d1d1"
     inkscape:document-units="px"
     labelstyle="default"
     inkscape:zoom="0.57509314"
     inkscape:cx="539.04312"
     inkscape:cy="251.26365"
     inkscape:window-width="1920"
     inkscape:window-height="1001"
     inkscape:window-x="0"
     inkscape:window-y="0"
     inkscape:window-maximized="1"
     inkscape:current-layer="layer1" /><defs
     id="defs1" /><g
     inkscape:label="Layer 1"
     inkscape:groupmode="layer"
     id="layer1"><g
       id="g2"
       transform="translate(7.3570295,-3.3661015)"><path
         style="fill:#000080;stroke-width:0.623645"
         d="M 151.34508,334.02825 C 125.79125,323.41491 102.1787,313.58401 98.872733,312.18201 L 92.861892,309.63285 70.941666,256.65495 49.021441,203.6771 70.925926,151.14224 C 82.9734,122.24808 93.15694,98.281027 93.556021,97.882127 94.111035,97.327369 189.95464,57.002123 197.87858,53.989448 l 1.63953,-0.623345 51.84219,21.595359 c 28.51319,11.877448 52.41469,21.954439 53.11441,22.39331 l 1.27225,0.797948 22.02376,52.78041 22.02375,52.78041 -21.95114,52.84283 -21.95112,52.84281 -0.90247,0.71095 c -0.49637,0.39104 -24.1633,10.28358 -52.59317,21.98348 l -51.69067,21.27249 -1.44966,-0.0206 -1.44966,-0.0206 z m 41.16053,8.72535 c 0,-1.09448 -28.1964,-68.88237 -28.81722,-69.28038 l -0.58996,-0.37824 -2.91437,0.55124 -2.91436,0.55129 -4.36551,-0.64909 -4.36551,-0.6491 -4.60033,-2.24747 -4.60034,-2.2475 -18.33029,18.31469 -18.33029,18.31462 0.16761,0.87082 0.1676,0.87084 43.96693,18.23817 c 24.18181,10.03108 44.31773,18.26885 44.74648,18.30627 l 0.77956,0.068 z m 58.90688,-17.6863 c 24.33821,-10.07023 44.33414,-18.55822 44.43545,-18.86213 l 0.1842,-0.5526 -23.03943,-23.03311 -23.03947,-23.03318 -1.7512,0.82026 c -0.96315,0.45116 -3.29244,0.99474 -5.17616,1.20795 l -3.42497,0.38773 -16.65664,39.91323 c -16.18081,38.7731 -17.24106,41.47845 -16.25076,41.46685 0.25725,0 20.3808,-8.24477 44.71898,-18.315 z m -49.50692,10.1744 c 10.61667,-25.31424 31.13691,-75.50115 31.13691,-76.15234 v -0.84081 l -1.24365,-0.77667 -1.24366,-0.7767 -1.93861,-3.43503 -1.93862,-3.43503 -21.567,0.16395 -21.56701,0.1639 -0.72978,2.8614 c -0.40138,1.57377 -1.6694,4.62434 -2.81783,6.77902 l -2.08806,3.91754 -3.61511,3.18216 c -4.52886,3.98652 -5.9184,-0.18698 23.56626,70.78094 l 0.8649,2.08179 0.7487,-0.24958 0.74871,-0.24959 z M 113.634,284.60932 c 8.92393,-9.00387 17.17256,-17.40947 18.33029,-18.67915 l 2.10495,-2.30849 -2.21217,-4.23977 -2.21216,-4.2398 -0.75621,-3.70475 -0.75622,-3.70472 0.41514,-4.2129 0.41512,-4.2129 -1.74945,-0.88073 c -4.64669,-2.33931 -66.988122,-28.0146 -67.289549,-27.71316 -0.190291,0.19029 7.70252,19.94678 17.539582,43.90331 9.837065,23.95654 18.129609,44.18877 18.42788,44.96053 0.8309,2.14995 0.504283,2.42546 17.742797,-14.96747 z m 206.50698,-27.93733 c 9.73404,-23.82273 17.86349,-43.94547 18.06546,-44.71723 l 0.36717,-1.4032 h -0.41921 c -0.23054,0 -18.43139,7.46211 -40.4463,16.58247 l -40.02715,16.58247 -0.46043,0.72366 c -0.25325,0.39802 -0.46475,1.63172 -0.46999,2.74155 -0.005,1.10984 -0.36034,3.32954 -0.78913,4.93262 l -0.77955,2.91471 23.07486,22.65964 23.07483,22.65967 0.5556,-0.18122 c 0.30556,-0.0997 8.5198,-19.67248 18.25384,-43.49514 z m -92.40022,-15.77568 c 0.47909,-1.14662 1.88156,-3.29424 3.11661,-4.77249 l 2.24553,-2.68774 -0.2702,-0.68439 c -4.34335,-11.00109 -22.60672,-54.53276 -23.10407,-55.0697 l -0.69645,-0.75187 -2.49458,0.58108 -2.49458,0.5811 h -4.67733 -4.67733 l -2.49457,-0.5811 -2.49459,-0.58108 -0.68745,0.75187 c -0.82473,0.90204 -18.3337,43.24956 -18.3337,44.34226 v 0.76231 l 3.44566,2.97475 3.44565,2.97476 1.85002,3.22472 c 1.577,2.7488 2.28783,4.53638 4.07221,10.24072 l 0.24385,0.77956 h 21.56713 21.56712 z m 68.15143,-20.05611 38.83939,-16.10805 -0.20926,-0.62782 -0.20927,-0.62783 -20.85628,-5.49824 c -11.47092,-3.02404 -21.32448,-5.50142 -21.89677,-5.50531 l -1.0405,-0.007 -1.32207,2.13915 c -0.72712,1.17652 -2.3509,3.04247 -3.60835,4.14653 l -2.2863,2.0074 -3.44057,1.57514 -3.44056,1.57514 -5.13202,0.047 -5.13204,0.047 -0.59914,0.62364 c -0.64228,0.66855 -12.2454,25.02289 -13.31384,27.94513 l -0.64063,1.75205 1.47128,1.56609 1.47126,1.56609 1.25315,-0.25401 c 0.68922,-0.13971 18.73087,-7.50265 40.09252,-16.36208 z m -159.82971,6.84469 4.63368,-4.69423 -10.45018,-21.65475 -10.4502,-21.65475 -3.3692,-0.13107 -3.3692,-0.13107 -1.90415,-0.75738 c -1.04728,-0.41655 -2.64906,-1.26964 -3.55953,-1.89576 -2.37737,-1.63492 -1.22972,-2.21086 -22.14463,11.11294 -10.577295,6.73823 -20.316095,12.93619 -21.641775,13.77323 l -2.41033,1.5219 0.69048,0.69049 c 0.755414,0.75542 67.243655,28.35784 68.541625,28.45488 l 0.79972,0.0598 z m 109.30856,2.66738 c 0.92159,-1.13671 13.24088,-28.48007 13.24088,-29.38887 0,-0.42302 -1.01636,-1.73625 -2.25858,-2.9183 l -2.25856,-2.14918 -1.761,-3.67203 -1.761,-3.67203 -0.39136,-3.18807 -0.39132,-3.18805 0.58866,-2.58782 0.58866,-2.58781 -0.38734,-0.62389 c -0.21305,-0.34313 -5.39297,-3.35704 -11.51091,-6.69755 l -11.12354,-6.07368 -3.53211,3.71301 c -1.94265,2.04216 -4.62499,4.55823 -5.96075,5.59126 l -2.42865,1.87823 9.50588,23.02711 c 5.22823,12.6649 10.49388,25.34237 11.70141,28.17216 l 2.19552,5.14506 h 2.65605 2.65603 z m -86.34965,-11.35821 5.49356,-0.0233 8.98668,-21.51573 8.98668,-21.51573 0.002,-1.24729 0.002,-1.24729 -2.54686,-1.55911 -2.54687,-1.55911 -3.11563,-3.39712 -3.11563,-3.39712 -1.93831,-3.9307 -1.93832,-3.93071 -1.26935,0.0546 c -0.69814,0.0301 -8.55169,1.92438 -17.45232,4.2096 l -16.18298,4.15496 -0.71048,2.8064 c -0.7695,3.03953 -2.06957,5.64637 -4.0501,8.12103 l -1.2587,1.57276 10.46159,21.69445 10.46161,21.69444 3.11822,-0.48089 c 1.71501,-0.26448 5.59032,-0.49136 8.61177,-0.50418 z m 179.82843,-23.25405 c -0.20245,-0.94327 -8.0622,-20.51791 -17.46609,-43.4992 l -17.09797,-41.78418 h -0.74655 -0.74654 l -9.92932,26.08776 c -5.46111,14.34827 -9.92932,26.51099 -9.92932,27.02826 v 0.94048 l 2.76248,2.68481 2.76247,2.68482 1.63145,3.21948 1.63141,3.21948 0.48275,4.00981 c 0.2655,2.2054 0.67518,4.20226 0.91038,4.43748 0.37797,0.37796 44.17807,12.53295 45.55729,12.64263 l 0.54568,0.0434 z M 81.196981,182.80698 c 10.546239,-6.68441 19.525769,-12.4446 19.954509,-12.80042 l 0.77953,-0.64696 -0.31688,-3.94774 -0.31689,-3.94776 0.74303,-2.2514 0.74303,-2.2514 2.76516,-3.07553 2.76515,-3.07552 -0.004,-0.84383 c -0.006,-1.29227 -11.843062,-38.18823 -12.446786,-38.79718 l -0.530097,-0.53469 -0.644206,1.20371 c -1.114367,2.08221 -33.771791,81.87212 -33.771791,82.51257 0,1.21845 1.420383,0.40995 20.280336,-11.54385 z m 176.631099,-15.9137 2.83759,-2.49776 4.02795,-1.24411 4.02798,-1.24412 h 3.53413 3.53412 l 9.90262,-26.6608 c 5.44643,-14.66343 10.03061,-27.01159 10.18709,-27.44034 l 0.28445,-0.77956 h -0.7299 c -1.13773,0 -61.35045,25.04065 -62.30186,25.90945 l -0.84571,0.77229 0.68979,3.2164 0.6898,3.21641 v 4.08966 4.08968 l -1.04197,4.31705 -1.04198,4.31705 0.57425,0.54701 c 1.08175,1.03047 21.15346,11.87321 21.99427,11.88134 0.46187,0.004 2.1167,-1.11589 3.67738,-2.48965 z M 146.2025,153.47007 c 7.80198,-1.89644 15.26333,-3.73828 16.58076,-4.09298 l 2.39534,-0.64492 -0.37728,-3.54666 -0.37728,-3.54666 0.88522,-4.05369 0.88521,-4.05368 -0.41249,-0.44035 c -0.56485,-0.60299 -62.19343,-26.06454 -63.0881,-26.06454 h -0.71581 l 0.38535,1.71502 c 0.21194,0.94327 3.1277,10.27454 6.47946,20.73618 l 6.09411,19.02115 2.45703,0.52297 c 1.35136,0.28764 3.90673,1.18507 5.67859,1.99429 l 3.22156,1.47132 1.7676,2.21529 1.76758,2.2153 1.09386,10e-6 c 0.60163,2e-5 7.47731,-1.55161 15.27929,-3.44805 z m 25.07019,-29.24631 c 0.726,-1.1747 2.99507,-3.68662 5.04237,-5.58207 l 3.72236,-3.44625 3.98179,-1.90033 3.98178,-1.90033 3.6555,-0.83006 3.65551,-0.83007 0.16342,-23.493404 0.1634,-23.493405 h -0.48918 c -0.26906,0 -20.40835,8.20872 -44.75398,18.241597 l -44.2648,18.241599 0.0729,0.623645 0.0729,0.623648 30.79754,12.89718 c 16.93865,7.09345 31.26578,12.91673 31.83806,12.94062 l 1.04052,0.0434 z m 90.45744,-10.86076 30.8704,-12.91164 -0.0818,-0.610155 -0.0819,-0.610168 -44.17328,-18.241599 C 223.96826,70.956561 203.86579,62.747841 203.59142,62.747841 h -0.49886 l 0.16341,23.493405 0.16341,23.493404 3.60146,0.81779 c 4.73098,1.07428 9.69322,3.4636 13.58929,6.54327 l 3.1523,2.49175 2.61318,3.38368 2.61319,3.38367 0.93546,-0.0401 c 0.51451,-0.0221 14.82716,-5.85032 31.80587,-12.95172 z"
         id="path1" /><path
         style="font-weight:200;font-size:146.667px;font-family:'Noto Serif';-inkscape-font-specification:'Noto Serif Ultra-Light';text-align:end;text-anchor:end;fill:#000080"
         d="m 374.76954,252.36012 v -3.66667 h 3.08001 q 3.22667,0 4.84001,-0.44 1.76,-0.58667 2.78667,-2.20001 1.02667,-1.76 2.34667,-5.28001 l 32.56008,-93.13355 h 5.86668 l 32.70674,93.86688 q 1.17334,3.22668 2.05334,4.84002 1.02667,1.46667 2.64,1.90667 1.76001,0.44 5.13335,0.44 h 2.93334 v 3.66667 h -32.26674 v -3.66667 h 4.69334 q 5.13335,0 6.60002,-1.02667 1.61333,-1.17334 1.61333,-3.66668 0,-1.46667 -0.73333,-3.96001 -0.73334,-2.49334 -1.61334,-4.84001 -0.73333,-2.49334 -1.17333,-3.81334 L 443.4097,215.9867 h -41.50677 l -5.42667,15.25337 q -0.44001,1.32001 -1.32001,3.81335 -0.73333,2.34667 -1.46667,4.98667 -0.73333,2.49334 -0.73333,3.96001 0,2.49334 1.46667,3.66668 1.61333,1.02667 6.89335,1.02667 h 6.89335 v 3.66667 z m 28.60006,-40.92009 h 38.42676 L 430.943,179.61329 q -2.05334,-6.16002 -4.40001,-13.20003 -2.34667,-7.18669 -3.81334,-12.0267 -0.58667,2.64001 -2.05334,6.89335 -1.32,4.10668 -2.93334,8.80002 -1.61334,4.54668 -2.78667,8.06669 z m 106.33366,42.38676 q -12.0267,0 -18.04004,-6.89335 -5.86668,-7.04001 -5.86668,-21.56005 v -37.40008 q 0,-4.84001 -0.88001,-7.04002 -0.73333,-2.34667 -3.22667,-2.93334 -2.49334,-0.58667 -7.33335,-0.58667 h -3.08001 v -3.66667 h 20.68005 v 51.77345 q 0,6.89335 1.46667,12.17336 1.61334,5.28001 5.72001,8.36002 4.10668,2.93334 11.73336,2.93334 7.77336,0 12.9067,-3.66667 5.13335,-3.66668 7.77335,-9.68003 2.64001,-6.16001 2.64001,-13.34669 v -34.17342 q 0,-4.98667 -0.88,-7.18668 -0.73334,-2.34667 -3.22668,-2.93334 -2.49334,-0.58667 -7.33335,-0.58667 h -2.2 v -3.66667 h 19.80004 v 64.38681 q 0,4.84001 0.73334,7.18669 0.88,2.2 3.08,2.78667 2.20001,0.58667 6.45335,0.58667 h 3.81335 v 3.66667 h -19.21338 l -0.73334,-13.05336 h -0.58667 q -3.22667,6.30668 -9.09335,10.41336 -5.86668,4.10667 -15.1067,4.10667 z m 78.61345,0 q -9.09336,0 -13.05336,-4.98668 -3.81335,-4.98667 -3.81335,-17.3067 v -53.09346 h -11.44002 v -3.52001 q 6.16001,0 9.68002,-3.37334 1.61334,-1.61334 2.78667,-5.13334 1.17334,-3.66668 1.32001,-10.41336 h 3.81334 v 17.74671 h 18.77337 v 4.69334 h -18.77337 v 54.26679 q 0,9.09336 2.64,12.9067 2.78668,3.66668 8.80002,3.66668 4.40001,0 8.65336,-0.73334 v 4.25334 q -4.54668,1.02667 -9.38669,1.02667 z m 52.8,0 q -14.2267,0 -22.29338,-9.97335 -8.06669,-9.97336 -8.06669,-30.65341 0,-20.68005 7.77336,-30.50674 7.92001,-9.97335 23.17338,-9.97335 14.37337,0 22.14672,9.68002 7.77335,9.68002 7.77335,30.80007 0,20.68005 -7.77335,30.65341 -7.77335,9.97335 -22.73339,9.97335 z m 0,-4.54667 q 13.49337,0 18.77338,-9.68003 5.42668,-9.82669 5.42668,-26.40006 0,-18.33337 -5.72001,-27.13339 -5.57335,-8.80003 -17.89338,-8.80003 -13.3467,0 -19.06671,9.09336 -5.57335,8.94669 -5.57335,26.84006 0,17.16004 5.72002,26.6934 5.72001,9.38669 18.33337,9.38669 z m 45.02683,3.08 v -3.66667 h 3.08001 q 4.84001,0 7.18668,-0.58667 2.49334,-0.58667 3.22668,-2.78667 0.88,-2.34668 0.88,-7.33335 v -50.01345 q 0,-4.84001 -0.88,-7.04002 -0.73334,-2.34667 -2.93334,-2.93334 -2.20001,-0.58667 -6.30668,-0.58667 h -2.05334 v -3.66667 h 17.30671 l 0.73333,13.20003 h 0.73334 q 3.08,-7.48002 8.80002,-10.85336 5.86668,-3.37334 13.34669,-3.37334 9.38669,0 14.08004,4.10667 4.69334,4.10668 6.60001,10.41336 h 0.58667 q 2.78667,-6.45335 8.36002,-10.41336 5.72001,-4.10667 14.81337,-4.10667 22.88005,0 22.88005,26.98673 v 38.28009 q 0,4.98667 0.73333,7.33335 0.73334,2.2 3.08001,2.78667 2.49334,0.58667 7.48002,0.58667 h 1.17334 v 3.66667 h -18.62671 v -52.94679 q 0,-10.56002 -4.10668,-16.13337 -4.10668,-5.72001 -13.7867,-5.72001 -7.33335,0 -12.02669,3.22667 -4.54668,3.22668 -6.74669,8.80002 -2.05333,5.42668 -2.05333,12.0267 v 36.37342 q 0,4.98667 0.73333,7.33335 0.73334,2.2 3.08001,2.78667 2.49334,0.58667 7.48001,0.58667 h 1.76001 v 3.66667 h -19.21338 v -52.94679 q 0,-10.41335 -4.10668,-16.13337 -3.96,-5.72001 -13.93336,-5.72001 -7.18668,0 -11.88003,3.66667 -4.54668,3.66668 -6.74668,9.68003 -2.20001,6.01334 -2.20001,12.90669 v 34.32008 q 0,4.98668 0.73334,7.18669 0.88,2.2 3.22667,2.78667 2.49334,0.58667 7.48002,0.58667 h 2.34667 v 3.66667 z m 156.20043,1.46667 q -8.94669,0 -15.10671,-5.57334 -6.01334,-5.57335 -6.01334,-17.45338 0,-11.58669 8.21335,-17.01337 8.36002,-5.42668 25.81339,-6.01335 l 12.17336,-0.44 v -9.38669 q 0,-6.16001 -1.32,-10.70669 -1.17333,-4.69334 -4.98668,-7.33335 -3.81334,-2.78667 -11.58669,-2.78667 -10.41336,0 -13.7867,4.84001 -3.37334,4.69334 -3.37334,12.76003 -4.98668,0 -4.98668,-7.33335 0,-3.37334 2.05334,-6.74668 2.2,-3.37335 7.04002,-5.57335 4.98667,-2.34667 13.05336,-2.34667 13.05336,0 18.48004,6.16001 5.57335,6.01335 5.57335,17.30671 v 39.89342 q 0,5.28002 0.58667,8.06669 0.58667,2.64001 2.34667,3.66668 1.90667,0.88 5.72001,0.88 h 0.88 v 3.66667 h -14.08003 l -1.17333,-14.6667 h -0.44001 q -2.05333,3.37334 -5.28001,7.18669 -3.22667,3.66667 -8.06668,6.30668 -4.84001,2.64 -11.73336,2.64 z m 1.17333,-4.84001 q 6.89335,0 12.32003,-3.37334 5.42668,-3.37334 8.50669,-8.50669 3.08,-5.13334 3.08,-10.26669 v -15.69337 l -11.88002,0.44 q -10.70669,0.44001 -16.86671,2.93334 -6.16001,2.34668 -8.80002,6.60002 -2.49334,4.10668 -2.49334,9.97336 0,7.33335 3.66668,12.61336 3.81334,5.28001 12.46669,5.28001 z m 77.73358,4.84001 q -9.09335,0 -13.05336,-4.98668 -3.81334,-4.98667 -3.81334,-17.3067 v -53.09346 h -11.44003 v -3.52001 q 6.16001,0 9.68002,-3.37334 1.61334,-1.61334 2.78668,-5.13334 1.17333,-3.66668 1.32,-10.41336 h 3.81334 v 17.74671 h 18.77338 v 4.69334 h -18.77338 v 54.26679 q 0,9.09336 2.64001,12.9067 2.78667,3.66668 8.80002,3.66668 4.40001,0 8.65335,-0.73334 v 4.25334 q -4.54668,1.02667 -9.38669,1.02667 z m 42.38667,0 q -8.94669,0 -15.10671,-5.57334 -6.01334,-5.57335 -6.01334,-17.45338 0,-11.58669 8.21335,-17.01337 8.36002,-5.42668 25.81339,-6.01335 l 12.17336,-0.44 v -9.38669 q 0,-6.16001 -1.32,-10.70669 -1.17334,-4.69334 -4.98668,-7.33335 -3.81334,-2.78667 -11.58669,-2.78667 -10.41336,0 -13.7867,4.84001 -3.37334,4.69334 -3.37334,12.76003 -4.98668,0 -4.98668,-7.33335 0,-3.37334 2.05334,-6.74668 2.2,-3.37335 7.04002,-5.57335 4.98667,-2.34667 13.05336,-2.34667 13.05336,0 18.48004,6.16001 5.57335,6.01335 5.57335,17.30671 v 39.89342 q 0,5.28002 0.58667,8.06669 0.58666,2.64001 2.34667,3.66668 1.90667,0.88 5.72004,0.88 h 0.88 v 3.66667 h -14.08006 l -1.17334,-14.6667 h -0.44 q -2.05333,3.37334 -5.28001,7.18669 -3.22667,3.66667 -8.06668,6.30668 -4.84002,2.64 -11.73336,2.64 z m 1.17333,-4.84001 q 6.89335,0 12.32003,-3.37334 5.42668,-3.37334 8.50669,-8.50669 3.08,-5.13334 3.08,-10.26669 v -15.69337 l -11.88002,0.44 q -10.7067,0.44001 -16.86671,2.93334 -6.16001,2.34668 -8.80002,6.60002 -2.49334,4.10668 -2.49334,9.97336 0,7.33335 3.66668,12.61336 3.81334,5.28001 12.46669,5.28001 z m 95.62692,4.84001 q -13.4933,0 -22.44,-6.60001 -8.9467,-6.60002 -13.4934,-18.62671 -4.4,-12.17336 -4.4,-28.74674 0,-24.93339 10.2667,-39.30675 10.4134,-14.37337 30.5067,-14.37337 10.2667,0 16.4267,2.49334 6.3067,2.34667 9.2401,6.16001 2.9333,3.81334 2.9333,8.06669 0,7.04001 -5.1333,7.04001 0,-5.72001 -2.2,-9.97335 -2.0534,-4.40001 -7.3334,-6.74668 -5.28,-2.49334 -14.6667,-2.49334 -16.72,0 -25.0801,13.20003 -8.2133,13.20003 -8.2133,35.93341 0,14.96004 3.6667,25.96006 3.6666,11.00003 11.1467,17.01338 7.48,6.01334 19.0667,6.01334 10.8533,0 16.8667,-3.96 6.0133,-4.10668 8.9467,-9.68003 2.0533,1.17334 2.0533,4.10668 0,1.90667 -3.08,5.42668 -2.9333,3.52001 -9.24,6.30668 -6.16,2.78667 -15.8401,2.78667 z m 40.92,-1.46667 v -3.66667 h 5.4267 q 3.6666,0 5.5733,-0.73334 1.9067,-0.88 2.64,-3.52001 0.88,-2.64 0.88,-8.06668 v -72.74684 q 0,-5.42668 -0.88,-8.06668 -0.7333,-2.64001 -2.64,-3.37334 -1.9067,-0.88001 -5.5733,-0.88001 h -5.4267 v -3.66667 h 34.9067 v 3.66667 h -4.9867 q -3.6666,0 -5.72,0.88001 -1.9066,0.73333 -2.64,3.37334 -0.7333,2.64 -0.7333,8.06668 v 72.74684 q 0,5.42668 0.7333,8.06668 0.7334,2.64001 2.64,3.52001 2.0534,0.73334 5.72,0.73334 h 4.9867 v 3.66667 z"
         id="path2"
         aria-label="AutomataCI" /></g></g></svg>
